<svg width="407" height="238" viewBox="0 0 407 238" fill="none" xmlns="http://www.w3.org/2000/svg">
<path d="M361.826 216.463C361.826 201.955 371.257 195.748 381.413 195.748C385.363 195.748 388.345 196.796 390.441 198.972C390.682 199.133 390.924 199.214 391.086 199.214C391.489 199.214 391.65 198.892 391.65 198.247V185.914C391.65 182.61 387.539 182.207 387.539 178.982C387.539 177.128 389.232 176 392.536 176H396.083C399.146 176 402.773 178.015 402.773 182.287V226.781C402.773 230.488 406.803 230.327 406.803 233.39C406.803 236.131 404.224 236.534 402.128 236.534C398.662 236.534 396.164 235.002 394.471 232.665C394.229 232.262 393.907 232.101 393.584 232.101C393.262 232.101 392.939 232.262 392.617 232.665C390.441 235.567 387.136 237.098 382.461 237.098C371.257 237.098 361.826 230.891 361.826 216.463ZM381.816 201.068C376.819 201.471 373.353 205.985 373.917 216.947C374.239 222.992 375.771 232.101 383.509 232.101C387.861 231.859 391.086 227.829 391.65 221.864V212.111C390.36 203.97 387.297 201.068 382.622 201.068H381.816Z" fill="white"/>
<path d="M328.136 204.292C330.796 199.375 335.391 195.748 341.114 195.748C349.738 195.748 354.816 200.584 354.816 209.128V226.942C354.816 230.891 358.282 230.327 358.282 233.31C358.282 235.405 357.073 236.131 355.139 236.373C353.124 236.614 351.189 236.776 349.335 236.776C347.24 236.776 345.224 236.614 343.29 236.373C340.872 236.05 339.582 235.405 339.582 233.31C339.582 230.327 343.693 230.891 343.693 226.942V212.594C343.693 206.71 341.436 203.486 337.245 203.486C331.28 203.486 327.894 213.965 327.572 218.962V226.942C327.572 230.891 331.038 230.327 331.038 233.31C331.038 235.405 329.829 236.131 327.895 236.373C325.879 236.614 323.945 236.776 322.091 236.776C319.995 236.776 317.98 236.614 316.046 236.373C313.628 236.05 312.338 235.405 312.338 233.471C312.338 230.65 316.449 231.133 316.449 227.345V206.307C316.449 203.083 312.338 202.599 312.338 199.375C312.338 197.602 313.95 196.473 317.255 196.473H320.882C323.3 196.473 326.121 197.683 327.088 200.423C327.169 201.149 327.25 203.325 327.411 204.211C327.491 204.453 327.572 204.615 327.733 204.615C327.814 204.615 327.975 204.534 328.136 204.292Z" fill="white"/>
<path d="M282.656 237.098C276.53 237.098 269.195 234.519 269.195 225.975C269.195 215.818 284.591 212.997 293.296 211.788C293.86 211.708 294.183 211.305 294.183 210.74V208.967C294.183 203.728 292.571 200.504 288.621 200.504C284.349 200.504 282.656 204.856 280.238 207.274C279.029 208.484 277.336 209.048 275.805 209.048C273.306 209.048 270.969 207.516 270.969 204.695C270.969 199.456 279.916 195.748 288.621 195.748C297.487 195.748 305.387 199.375 305.387 209.531V225.652C305.387 230.972 308.611 229.279 309.82 230.972C311.109 232.826 307.724 236.695 302.646 236.695C300.147 236.695 297.326 235.889 295.714 232.262C295.553 231.939 295.392 231.778 295.23 231.778C295.069 231.778 294.827 231.939 294.666 232.181C292.006 235.164 287.815 237.098 282.656 237.098ZM281.044 224.766C280.964 228.635 283.865 230.972 287.17 230.972C290.314 230.972 293.699 228.635 294.183 225.41V217.431C294.183 216.786 293.86 216.705 293.296 216.705C288.782 217.431 281.205 219.284 281.044 224.766Z" fill="white"/>
<path d="M251.043 223.637L257.733 207.033C259.748 201.391 255.315 200.343 256.443 197.925C257.008 196.796 260.232 196.312 263.295 196.312C266.358 196.312 269.34 196.877 269.582 198.247C269.904 200.826 266.196 202.277 264.101 207.516L254.992 230.166C253.461 234.116 252.897 236.453 249.834 236.453H247.093C244.03 236.453 241.935 234.035 240.322 230.166L230.005 205.26C228.474 201.713 225.33 201.068 225.33 198.972C225.33 197.36 226.539 196.474 229.844 196.474H234.438C237.501 196.474 239.678 198.811 241.29 202.68L250.076 223.637C250.237 223.96 250.398 224.121 250.559 224.121C250.801 224.121 250.962 223.96 251.043 223.637Z" fill="white"/>
<path d="M202.785 224.604C204.8 228.151 207.782 229.682 211.732 229.682C216.165 229.682 219.792 227.264 223.178 223.476C223.823 222.75 224.629 222.347 225.273 222.347C226.321 222.347 226.966 223.315 226.16 225.491C223.017 233.793 216.729 237.017 208.508 237.098C198.352 237.098 190.372 231.456 188.357 220.494C186.1 208.322 193.838 196.232 207.702 195.748C214.634 195.748 221.163 197.441 224.467 204.131C226.886 208.967 225.032 212.917 219.792 215.415L203.188 223.234C202.624 223.557 202.382 224.121 202.785 224.604ZM200.367 217.269L210.442 212.675C213.747 211.224 215.44 209.531 213.908 206.63C212.619 203.97 209.959 201.632 206.573 201.632C205.928 201.632 205.203 201.713 204.478 201.955C198.755 203.405 197.465 210.015 199.077 216.625C199.238 217.108 199.561 217.35 199.964 217.35C200.044 217.35 200.206 217.35 200.367 217.269Z" fill="white"/>
<path d="M150.235 208.403C150.235 198.892 159.665 195.748 168.209 195.748C173.61 195.748 180.864 196.957 183.363 202.599C184.975 206.307 182.799 209.128 179.978 209.128C178.93 209.128 177.801 208.725 176.753 207.839C172.804 204.453 171.192 201.149 167.484 201.149C163.454 201.149 161.197 203.164 161.197 206.549C161.197 215.496 184.491 212.353 184.814 225.007C185.136 234.68 175.544 237.098 167.081 237.098C158.94 237.098 151.766 234.841 149.348 229.521C147.736 225.975 149.67 223.879 152.33 223.879C153.62 223.879 155.071 224.363 156.28 225.491C159.907 228.635 161.68 231.698 166.517 231.698C170.628 231.698 173.287 229.844 173.287 226.619C173.207 219.446 150.235 222.025 150.235 208.403Z" fill="white"/>
<path d="M115.576 204.292C118.236 199.375 122.83 195.748 128.553 195.748C137.178 195.748 142.256 200.584 142.256 209.128V226.942C142.256 230.891 145.722 230.327 145.722 233.31C145.722 235.405 144.513 236.131 142.578 236.373C140.563 236.614 138.629 236.776 136.775 236.776C134.679 236.776 132.664 236.614 130.729 236.373C128.311 236.05 127.022 235.405 127.022 233.31C127.022 230.327 131.132 230.891 131.132 226.942V212.594C131.132 206.71 128.875 203.486 124.684 203.486C118.719 203.486 115.334 213.965 115.012 218.962V226.942C115.012 230.891 118.478 230.327 118.478 233.31C118.478 235.405 117.268 236.131 115.334 236.373C113.319 236.614 111.384 236.776 109.53 236.776C107.435 236.776 105.42 236.614 103.485 236.373C101.067 236.05 99.7773 235.405 99.7773 233.471C99.7773 230.65 103.888 231.133 103.888 227.345V206.307C103.888 203.083 99.7773 202.599 99.7773 199.375C99.7773 197.602 101.389 196.473 104.694 196.473H108.321C110.74 196.473 113.561 197.683 114.528 200.423C114.609 201.149 114.689 203.325 114.85 204.211C114.931 204.453 115.012 204.615 115.173 204.615C115.253 204.615 115.415 204.534 115.576 204.292Z" fill="white"/>
<path d="M70.0957 237.098C63.9698 237.098 56.6348 234.519 56.6348 225.975C56.6348 215.818 72.0302 212.997 80.7354 211.788C81.2997 211.708 81.6221 211.305 81.6221 210.74V208.967C81.6221 203.728 80.01 200.504 76.0604 200.504C71.7884 200.504 70.0957 204.856 67.6775 207.274C66.4685 208.484 64.7758 209.048 63.2443 209.048C60.7456 209.048 58.4081 207.516 58.4081 204.695C58.4081 199.456 67.3551 195.748 76.0604 195.748C84.9268 195.748 92.8261 199.375 92.8261 209.531V225.652C92.8261 230.972 96.0502 229.279 97.2593 230.972C98.549 232.826 95.1636 236.695 90.0855 236.695C87.5868 236.695 84.7656 235.889 83.1536 232.262C82.9923 231.939 82.8311 231.778 82.6699 231.778C82.5087 231.778 82.2669 231.939 82.1057 232.181C79.4458 235.164 75.2543 237.098 70.0957 237.098ZM68.4836 224.766C68.403 228.635 71.3047 230.972 74.6095 230.972C77.7531 230.972 81.1384 228.635 81.6221 225.41V217.431C81.6221 216.786 81.2997 216.705 80.7354 216.705C76.2216 217.431 68.6448 219.284 68.4836 224.766Z" fill="white"/>
<path d="M4.03021 193.006C4.03021 189.218 0 188.976 0 185.671C0 183.818 1.61208 182.447 5.40048 182.447H24.7455C39.4961 182.447 51.7479 190.588 51.7479 209.772C51.7479 228.956 39.4961 236.452 24.7455 236.452H4.27202C1.53148 236.452 0 235.565 0 233.47C0 230.568 4.03021 230.568 4.03021 227.747V193.006ZM17.4911 228.553C19.0226 229.278 22.3274 229.681 24.0201 229.681C32.0805 229.681 38.5288 223.797 38.5288 209.611C38.5288 195.828 32.0805 189.218 24.0201 189.218C22.3274 189.218 18.942 189.621 17.4105 190.346C16.1208 190.669 15.7178 192.362 15.7178 194.135V225.409C15.7178 227.102 16.3627 228.23 17.4911 228.553Z" fill="white"/>
<path d="M296.664 15.8785H305.288L303.999 21.9238L304.16 22.085C305.826 19.7743 307.895 17.9742 310.366 16.6845C312.892 15.3948 315.606 14.75 318.507 14.75C322.699 14.75 325.762 15.7441 327.696 17.7324C329.685 19.7206 330.679 22.4074 330.679 25.7928C330.679 26.5451 330.652 27.4049 330.598 28.3721C330.544 29.3394 330.437 30.1991 330.276 30.9514L324.714 57.5508H315.525L320.845 31.8381C321.006 31.1395 321.141 30.4678 321.248 29.823C321.409 29.1782 321.49 28.5602 321.49 27.9691C321.49 27.6467 321.463 27.163 321.409 26.5182C321.409 25.8196 321.221 25.1479 320.845 24.5031C320.469 23.8045 319.824 23.2134 318.91 22.7298C318.051 22.2462 316.788 22.0044 315.122 22.0044C313.295 22.0044 311.656 22.4074 310.205 23.2134C308.808 23.9657 307.545 24.9061 306.417 26.0346C305.342 27.1093 304.402 28.4527 303.596 30.0648C302.843 31.6231 302.279 33.2621 301.903 34.9817L297.228 57.5508H288.039L296.664 15.8785Z" fill="white"/>
<path d="M278.394 33.0472C278.447 32.7785 278.474 32.5635 278.474 32.4023C278.474 32.1874 278.474 31.9724 278.474 31.7575V30.4678C278.474 27.996 277.695 25.9809 276.137 24.4225C274.578 22.8104 272.429 22.0044 269.688 22.0044C266.249 22.0044 263.509 23.0522 261.467 25.1479C259.425 27.1899 257.947 29.823 257.034 33.0472H278.394ZM285.084 44.6542C283.633 49.5442 281.188 53.1176 277.749 55.3745C274.31 57.5777 270.065 58.6793 265.013 58.6793C262.38 58.6793 259.935 58.2763 257.678 57.4702C255.475 56.6105 253.568 55.4014 251.956 53.843C250.343 52.231 249.081 50.3233 248.167 48.1201C247.254 45.8632 246.797 43.3108 246.797 40.4627C246.797 37.2386 247.307 34.095 248.328 31.0321C249.349 27.9691 250.827 25.2285 252.762 22.8104C254.75 20.3923 257.168 18.4578 260.016 17.0069C262.918 15.5023 266.222 14.75 269.93 14.75C273.638 14.75 276.647 15.368 278.958 16.6039C281.269 17.8398 283.069 19.3982 284.358 21.2789C285.648 23.1597 286.508 25.2285 286.938 27.4855C287.421 29.7424 287.663 31.8918 287.663 33.9338C287.663 34.9548 287.609 35.8952 287.502 36.7549C287.395 37.6147 287.287 38.3939 287.18 39.0925H256.147C256.093 39.3612 256.039 39.603 255.986 39.8179C255.986 40.0329 255.986 40.2478 255.986 40.4627V41.7524C255.986 44.6542 256.738 46.9917 258.243 48.765C259.801 50.5383 262.353 51.4249 265.9 51.4249C268.372 51.4249 270.495 50.8607 272.268 49.7322C274.041 48.6038 275.25 46.9111 275.895 44.6542H285.084Z" fill="white"/>
<path d="M235.378 33.0472C235.432 32.7785 235.459 32.5635 235.459 32.4023C235.459 32.1874 235.459 31.9724 235.459 31.7575V30.4678C235.459 27.996 234.68 25.9809 233.121 24.4225C231.563 22.8104 229.413 22.0044 226.673 22.0044C223.234 22.0044 220.493 23.0522 218.451 25.1479C216.409 27.1899 214.931 29.823 214.018 33.0472H235.378ZM242.068 44.6542C240.617 49.5442 238.172 53.1176 234.733 55.3745C231.294 57.5777 227.049 58.6793 221.998 58.6793C219.365 58.6793 216.92 58.2763 214.663 57.4702C212.46 56.6105 210.552 55.4014 208.94 53.843C207.328 52.231 206.065 50.3233 205.152 48.1201C204.238 45.8632 203.781 43.3108 203.781 40.4627C203.781 37.2386 204.292 34.095 205.313 31.0321C206.334 27.9691 207.811 25.2285 209.746 22.8104C211.734 20.3923 214.152 18.4578 217 17.0069C219.902 15.5023 223.207 14.75 226.915 14.75C230.622 14.75 233.632 15.368 235.942 16.6039C238.253 17.8398 240.053 19.3982 241.343 21.2789C242.632 23.1597 243.492 25.2285 243.922 27.4855C244.406 29.7424 244.648 31.8918 244.648 33.9338C244.648 34.9548 244.594 35.8952 244.486 36.7549C244.379 37.6147 244.271 38.3939 244.164 39.0925H213.131C213.078 39.3612 213.024 39.603 212.97 39.8179C212.97 40.0329 212.97 40.2478 212.97 40.4627V41.7524C212.97 44.6542 213.722 46.9917 215.227 48.765C216.785 50.5383 219.338 51.4249 222.884 51.4249C225.356 51.4249 227.479 50.8607 229.252 49.7322C231.025 48.6038 232.235 46.9111 232.879 44.6542H242.068Z" fill="white"/>
<path d="M182.572 15.8785H191.277L189.584 24.0195L189.746 24.1807C190.391 23.0522 191.17 21.9238 192.083 20.7953C193.05 19.6669 194.098 18.6727 195.227 17.813C196.355 16.8994 197.564 16.174 198.854 15.6366C200.197 15.0455 201.595 14.75 203.045 14.75C203.798 14.75 204.523 14.7769 205.222 14.8306C205.974 14.8306 206.726 14.8843 207.479 14.9918L205.544 23.7777C205.007 23.6702 204.469 23.5896 203.932 23.5359C203.395 23.4821 202.857 23.4553 202.32 23.4553C199.956 23.4553 197.887 23.8851 196.113 24.7449C194.394 25.551 192.916 26.6794 191.68 28.1303C190.498 29.5812 189.531 31.247 188.778 33.1278C188.026 35.0085 187.435 36.9968 187.005 39.0925L183.136 57.5508H173.947L182.572 15.8785Z" fill="white"/>
<path d="M140.363 46.105C140.363 47.126 140.578 47.9858 141.008 48.6844C141.491 49.3292 142.082 49.8666 142.781 50.2965C143.479 50.6726 144.259 50.9682 145.118 51.1831C145.978 51.3443 146.838 51.4249 147.698 51.4249C149.955 51.4249 151.835 51.0488 153.34 50.2965C154.898 49.5442 156.161 48.5232 157.128 47.2335C158.149 45.9438 158.929 44.4392 159.466 42.7197C160.057 40.9464 160.514 39.0656 160.836 37.0774L160.675 36.9162C160.03 37.561 159.17 38.0177 158.096 38.2864C157.021 38.5551 155.973 38.7432 154.952 38.8507C153.662 38.9581 152.158 39.0656 150.438 39.1731C148.772 39.2805 147.187 39.5761 145.683 40.0597C144.232 40.4896 142.969 41.1882 141.894 42.1554C140.873 43.069 140.363 44.3855 140.363 46.105ZM168.01 45.4602C167.849 46.2125 167.661 46.938 167.446 47.6365C167.285 48.3351 167.204 48.9799 167.204 49.571C167.204 50.1621 167.338 50.6189 167.607 50.9413C167.876 51.2637 168.386 51.4249 169.138 51.4249C169.676 51.4249 170.213 51.3712 170.75 51.2637C171.288 51.1025 171.825 50.995 172.363 50.9413L170.912 57.5508C169.73 57.8195 168.547 58.0613 167.365 58.2763C166.183 58.545 164.974 58.6793 163.738 58.6793C162.18 58.6793 160.89 58.1957 159.869 57.2284C158.848 56.2612 158.284 54.9715 158.176 53.3594C156.349 55.1865 154.2 56.5299 151.728 57.3896C149.256 58.2494 146.73 58.6793 144.151 58.6793C142.432 58.6793 140.793 58.4375 139.234 57.9539C137.676 57.4702 136.279 56.7717 135.043 55.8582C133.861 54.9446 132.92 53.7893 132.222 52.3922C131.523 50.995 131.174 49.3829 131.174 47.5559C131.174 44.9766 131.657 42.8271 132.625 41.1076C133.592 39.3343 134.882 37.8834 136.494 36.7549C138.106 35.6265 139.96 34.7936 142.055 34.2562C144.151 33.7189 146.354 33.3696 148.665 33.2084C151.782 32.9934 154.845 32.7516 157.854 32.4829C159.52 32.3755 160.729 31.8381 161.481 30.8708C162.287 29.8499 162.69 28.5602 162.69 27.0018C162.69 25.0136 161.992 23.6971 160.594 23.0522C159.197 22.3537 157.558 22.0044 155.678 22.0044C153.098 22.0044 150.868 22.4611 148.987 23.3747C147.16 24.2344 145.924 25.954 145.28 28.5333H136.574C137.058 25.954 137.891 23.8045 139.073 22.085C140.255 20.3117 141.706 18.8877 143.426 17.813C145.145 16.6845 147.08 15.9053 149.229 15.4754C151.432 14.9918 153.77 14.75 156.242 14.75C160.003 14.75 162.932 15.1262 165.028 15.8785C167.177 16.577 168.735 17.4368 169.703 18.4578C170.724 19.4788 171.342 20.5535 171.557 21.682C171.771 22.7567 171.879 23.6702 171.879 24.4225C171.879 26.2495 171.61 28.3452 171.073 30.7096L168.01 45.4602Z" fill="white"/>
<path d="M88.7682 49.3298H103.196C104.056 49.3298 105.265 49.3029 106.824 49.2492C108.382 49.1954 109.967 48.9268 111.579 48.4431C113.191 47.9058 114.615 47.0191 115.851 45.7832C117.141 44.5473 117.893 42.7471 118.108 40.3827C118.162 39.6841 118.135 38.8244 118.028 37.8034C117.974 36.7824 117.598 35.7883 116.899 34.821C116.254 33.8538 115.206 33.0477 113.756 32.4029C112.358 31.7043 110.37 31.355 107.791 31.355H92.5566L88.7682 49.3298ZM94.0075 24.1007H109.08C111.552 24.1007 113.541 23.7782 115.045 23.1334C116.55 22.4886 117.705 21.7094 118.511 20.7959C119.317 19.8286 119.855 18.8345 120.123 17.8135C120.392 16.7388 120.526 15.8253 120.526 15.073C120.526 14.4819 120.446 13.8102 120.284 13.0579C120.123 12.2518 119.747 11.4995 119.156 10.801C118.565 10.0487 117.678 9.43069 116.496 8.94707C115.314 8.46344 113.702 8.22163 111.66 8.22163H97.3123L94.0075 24.1007ZM88.9294 0H113.756C117.571 0 120.58 0.510493 122.783 1.53148C125.04 2.55247 126.733 3.76153 127.861 5.15867C129.043 6.55581 129.796 8.03356 130.118 9.5919C130.441 11.1502 130.602 12.4399 130.602 13.4609C130.602 15.1805 130.333 16.8194 129.796 18.3778C129.312 19.8824 128.587 21.2526 127.619 22.4886C126.652 23.7245 125.47 24.7455 124.073 25.5515C122.729 26.3576 121.225 26.8949 119.559 27.1636V27.3248C125.309 29.1519 128.184 33.1821 128.184 39.4155C128.184 40.9201 127.888 42.7202 127.297 44.8159C126.706 46.8579 125.604 48.8462 123.992 50.7807C122.434 52.6614 120.231 54.2735 117.383 55.6169C114.588 56.9066 110.988 57.5514 106.582 57.5514H77L88.9294 0Z" fill="white"/>
<path d="M190.18 127.68L179.38 112.98H185.92L193.36 123.84L201.1 112.98H207.22L196.54 127.26L208.54 144H202L193.36 131.16L184.72 144H178.54L190.18 127.68Z" fill="white"/>
</svg>
