<svg width="617" height="95" viewBox="0 0 617 95" fill="none" xmlns="http://www.w3.org/2000/svg">
<mask id="path-1-outside-1_302_479" maskUnits="userSpaceOnUse" x="-0.960938" y="0" width="618" height="95" fill="black">
<rect fill="white" x="-0.960938" width="618" height="95"/>
<path d="M13.4791 14.56C22.5991 8.55999 33.3991 3.99999 47.0791 3.99999C66.6391 3.99999 79.2391 13.36 79.2391 28.48C79.2391 47.56 60.3991 61.24 37.4791 63.76C37.4791 70.6 38.4391 76 41.3191 80.56C38.0791 86.44 28.8391 89.8 20.6791 89.8C8.43906 89.8 3.99906 82.24 3.99906 74.2C3.99906 61.48 14.3191 35.32 14.3191 22.36C14.3191 20.2 14.1991 17.08 13.4791 14.56ZM41.9191 26.56C41.5591 33.16 40.3591 39.76 39.3991 46.36C47.3191 43.96 51.9991 38.68 51.9991 31C51.9991 27.04 49.7191 25.36 47.0791 25.36C45.2791 25.36 43.4791 25.84 41.9191 26.56ZM108.928 91C88.5278 91 75.4478 77.68 75.4478 55.36C75.4478 29.44 93.5678 3.99999 121.168 3.99999C140.368 3.99999 154.408 15.28 154.408 39.04C154.408 67.12 136.168 91 108.928 91ZM112.408 66.52C121.048 66.52 126.208 49.72 126.208 38.32C126.208 28.12 123.088 25.48 119.488 25.48C112.408 25.48 105.208 41.44 105.208 54.16C105.208 65.8 110.608 66.52 112.408 66.52ZM160.432 14.56C169.552 8.55999 184.912 3.99999 198.592 3.99999C218.152 3.99999 229.192 12.64 229.192 25.6C229.192 39.28 217.192 49.48 203.032 53.56C205.792 56.92 209.392 59.44 214.792 59.44C218.152 59.44 220.312 58.24 221.992 56.92C223.792 59.44 225.112 67 225.112 70.24C225.112 81.04 218.272 89.32 206.392 89.32C188.872 89.32 184.792 73.48 184.792 61.72C184.792 59.44 184.912 57.28 185.152 55.36H183.112C182.512 59.08 182.152 62.68 182.152 65.68C182.152 71.92 184.312 78.88 186.352 81.28C183.832 85.96 176.392 89.8 166.792 89.8C155.392 89.8 150.952 82.24 150.952 74.2C150.952 61.48 161.272 35.32 161.272 22.36C161.272 20.2 161.152 17.08 160.432 14.56ZM187.552 30.64C187.072 34.72 186.112 39.64 185.032 44.68C194.272 44.44 200.392 38.56 200.392 33.28C200.392 30.64 198.712 28.72 195.112 28.72C193.192 28.72 190.672 29.32 187.552 30.64ZM293.239 5.67999C296.359 7 300.919 12.28 300.919 18.52C300.919 28.96 292.159 32.68 281.479 33.64C277.879 42.52 274.999 54.52 274.999 64.84C274.999 71.56 276.319 77.44 279.439 81.4C276.319 85.72 270.919 89.8 261.799 89.8C250.879 89.8 245.359 82 245.359 71.8C245.359 61.48 249.079 46.6 255.319 32.8C251.839 32.44 248.599 32.2 246.199 32.2C241.159 32.2 236.719 33.88 233.359 35.92C231.439 32.32 230.359 28.24 230.359 24.28C230.359 12.52 236.359 3.99999 250.279 3.99999C258.319 3.99999 271.039 9.63999 281.479 9.63999C285.919 9.63999 290.119 8.55999 293.239 5.67999ZM328.886 35.2L327.686 42.4C336.806 41.92 342.446 39.52 345.806 35.92C350.006 37.48 353.006 41.56 353.006 46.24C353.006 54.04 347.246 61.72 332.246 61.72C329.966 61.72 327.446 61.48 324.806 61.12C324.686 62.44 324.686 63.76 324.686 65.08C324.686 71.08 325.886 76.6 329.366 80.56C325.286 87.04 316.406 89.8 308.726 89.8C296.366 89.8 291.806 82.6 291.806 74.32C291.806 60.76 302.366 38.44 302.366 22.36C302.366 20.2 302.246 17.08 301.526 14.56C310.646 8.55999 328.286 3.99999 343.166 3.99999C356.126 3.99999 363.086 10.24 363.086 20.32C363.086 27.88 357.806 34.6 352.286 37.36C349.766 34 345.326 32.8 341.366 32.8C337.526 32.8 333.206 33.76 328.886 35.2ZM390.529 91C370.129 91 357.049 77.68 357.049 55.36C357.049 29.44 375.169 3.99999 402.769 3.99999C421.969 3.99999 436.009 15.28 436.009 39.04C436.009 67.12 417.769 91 390.529 91ZM394.009 66.52C402.649 66.52 407.809 49.72 407.809 38.32C407.809 28.12 404.689 25.48 401.089 25.48C394.009 25.48 386.809 41.44 386.809 54.16C386.809 65.8 392.209 66.52 394.009 66.52ZM442.634 21.52C442.634 17.68 441.554 14.08 440.354 11.44C441.674 9.03999 448.994 5.32 454.754 5.32C466.994 5.32 472.034 12.16 472.034 22.12C472.034 34.24 465.434 50.2 461.954 62.56C473.834 62.56 484.994 56.32 489.914 51.64C494.834 56.2 496.514 63.64 496.514 68.32C496.514 80.8 486.194 89.8 464.954 89.8C451.634 89.8 433.634 86.92 433.634 68.68C433.634 57.16 442.634 37.6 442.634 21.52ZM511.636 89.32C501.556 89.32 497.236 82.6 497.236 74.32C497.236 60.76 507.556 39.76 507.556 21.52C507.556 17.68 506.476 14.08 505.276 11.44C506.596 9.03999 512.956 5.32 518.716 5.32C530.956 5.32 536.956 12.16 536.956 22.12C536.956 38.68 526.276 62.2 526.276 74.32C526.276 76.96 526.636 80.08 528.076 82.48C524.476 86.68 519.316 89.32 511.636 89.32ZM567.365 91C546.965 91 533.885 77.68 533.885 55.36C533.885 29.44 552.005 3.99999 579.605 3.99999C598.805 3.99999 612.845 15.28 612.845 39.04C612.845 67.12 594.605 91 567.365 91ZM570.845 66.52C579.485 66.52 584.645 49.72 584.645 38.32C584.645 28.12 581.525 25.48 577.925 25.48C570.845 25.48 563.645 41.44 563.645 54.16C563.645 65.8 569.045 66.52 570.845 66.52Z"/>
</mask>
<path d="M13.4791 14.56C22.5991 8.55999 33.3991 3.99999 47.0791 3.99999C66.6391 3.99999 79.2391 13.36 79.2391 28.48C79.2391 47.56 60.3991 61.24 37.4791 63.76C37.4791 70.6 38.4391 76 41.3191 80.56C38.0791 86.44 28.8391 89.8 20.6791 89.8C8.43906 89.8 3.99906 82.24 3.99906 74.2C3.99906 61.48 14.3191 35.32 14.3191 22.36C14.3191 20.2 14.1991 17.08 13.4791 14.56ZM41.9191 26.56C41.5591 33.16 40.3591 39.76 39.3991 46.36C47.3191 43.96 51.9991 38.68 51.9991 31C51.9991 27.04 49.7191 25.36 47.0791 25.36C45.2791 25.36 43.4791 25.84 41.9191 26.56ZM108.928 91C88.5278 91 75.4478 77.68 75.4478 55.36C75.4478 29.44 93.5678 3.99999 121.168 3.99999C140.368 3.99999 154.408 15.28 154.408 39.04C154.408 67.12 136.168 91 108.928 91ZM112.408 66.52C121.048 66.52 126.208 49.72 126.208 38.32C126.208 28.12 123.088 25.48 119.488 25.48C112.408 25.48 105.208 41.44 105.208 54.16C105.208 65.8 110.608 66.52 112.408 66.52ZM160.432 14.56C169.552 8.55999 184.912 3.99999 198.592 3.99999C218.152 3.99999 229.192 12.64 229.192 25.6C229.192 39.28 217.192 49.48 203.032 53.56C205.792 56.92 209.392 59.44 214.792 59.44C218.152 59.44 220.312 58.24 221.992 56.92C223.792 59.44 225.112 67 225.112 70.24C225.112 81.04 218.272 89.32 206.392 89.32C188.872 89.32 184.792 73.48 184.792 61.72C184.792 59.44 184.912 57.28 185.152 55.36H183.112C182.512 59.08 182.152 62.68 182.152 65.68C182.152 71.92 184.312 78.88 186.352 81.28C183.832 85.96 176.392 89.8 166.792 89.8C155.392 89.8 150.952 82.24 150.952 74.2C150.952 61.48 161.272 35.32 161.272 22.36C161.272 20.2 161.152 17.08 160.432 14.56ZM187.552 30.64C187.072 34.72 186.112 39.64 185.032 44.68C194.272 44.44 200.392 38.56 200.392 33.28C200.392 30.64 198.712 28.72 195.112 28.72C193.192 28.72 190.672 29.32 187.552 30.64ZM293.239 5.67999C296.359 7 300.919 12.28 300.919 18.52C300.919 28.96 292.159 32.68 281.479 33.64C277.879 42.52 274.999 54.52 274.999 64.84C274.999 71.56 276.319 77.44 279.439 81.4C276.319 85.72 270.919 89.8 261.799 89.8C250.879 89.8 245.359 82 245.359 71.8C245.359 61.48 249.079 46.6 255.319 32.8C251.839 32.44 248.599 32.2 246.199 32.2C241.159 32.2 236.719 33.88 233.359 35.92C231.439 32.32 230.359 28.24 230.359 24.28C230.359 12.52 236.359 3.99999 250.279 3.99999C258.319 3.99999 271.039 9.63999 281.479 9.63999C285.919 9.63999 290.119 8.55999 293.239 5.67999ZM328.886 35.2L327.686 42.4C336.806 41.92 342.446 39.52 345.806 35.92C350.006 37.48 353.006 41.56 353.006 46.24C353.006 54.04 347.246 61.72 332.246 61.72C329.966 61.72 327.446 61.48 324.806 61.12C324.686 62.44 324.686 63.76 324.686 65.08C324.686 71.08 325.886 76.6 329.366 80.56C325.286 87.04 316.406 89.8 308.726 89.8C296.366 89.8 291.806 82.6 291.806 74.32C291.806 60.76 302.366 38.44 302.366 22.36C302.366 20.2 302.246 17.08 301.526 14.56C310.646 8.55999 328.286 3.99999 343.166 3.99999C356.126 3.99999 363.086 10.24 363.086 20.32C363.086 27.88 357.806 34.6 352.286 37.36C349.766 34 345.326 32.8 341.366 32.8C337.526 32.8 333.206 33.76 328.886 35.2ZM390.529 91C370.129 91 357.049 77.68 357.049 55.36C357.049 29.44 375.169 3.99999 402.769 3.99999C421.969 3.99999 436.009 15.28 436.009 39.04C436.009 67.12 417.769 91 390.529 91ZM394.009 66.52C402.649 66.52 407.809 49.72 407.809 38.32C407.809 28.12 404.689 25.48 401.089 25.48C394.009 25.48 386.809 41.44 386.809 54.16C386.809 65.8 392.209 66.52 394.009 66.52ZM442.634 21.52C442.634 17.68 441.554 14.08 440.354 11.44C441.674 9.03999 448.994 5.32 454.754 5.32C466.994 5.32 472.034 12.16 472.034 22.12C472.034 34.24 465.434 50.2 461.954 62.56C473.834 62.56 484.994 56.32 489.914 51.64C494.834 56.2 496.514 63.64 496.514 68.32C496.514 80.8 486.194 89.8 464.954 89.8C451.634 89.8 433.634 86.92 433.634 68.68C433.634 57.16 442.634 37.6 442.634 21.52ZM511.636 89.32C501.556 89.32 497.236 82.6 497.236 74.32C497.236 60.76 507.556 39.76 507.556 21.52C507.556 17.68 506.476 14.08 505.276 11.44C506.596 9.03999 512.956 5.32 518.716 5.32C530.956 5.32 536.956 12.16 536.956 22.12C536.956 38.68 526.276 62.2 526.276 74.32C526.276 76.96 526.636 80.08 528.076 82.48C524.476 86.68 519.316 89.32 511.636 89.32ZM567.365 91C546.965 91 533.885 77.68 533.885 55.36C533.885 29.44 552.005 3.99999 579.605 3.99999C598.805 3.99999 612.845 15.28 612.845 39.04C612.845 67.12 594.605 91 567.365 91ZM570.845 66.52C579.485 66.52 584.645 49.72 584.645 38.32C584.645 28.12 581.525 25.48 577.925 25.48C570.845 25.48 563.645 41.44 563.645 54.16C563.645 65.8 569.045 66.52 570.845 66.52Z" fill="#F7F8FF"/>
<path d="M13.4791 14.56L11.2806 11.2183L8.82569 12.8334L9.63297 15.6589L13.4791 14.56ZM37.4791 63.76L37.0419 59.784L33.4791 60.1757V63.76H37.4791ZM41.3191 80.56L44.8224 82.4904L45.9625 80.4214L44.701 78.424L41.3191 80.56ZM41.9191 26.56L40.2428 22.9282L38.0562 23.9374L37.925 26.3421L41.9191 26.56ZM39.3991 46.36L35.4407 45.7842L34.5346 52.0137L40.5591 50.1881L39.3991 46.36ZM13.4791 14.56L15.6775 17.9017C24.3288 12.21 34.375 7.99999 47.0791 7.99999V3.99999V-5.72205e-06C32.4231 -5.72205e-06 20.8693 4.90997 11.2806 11.2183L13.4791 14.56ZM47.0791 3.99999V7.99999C56.2753 7.99999 63.3799 10.206 68.0818 13.7607C72.6669 17.2273 75.2391 22.1612 75.2391 28.48H79.2391L83.2391 28.48C83.2391 19.6788 79.5112 12.3727 72.9064 7.37926C66.4182 2.47403 57.4429 -5.72205e-06 47.0791 -5.72205e-06V3.99999ZM79.2391 28.48H75.2391C75.2391 36.574 71.2772 43.6949 64.4403 49.2186C57.5623 54.7755 47.8826 58.592 37.0419 59.784L37.4791 63.76L37.9162 67.736C49.9955 66.4079 61.1959 62.1245 69.4678 55.4414C77.7809 48.7251 83.2391 39.466 83.2391 28.48L79.2391 28.48ZM37.4791 63.76H33.4791C33.4791 70.9296 34.474 77.2127 37.9371 82.696L41.3191 80.56L44.701 78.424C42.4042 74.7873 41.4791 70.2704 41.4791 63.76H37.4791ZM41.3191 80.56L37.8157 78.6296C36.7919 80.4876 34.571 82.3157 31.2899 83.6993C28.0712 85.0566 24.2524 85.8 20.6791 85.8V89.8V93.8C25.2658 93.8 30.1469 92.8634 34.3983 91.0707C38.5871 89.3043 42.6062 86.5124 44.8224 82.4904L41.3191 80.56ZM20.6791 89.8V85.8C15.4175 85.8 12.4241 84.2053 10.7047 82.3197C8.91907 80.3617 7.99906 77.5315 7.99906 74.2H3.99906H-0.000937454C-0.000937454 78.9085 1.29905 83.8783 4.79346 87.7103C8.354 91.6147 13.7006 93.8 20.6791 93.8V89.8ZM3.99906 74.2H7.99906C7.99906 71.4667 8.5655 67.7912 9.52 63.4072C10.4649 59.067 11.7301 54.2906 13.026 49.3932C15.5424 39.8834 18.3191 29.4902 18.3191 22.36H14.3191L10.3191 22.36C10.3191 28.1898 7.93571 37.3566 5.29216 47.3468C4.00807 52.1994 2.69318 57.158 1.70313 61.7053C0.722626 66.2088 -0.000937454 70.5733 -0.000937454 74.2H3.99906ZM14.3191 22.36H18.3191C18.3191 20.1563 18.2094 16.5559 17.3252 13.4611L13.4791 14.56L9.63297 15.6589C10.1887 17.6041 10.3191 20.2437 10.3191 22.36L14.3191 22.36ZM41.9191 26.56L37.925 26.3421C37.578 32.7036 36.4286 38.9926 35.4407 45.7842L39.3991 46.36L43.3574 46.9358C44.2895 40.5274 45.5401 33.6164 45.9131 26.7779L41.9191 26.56ZM39.3991 46.36L40.5591 50.1881C45.0742 48.8199 48.963 46.5401 51.7361 43.2277C54.5449 39.8728 55.9991 35.7045 55.9991 31H51.9991H47.9991C47.9991 33.9754 47.1133 36.2872 45.602 38.0923C44.0551 39.9399 41.6439 41.5001 38.239 42.5319L39.3991 46.36ZM51.9991 31H55.9991C55.9991 28.2486 55.191 25.7304 53.3808 23.89C51.5815 22.0608 49.2414 21.36 47.0791 21.36L47.0791 25.36V29.36C47.5568 29.36 47.6766 29.4992 47.6774 29.5C47.6923 29.5152 47.7612 29.588 47.8344 29.7928C47.911 30.0076 47.9991 30.3901 47.9991 31H51.9991ZM47.0791 25.36L47.0791 21.36C44.5928 21.36 42.2212 22.0151 40.2428 22.9282L41.9191 26.56L43.5953 30.1918C44.7369 29.6649 45.9653 29.36 47.0791 29.36V25.36ZM108.928 91V87C99.6228 87 92.3733 83.9849 87.4364 78.7935C82.4794 73.581 79.4478 65.745 79.4478 55.36H75.4478H71.4478C71.4478 67.295 74.9562 77.279 81.6392 84.3065C88.3423 91.3551 97.8329 95 108.928 95V91ZM75.4478 55.36H79.4478C79.4478 30.9252 96.4372 7.99999 121.168 7.99999V3.99999V-5.72205e-06C90.6984 -5.72205e-06 71.4478 27.9548 71.4478 55.36H75.4478ZM121.168 3.99999V7.99999C130 7.99999 137.204 10.5839 142.189 15.4673C147.152 20.33 150.408 27.9564 150.408 39.04H154.408L158.408 39.04C158.408 26.3636 154.644 16.47 147.787 9.75271C140.952 3.05606 131.536 -5.72205e-06 121.168 -5.72205e-06V3.99999ZM154.408 39.04H150.408C150.408 65.5917 133.334 87 108.928 87V91V95C139.001 95 158.408 68.6483 158.408 39.04L154.408 39.04ZM112.408 66.52V70.52C115.979 70.52 118.894 68.7586 121.082 66.5004C123.247 64.2658 124.938 61.3231 126.234 58.2481C128.826 52.0966 130.208 44.5142 130.208 38.32H126.208H122.208C122.208 43.5258 121.01 50.0434 118.862 55.1419C117.787 57.6919 116.569 59.6617 115.336 60.9333C114.127 62.1814 113.157 62.52 112.408 62.52V66.52ZM126.208 38.32H130.208C130.208 32.9554 129.414 28.8241 127.574 25.9292C125.511 22.684 122.461 21.48 119.488 21.48V25.48V29.48C120.114 29.48 120.425 29.596 120.822 30.2208C121.442 31.1959 122.208 33.4846 122.208 38.32H126.208ZM119.488 25.48V21.48C116.187 21.48 113.444 23.3122 111.421 25.3646C109.343 27.473 107.55 30.278 106.088 33.3156C103.169 39.3837 101.208 47.1434 101.208 54.16H105.208H109.208C109.208 48.4566 110.847 41.8763 113.297 36.7844C114.521 34.242 115.855 32.262 117.119 30.9804C118.437 29.6428 119.248 29.48 119.488 29.48V25.48ZM105.208 54.16H101.208C101.208 60.513 102.673 64.8031 105.252 67.4801C107.887 70.2158 110.96 70.52 112.408 70.52V66.52V62.52C112.055 62.52 111.528 62.4642 111.014 61.9299C110.442 61.3369 109.208 59.447 109.208 54.16H105.208ZM160.432 14.56L158.234 11.2183L155.779 12.8334L156.586 15.6589L160.432 14.56ZM203.032 53.56L201.925 49.7164L196.081 51.4L199.941 56.099L203.032 53.56ZM221.992 56.92L225.247 54.595L222.813 51.1878L219.521 53.7747L221.992 56.92ZM185.152 55.36L189.121 55.8561L189.683 51.36H185.152V55.36ZM183.112 55.36V51.36H179.706L179.163 54.7231L183.112 55.36ZM186.352 81.28L189.874 83.1764L191.169 80.771L189.4 78.6894L186.352 81.28ZM187.552 30.64L185.994 26.9561L183.851 27.8625L183.58 30.1726L187.552 30.64ZM185.032 44.68L181.121 43.8419L180.056 48.8106L185.136 48.6786L185.032 44.68ZM160.432 14.56L162.631 17.9017C171.027 12.3777 185.604 7.99999 198.592 7.99999V3.99999V-5.72205e-06C184.22 -5.72205e-06 168.077 4.74232 158.234 11.2183L160.432 14.56ZM198.592 3.99999V7.99999C207.847 7.99999 214.575 10.0523 218.877 13.1766C223.044 16.2029 225.192 20.3988 225.192 25.6H229.192H233.192C233.192 17.8412 229.82 11.2371 223.578 6.70344C217.47 2.26771 208.897 -5.72205e-06 198.592 -5.72205e-06V3.99999ZM229.192 25.6H225.192C225.192 36.6513 215.352 45.8474 201.925 49.7164L203.032 53.56L204.14 57.4036C219.032 53.1126 233.192 41.9087 233.192 25.6H229.192ZM203.032 53.56L199.941 56.099C203.227 60.099 207.87 63.44 214.792 63.44V59.44V55.44C210.915 55.44 208.357 53.741 206.123 51.021L203.032 53.56ZM214.792 59.44V63.44C219.287 63.44 222.293 61.7707 224.463 60.0653L221.992 56.92L219.521 53.7747C218.331 54.7093 217.017 55.44 214.792 55.44V59.44ZM221.992 56.92L218.737 59.245C218.843 59.3937 219.114 59.8964 219.45 60.8909C219.763 61.8166 220.059 62.9408 220.315 64.142C220.837 66.598 221.112 68.9999 221.112 70.24L225.112 70.24H229.112C229.112 68.2401 228.727 65.242 228.14 62.478C227.84 61.0692 227.469 59.6284 227.028 58.3266C226.611 57.0936 226.041 55.7063 225.247 54.595L221.992 56.92ZM225.112 70.24L221.112 70.24C221.112 74.804 219.675 78.5406 217.284 81.0994C214.93 83.6199 211.353 85.32 206.392 85.32L206.392 89.32V93.32C213.311 93.32 219.095 90.8801 223.13 86.5606C227.13 82.2794 229.112 76.476 229.112 70.24H225.112ZM206.392 89.32L206.392 85.32C199.118 85.32 194.993 82.1701 192.466 77.8944C189.772 73.3381 188.792 67.2575 188.792 61.72H184.792H180.792C180.792 67.9425 181.852 75.6619 185.579 81.9656C189.471 88.5499 196.146 93.32 206.392 93.32V89.32ZM184.792 61.72H188.792C188.792 59.5728 188.906 57.5818 189.121 55.8561L185.152 55.36L181.183 54.8639C180.919 56.9782 180.792 59.3072 180.792 61.72H184.792ZM185.152 55.36V51.36H183.112V55.36V59.36H185.152V55.36ZM183.112 55.36L179.163 54.7231C178.543 58.5696 178.152 62.3957 178.152 65.68H182.152H186.152C186.152 62.9643 186.482 59.5904 187.061 55.9969L183.112 55.36ZM182.152 65.68H178.152C178.152 69.224 178.759 72.8916 179.637 76.0054C180.474 78.9746 181.712 81.9973 183.304 83.8706L186.352 81.28L189.4 78.6894C188.952 78.1627 188.09 76.5054 187.337 73.8346C186.625 71.3084 186.152 68.376 186.152 65.68H182.152ZM186.352 81.28L182.83 79.3836C182.107 80.7265 180.421 82.3491 177.562 83.658C174.758 84.9416 171.073 85.8 166.792 85.8L166.792 89.8V93.8C172.111 93.8 176.946 92.7384 180.892 90.932C184.783 89.1509 188.077 86.5135 189.874 83.1764L186.352 81.28ZM166.792 89.8L166.792 85.8C162.039 85.8 159.256 84.2634 157.607 82.3799C155.876 80.4032 154.952 77.5354 154.952 74.2H150.952H146.952C146.952 78.9046 148.249 83.8368 151.588 87.6501C155.009 91.5566 160.146 93.8 166.792 93.8V89.8ZM150.952 74.2H154.952C154.952 71.4667 155.519 67.7912 156.473 63.4072C157.418 59.067 158.683 54.2906 159.979 49.3932C162.496 39.8834 165.272 29.4902 165.272 22.36H161.272H157.272C157.272 28.1898 154.889 37.3566 152.245 47.3468C150.961 52.1994 149.646 57.158 148.656 61.7053C147.676 66.2088 146.952 70.5733 146.952 74.2H150.952ZM161.272 22.36H165.272C165.272 20.1563 165.163 16.5559 164.278 13.4611L160.432 14.56L156.586 15.6589C157.142 17.6041 157.272 20.2437 157.272 22.36H161.272ZM187.552 30.64L183.58 30.1726C183.123 34.0529 182.198 38.8166 181.121 43.8419L185.032 44.68L188.943 45.5181C190.027 40.4634 191.021 35.3871 191.525 31.1074L187.552 30.64ZM185.032 44.68L185.136 48.6786C190.579 48.5373 195.276 46.7287 198.684 43.9867C202.026 41.2987 204.392 37.4577 204.392 33.28L200.392 33.28H196.392C196.392 34.3823 195.699 36.1213 193.67 37.7533C191.708 39.3313 188.726 40.5827 184.928 40.6813L185.032 44.68ZM200.392 33.28L204.392 33.28C204.392 31.0969 203.675 28.8026 201.828 27.0824C200.01 25.3899 197.599 24.72 195.112 24.72V28.72V32.72C196.225 32.72 196.454 33.0101 196.377 32.9376C196.349 32.9115 196.338 32.8847 196.344 32.8999C196.354 32.9261 196.392 33.0411 196.392 33.28H200.392ZM195.112 28.72V24.72C192.44 24.72 189.357 25.5331 185.994 26.9561L187.552 30.64L189.111 34.3239C191.987 33.1069 193.945 32.72 195.112 32.72V28.72ZM293.239 5.67999L294.798 1.99613L292.422 0.9909L290.526 2.74078L293.239 5.67999ZM281.479 33.64L281.121 29.6561L278.69 29.8746L277.772 32.1372L281.479 33.64ZM279.439 81.4L282.682 83.742L284.449 81.2952L282.581 78.9245L279.439 81.4ZM255.319 32.8L258.964 34.448L261.25 29.3922L255.731 28.8212L255.319 32.8ZM233.359 35.92L229.83 37.8024L231.82 41.534L235.435 39.3391L233.359 35.92ZM293.239 5.67999L291.681 9.36386C292.322 9.63516 293.693 10.6558 294.935 12.494C296.124 14.2552 296.919 16.3689 296.919 18.52H300.919L304.919 18.52C304.919 14.4311 303.434 10.7848 301.564 8.01597C299.746 5.32416 297.277 3.04483 294.798 1.99613L293.239 5.67999ZM300.919 18.52H296.919C296.919 22.3813 295.415 24.6835 292.982 26.309C290.282 28.1127 286.215 29.1982 281.121 29.6561L281.479 33.64L281.837 37.6239C287.424 37.1218 293.076 35.8673 297.426 32.961C302.043 29.8765 304.919 25.0987 304.919 18.52L300.919 18.52ZM281.479 33.64L277.772 32.1372C274.024 41.3843 270.999 53.8979 270.999 64.84H274.999H278.999C278.999 55.1421 281.735 43.6557 285.186 35.1428L281.479 33.64ZM274.999 64.84H270.999C270.999 71.9383 272.368 78.8885 276.297 83.8755L279.439 81.4L282.581 78.9245C280.27 75.9915 278.999 71.1817 278.999 64.84H274.999ZM279.439 81.4L276.197 79.058C273.743 82.4549 269.496 85.8 261.799 85.8V89.8V93.8C272.343 93.8 278.895 88.9851 282.682 83.742L279.439 81.4ZM261.799 89.8V85.8C257.37 85.8 254.428 84.2619 252.53 82.0324C250.557 79.7133 249.359 76.2207 249.359 71.8H245.359H241.359C241.359 77.5793 242.922 83.0867 246.438 87.2176C250.031 91.4381 255.309 93.8 261.799 93.8V89.8ZM245.359 71.8H249.359C249.359 62.2297 252.87 47.9259 258.964 34.448L255.319 32.8L251.675 31.152C245.289 45.2741 241.359 60.7303 241.359 71.8H245.359ZM255.319 32.8L255.731 28.8212C252.215 28.4575 248.81 28.2 246.199 28.2V32.2V36.2C248.389 36.2 251.464 36.4225 254.908 36.7788L255.319 32.8ZM246.199 32.2V28.2C240.27 28.2 235.119 30.1719 231.283 32.5008L233.359 35.92L235.435 39.3391C238.319 37.5881 242.049 36.2 246.199 36.2V32.2ZM233.359 35.92L236.889 34.0376C235.254 30.9727 234.359 27.5351 234.359 24.28H230.359H226.359C226.359 28.9449 227.625 33.6673 229.83 37.8024L233.359 35.92ZM230.359 24.28H234.359C234.359 19.0288 235.7 15.0421 238.073 12.4059C240.379 9.84276 244.163 7.99999 250.279 7.99999V3.99999V-5.72205e-06C242.476 -5.72205e-06 236.299 2.41723 232.126 7.05414C228.019 11.6179 226.359 17.7712 226.359 24.28H230.359ZM250.279 3.99999V7.99999C253.663 7.99999 258.239 9.21857 263.984 10.6943C269.399 12.0849 275.673 13.64 281.479 13.64V9.63999V5.63999C276.846 5.63999 271.54 4.37511 265.974 2.94573C260.74 1.60141 254.936 -5.72205e-06 250.279 -5.72205e-06V3.99999ZM281.479 9.63999V13.64C286.51 13.64 291.837 12.4185 295.952 8.61921L293.239 5.67999L290.526 2.74078C288.402 4.70152 285.329 5.63999 281.479 5.63999V9.63999ZM328.886 35.2L327.621 31.4053L325.336 32.1668L324.94 34.5424L328.886 35.2ZM327.686 42.4L323.74 41.7424L322.921 46.6563L327.896 46.3945L327.686 42.4ZM345.806 35.92L347.199 32.1703L344.7 31.2423L342.882 33.1907L345.806 35.92ZM324.806 61.12L325.346 57.1567L321.201 56.5914L320.822 60.7578L324.806 61.12ZM329.366 80.56L332.751 82.6913L334.342 80.1634L332.371 77.9195L329.366 80.56ZM301.526 14.56L299.327 11.2183L296.873 12.8334L297.68 15.6589L301.526 14.56ZM352.286 37.36L349.086 39.76L351.089 42.4306L354.075 40.9377L352.286 37.36ZM328.886 35.2L324.94 34.5424L323.74 41.7424L327.686 42.4L331.632 43.0576L332.832 35.8576L328.886 35.2ZM327.686 42.4L327.896 46.3945C337.556 45.8861 344.385 43.3043 348.73 38.6493L345.806 35.92L342.882 33.1907C340.506 35.7357 336.056 37.9539 327.476 38.4055L327.686 42.4ZM345.806 35.92L344.413 39.6697C347.099 40.6674 349.006 43.2882 349.006 46.24H353.006H357.006C357.006 39.8318 352.913 34.2926 347.199 32.1703L345.806 35.92ZM353.006 46.24H349.006C349.006 49.1268 347.964 51.8452 345.62 53.8922C343.238 55.9718 339.09 57.72 332.246 57.72V61.72V65.72C340.402 65.72 346.633 63.6282 350.882 59.9178C355.168 56.1748 357.006 51.1532 357.006 46.24H353.006ZM332.246 61.72V57.72C330.224 57.72 327.904 57.5055 325.346 57.1567L324.806 61.12L324.265 65.0833C326.987 65.4545 329.708 65.72 332.246 65.72V61.72ZM324.806 61.12L320.822 60.7578C320.683 62.2885 320.686 63.7899 320.686 65.08H324.686H328.686C328.686 63.7301 328.689 62.5915 328.79 61.4821L324.806 61.12ZM324.686 65.08H320.686C320.686 71.4961 321.949 78.1798 326.361 83.2005L329.366 80.56L332.371 77.9195C329.823 75.0202 328.686 70.6639 328.686 65.08H324.686ZM329.366 80.56L325.981 78.4287C322.975 83.2023 315.828 85.8 308.726 85.8V89.8V93.8C316.984 93.8 327.596 90.8777 332.751 82.6913L329.366 80.56ZM308.726 89.8V85.8C303.333 85.8 300.275 84.251 298.535 82.4144C296.751 80.531 295.806 77.7657 295.806 74.32H291.806H287.806C287.806 79.1543 289.14 84.129 292.727 87.9156C296.357 91.749 301.759 93.8 308.726 93.8V89.8ZM291.806 74.32H295.806C295.806 68.2382 298.219 59.9267 300.933 50.379C303.535 41.2308 306.366 31.0649 306.366 22.36H302.366L298.366 22.36C298.366 29.7351 295.917 38.7691 293.238 48.191C290.673 57.2133 287.806 66.8418 287.806 74.32H291.806ZM302.366 22.36H306.366C306.366 20.1563 306.256 16.5559 305.372 13.4611L301.526 14.56L297.68 15.6589C298.236 17.6041 298.366 20.2437 298.366 22.36L302.366 22.36ZM301.526 14.56L303.724 17.9017C307.774 15.2371 313.997 12.7367 321.175 10.9059C328.307 9.08681 336.103 7.99999 343.166 7.99999V3.99999V-5.72205e-06C335.349 -5.72205e-06 326.885 1.19318 319.197 3.15408C311.555 5.10328 304.397 7.88286 299.327 11.2183L301.526 14.56ZM343.166 3.99999V7.99999C349.058 7.99999 353.006 9.42218 355.414 11.4439C357.727 13.3844 359.086 16.2628 359.086 20.32H363.086H367.086C367.086 14.2972 364.965 9.01561 360.557 5.3161C356.246 1.69781 350.233 -5.72205e-06 343.166 -5.72205e-06V3.99999ZM363.086 20.32H359.086C359.086 26.1142 354.902 31.58 350.497 33.7823L352.286 37.36L354.075 40.9377C360.71 37.62 367.086 29.6458 367.086 20.32H363.086ZM352.286 37.36L355.486 34.96C351.875 30.1458 345.895 28.8 341.366 28.8V32.8V36.8C344.757 36.8 347.657 37.8542 349.086 39.76L352.286 37.36ZM341.366 32.8V28.8C336.921 28.8 332.141 29.8987 327.621 31.4053L328.886 35.2L330.151 38.9947C334.271 37.6213 338.131 36.8 341.366 36.8V32.8ZM390.529 91V87C381.224 87 373.975 83.9849 369.038 78.7935C364.081 73.581 361.049 65.745 361.049 55.36H357.049H353.049C353.049 67.295 356.558 77.279 363.241 84.3065C369.944 91.3551 379.434 95 390.529 95V91ZM357.049 55.36H361.049C361.049 30.9252 378.039 7.99999 402.769 7.99999V3.99999V-5.72205e-06C372.3 -5.72205e-06 353.049 27.9548 353.049 55.36H357.049ZM402.769 3.99999V7.99999C411.601 7.99999 418.806 10.5839 423.79 15.4673C428.754 20.33 432.009 27.9564 432.009 39.04H436.009H440.009C440.009 26.3636 436.245 16.47 429.389 9.75271C422.553 3.05606 413.138 -5.72205e-06 402.769 -5.72205e-06V3.99999ZM436.009 39.04H432.009C432.009 65.5917 414.936 87 390.529 87V91V95C420.603 95 440.009 68.6483 440.009 39.04H436.009ZM394.009 66.52V70.52C397.58 70.52 400.495 68.7586 402.683 66.5004C404.849 64.2658 406.54 61.3231 407.836 58.2481C410.427 52.0966 411.809 44.5142 411.809 38.32H407.809H403.809C403.809 43.5258 402.611 50.0434 400.463 55.1419C399.389 57.6919 398.17 59.6617 396.938 60.9333C395.729 62.1814 394.758 62.52 394.009 62.52V66.52ZM407.809 38.32H411.809C411.809 32.9554 411.015 28.8241 409.175 25.9292C407.112 22.684 404.063 21.48 401.089 21.48V25.48V29.48C401.716 29.48 402.026 29.596 402.424 30.2208C403.043 31.1959 403.809 33.4846 403.809 38.32H407.809ZM401.089 25.48V21.48C397.789 21.48 395.045 23.3122 393.022 25.3646C390.944 27.473 389.152 30.278 387.69 33.3156C384.77 39.3837 382.809 47.1434 382.809 54.16H386.809H390.809C390.809 48.4566 392.449 41.8763 394.899 36.7844C396.122 34.242 397.457 32.262 398.72 30.9804C400.038 29.6428 400.85 29.48 401.089 29.48V25.48ZM386.809 54.16H382.809C382.809 60.513 384.275 64.8031 386.854 67.4801C389.489 70.2158 392.562 70.52 394.009 70.52V66.52V62.52C393.657 62.52 393.13 62.4642 392.615 61.9299C392.044 61.3369 390.809 59.447 390.809 54.16H386.809ZM440.354 11.44L436.849 9.51233L435.882 11.2695L436.712 13.0952L440.354 11.44ZM461.954 62.56L458.103 61.4759L456.672 66.56H461.954V62.56ZM489.914 51.64L492.633 48.7063L489.878 46.1532L487.157 48.7418L489.914 51.64ZM442.634 21.52H446.634C446.634 16.9683 445.365 12.7991 443.995 9.78478L440.354 11.44L436.712 13.0952C437.742 15.3608 438.634 18.3917 438.634 21.52H442.634ZM440.354 11.44L443.859 13.3677C443.747 13.5703 443.853 13.3127 444.674 12.7275C445.386 12.2193 446.371 11.653 447.539 11.1235C449.933 10.039 452.626 9.32 454.754 9.32V5.32V1.32C451.121 1.32 447.274 2.46103 444.238 3.83647C442.692 4.537 441.239 5.35071 440.027 6.21503C438.924 7.00226 437.62 8.10974 436.849 9.51233L440.354 11.44ZM454.754 5.32V9.32C460.136 9.32 463.259 10.807 465.075 12.7311C466.932 14.698 468.034 17.7642 468.034 22.12H472.034H476.034C476.034 16.5158 474.615 11.182 470.892 7.23894C467.129 3.25297 461.611 1.32 454.754 1.32V5.32ZM472.034 22.12H468.034C468.034 27.5661 466.533 34.1168 464.463 41.1156C463.438 44.5812 462.305 48.0597 461.191 51.4995C460.086 54.9144 458.998 58.3005 458.103 61.4759L461.954 62.56L465.804 63.6441C466.65 60.6395 467.692 57.3956 468.803 53.963C469.905 50.5553 471.074 46.9688 472.135 43.3844C474.235 36.2832 476.034 28.7939 476.034 22.12H472.034ZM461.954 62.56V66.56C475.043 66.56 487.151 59.7888 492.671 54.5382L489.914 51.64L487.157 48.7418C482.837 52.8512 472.625 58.56 461.954 58.56V62.56ZM489.914 51.64L487.195 54.5737C490.985 58.0864 492.514 64.239 492.514 68.32H496.514H500.514C500.514 63.041 498.683 54.3136 492.633 48.7063L489.914 51.64ZM496.514 68.32H492.514C492.514 73.324 490.511 77.4738 486.345 80.5059C482.032 83.6447 475.08 85.8 464.954 85.8V89.8V93.8C476.068 93.8 484.895 91.4553 491.053 86.9741C497.356 82.3862 500.514 75.796 500.514 68.32H496.514ZM464.954 89.8V85.8C458.446 85.8 451.371 85.0728 446.049 82.4832C443.451 81.2191 441.396 79.5707 439.98 77.4516C438.578 75.3553 437.634 72.5513 437.634 68.68H433.634H429.634C429.634 73.9287 430.94 78.3247 433.329 81.8984C435.704 85.4493 438.981 87.9409 442.549 89.6768C449.557 93.0872 458.141 93.8 464.954 93.8V89.8ZM433.634 68.68H437.634C437.634 63.5947 439.663 56.4965 441.996 47.8519C444.228 39.5778 446.634 30.1703 446.634 21.52H442.634H438.634C438.634 28.9497 436.54 37.3622 434.272 45.7681C432.104 53.8035 429.634 62.2453 429.634 68.68H433.634ZM505.276 11.44L501.771 9.51233L500.804 11.2695L501.634 13.0952L505.276 11.44ZM528.076 82.48L531.113 85.0832L532.989 82.8942L531.506 80.422L528.076 82.48ZM511.636 89.32V85.32C507.547 85.32 505.137 83.9977 503.686 82.3136C502.151 80.5326 501.236 77.8172 501.236 74.32H497.236H493.236C493.236 79.1028 494.481 83.8874 497.626 87.5364C500.854 91.2823 505.644 93.32 511.636 93.32V89.32ZM497.236 74.32H501.236C501.236 68.233 503.588 60.2638 506.248 50.7524C508.81 41.5914 511.556 31.2703 511.556 21.52H507.556H503.556C503.556 30.0097 501.141 39.3086 498.543 48.5976C496.044 57.5362 493.236 66.847 493.236 74.32H497.236ZM507.556 21.52H511.556C511.556 16.9683 510.287 12.7991 508.917 9.78478L505.276 11.44L501.634 13.0952C502.664 15.3608 503.556 18.3917 503.556 21.52H507.556ZM505.276 11.44L508.78 13.3677C508.735 13.4505 508.901 13.1619 509.596 12.6144C510.224 12.1209 511.083 11.5727 512.111 11.062C514.21 10.0188 516.625 9.32 518.716 9.32V5.32V1.32C515.046 1.32 511.401 2.48124 508.55 3.89796C507.103 4.61732 505.765 5.44914 504.649 6.32809C503.6 7.15307 502.476 8.22947 501.771 9.51233L505.276 11.44ZM518.716 5.32V9.32C524.102 9.32 527.546 10.8133 529.633 12.8486C531.713 14.8775 532.956 17.9418 532.956 22.12H536.956H540.956C540.956 16.3382 539.198 11.0025 535.218 7.12135C531.245 3.24671 525.569 1.32 518.716 1.32V5.32ZM536.956 22.12H532.956C532.956 29.7478 530.467 39.2221 527.766 48.799C526.446 53.4784 525.08 58.1785 524.055 62.4451C523.039 66.6757 522.276 70.7971 522.276 74.32H526.276H530.276C530.276 71.7829 530.847 68.4193 531.834 64.3137C532.811 60.244 534.115 55.7566 535.465 50.971C538.104 41.6179 540.956 31.0522 540.956 22.12H536.956ZM526.276 74.32H522.276C522.276 77.1716 522.636 81.1885 524.646 84.538L528.076 82.48L531.506 80.422C530.635 78.9715 530.276 76.7484 530.276 74.32H526.276ZM528.076 82.48L525.039 79.8768C522.264 83.1137 518.253 85.32 511.636 85.32V89.32V93.32C520.379 93.32 526.687 90.2463 531.113 85.0832L528.076 82.48ZM567.365 91V87C558.06 87 550.811 83.9849 545.874 78.7935C540.917 73.581 537.885 65.745 537.885 55.36H533.885H529.885C529.885 67.295 533.394 77.279 540.077 84.3065C546.78 91.3551 556.27 95 567.365 95V91ZM533.885 55.36H537.885C537.885 30.9252 554.875 7.99999 579.605 7.99999V3.99999V-5.72205e-06C549.136 -5.72205e-06 529.885 27.9548 529.885 55.36H533.885ZM579.605 3.99999V7.99999C588.437 7.99999 595.641 10.5839 600.626 15.4673C605.59 20.33 608.845 27.9564 608.845 39.04H612.845H616.845C616.845 26.3636 613.081 16.47 606.225 9.75271C599.389 3.05606 589.973 -5.72205e-06 579.605 -5.72205e-06V3.99999ZM612.845 39.04H608.845C608.845 65.5917 591.772 87 567.365 87V91V95C597.439 95 616.845 68.6483 616.845 39.04H612.845ZM570.845 66.52V70.52C574.416 70.52 577.331 68.7586 579.519 66.5004C581.685 64.2658 583.376 61.3231 584.671 58.2481C587.263 52.0966 588.645 44.5142 588.645 38.32H584.645H580.645C580.645 43.5258 579.447 50.0434 577.299 55.1419C576.225 57.6919 575.006 59.6617 573.774 60.9333C572.565 62.1814 571.594 62.52 570.845 62.52V66.52ZM584.645 38.32H588.645C588.645 32.9554 587.851 28.8241 586.011 25.9292C583.948 22.684 580.899 21.48 577.925 21.48V25.48V29.48C578.552 29.48 578.862 29.596 579.26 30.2208C579.879 31.1959 580.645 33.4846 580.645 38.32H584.645ZM577.925 25.48V21.48C574.625 21.48 571.881 23.3122 569.858 25.3646C567.78 27.473 565.988 30.278 564.526 33.3156C561.606 39.3837 559.645 47.1434 559.645 54.16H563.645H567.645C567.645 48.4566 569.285 41.8763 571.735 36.7844C572.958 34.242 574.293 32.262 575.556 30.9804C576.874 29.6428 577.686 29.48 577.925 29.48V25.48ZM563.645 54.16H559.645C559.645 60.513 561.111 64.8031 563.69 67.4801C566.325 70.2158 569.398 70.52 570.845 70.52V66.52V62.52C570.493 62.52 569.966 62.4642 569.451 61.9299C568.88 61.3369 567.645 59.447 567.645 54.16H563.645Z" fill="black" mask="url(#path-1-outside-1_302_479)"/>
</svg>
