<svg width="614" height="186" viewBox="0 0 614 186" fill="none" xmlns="http://www.w3.org/2000/svg">
<mask id="path-1-outside-1_202_13" maskUnits="userSpaceOnUse" x="0" y="0" width="614" height="186" fill="black">
<rect fill="white" width="614" height="186"/>
<path d="M12.44 12.56C21.56 6.55999 32.36 1.99999 46.04 1.99999C65.6 1.99999 78.2 11.36 78.2 26.48C78.2 45.56 59.36 59.24 36.44 61.76C36.44 68.6 37.4 74 40.28 78.56C37.04 84.44 27.8 87.8 19.64 87.8C7.4 87.8 2.96 80.24 2.96 72.2C2.96 59.48 13.28 33.32 13.28 20.36C13.28 18.2 13.16 15.08 12.44 12.56ZM40.88 24.56C40.52 31.16 39.32 37.76 38.36 44.36C46.28 41.96 50.96 36.68 50.96 29C50.96 25.04 48.68 23.36 46.04 23.36C44.24 23.36 42.44 23.84 40.88 24.56ZM107.889 89C87.4888 89 74.4088 75.68 74.4088 53.36C74.4088 27.44 92.5288 1.99999 120.129 1.99999C139.329 1.99999 153.369 13.28 153.369 37.04C153.369 65.12 135.129 89 107.889 89ZM111.369 64.52C120.009 64.52 125.169 47.72 125.169 36.32C125.169 26.12 122.049 23.48 118.449 23.48C111.369 23.48 104.169 39.44 104.169 52.16C104.169 63.8 109.569 64.52 111.369 64.52ZM159.393 12.56C168.513 6.55999 183.873 1.99999 197.553 1.99999C217.113 1.99999 228.153 10.64 228.153 23.6C228.153 37.28 216.153 47.48 201.993 51.56C204.753 54.92 208.353 57.44 213.753 57.44C217.113 57.44 219.273 56.24 220.953 54.92C222.753 57.44 224.073 65 224.073 68.24C224.073 79.04 217.233 87.32 205.353 87.32C187.833 87.32 183.753 71.48 183.753 59.72C183.753 57.44 183.873 55.28 184.113 53.36H182.073C181.473 57.08 181.113 60.68 181.113 63.68C181.113 69.92 183.273 76.88 185.313 79.28C182.793 83.96 175.353 87.8 165.753 87.8C154.353 87.8 149.913 80.24 149.913 72.2C149.913 59.48 160.233 33.32 160.233 20.36C160.233 18.2 160.113 15.08 159.393 12.56ZM186.513 28.64C186.033 32.72 185.073 37.64 183.993 42.68C193.233 42.44 199.353 36.56 199.353 31.28C199.353 28.64 197.673 26.72 194.073 26.72C192.153 26.72 189.633 27.32 186.513 28.64ZM292.2 3.67999C295.32 5 299.88 10.28 299.88 16.52C299.88 26.96 291.12 30.68 280.44 31.64C276.84 40.52 273.96 52.52 273.96 62.84C273.96 69.56 275.28 75.44 278.4 79.4C275.28 83.72 269.88 87.8 260.76 87.8C249.84 87.8 244.32 80 244.32 69.8C244.32 59.48 248.04 44.6 254.28 30.8C250.8 30.44 247.56 30.2 245.16 30.2C240.12 30.2 235.68 31.88 232.32 33.92C230.4 30.32 229.32 26.24 229.32 22.28C229.32 10.52 235.32 1.99999 249.24 1.99999C257.28 1.99999 270 7.63999 280.44 7.63999C284.88 7.63999 289.08 6.55999 292.2 3.67999ZM327.847 33.2L326.647 40.4C335.767 39.92 341.407 37.52 344.767 33.92C348.967 35.48 351.967 39.56 351.967 44.24C351.967 52.04 346.207 59.72 331.207 59.72C328.927 59.72 326.407 59.48 323.767 59.12C323.647 60.44 323.647 61.76 323.647 63.08C323.647 69.08 324.847 74.6 328.327 78.56C324.247 85.04 315.367 87.8 307.687 87.8C295.327 87.8 290.767 80.6 290.767 72.32C290.767 58.76 301.327 36.44 301.327 20.36C301.327 18.2 301.207 15.08 300.487 12.56C309.607 6.55999 327.247 1.99999 342.127 1.99999C355.087 1.99999 362.047 8.24 362.047 18.32C362.047 25.88 356.767 32.6 351.247 35.36C348.727 32 344.287 30.8 340.327 30.8C336.487 30.8 332.167 31.76 327.847 33.2ZM389.49 89C369.09 89 356.01 75.68 356.01 53.36C356.01 27.44 374.13 1.99999 401.73 1.99999C420.93 1.99999 434.97 13.28 434.97 37.04C434.97 65.12 416.73 89 389.49 89ZM392.97 64.52C401.61 64.52 406.77 47.72 406.77 36.32C406.77 26.12 403.65 23.48 400.05 23.48C392.97 23.48 385.77 39.44 385.77 52.16C385.77 63.8 391.17 64.52 392.97 64.52ZM441.595 19.52C441.595 15.68 440.515 12.08 439.315 9.44C440.635 7.03999 447.955 3.32 453.715 3.32C465.955 3.32 470.995 10.16 470.995 20.12C470.995 32.24 464.395 48.2 460.915 60.56C472.795 60.56 483.955 54.32 488.875 49.64C493.795 54.2 495.475 61.64 495.475 66.32C495.475 78.8 485.155 87.8 463.915 87.8C450.595 87.8 432.595 84.92 432.595 66.68C432.595 55.16 441.595 35.6 441.595 19.52ZM510.597 87.32C500.517 87.32 496.197 80.6 496.197 72.32C496.197 58.76 506.517 37.76 506.517 19.52C506.517 15.68 505.437 12.08 504.237 9.44C505.557 7.03999 511.917 3.32 517.677 3.32C529.917 3.32 535.917 10.16 535.917 20.12C535.917 36.68 525.237 60.2 525.237 72.32C525.237 74.96 525.597 78.08 527.037 80.48C523.437 84.68 518.277 87.32 510.597 87.32ZM566.326 89C545.926 89 532.846 75.68 532.846 53.36C532.846 27.44 550.966 1.99999 578.566 1.99999C597.766 1.99999 611.806 13.28 611.806 37.04C611.806 65.12 593.566 89 566.326 89ZM569.806 64.52C578.446 64.52 583.606 47.72 583.606 36.32C583.606 26.12 580.486 23.48 576.886 23.48C569.806 23.48 562.606 39.44 562.606 52.16C562.606 63.8 568.006 64.52 569.806 64.52ZM80.6 116.72C80.6 138.2 52.28 183.8 35.12 183.8C22.52 183.8 9.2 177.44 9.2 161.72C9.2 150.2 12.56 135.8 12.56 123.2C12.56 116.48 11.6 110.24 8.6 105.44C10.52 101.84 17.72 98 23.84 98C36.08 98 43.16 107.48 43.16 119.6C43.16 134.48 36.44 152.48 36.44 164.96H37.04C44.36 155.48 50.48 139.04 50.48 123.32C50.48 114.92 47.84 111.56 44.72 108.44C46.4 102.92 53.12 98 61.76 98C71.84 98 80.6 104.72 80.6 116.72ZM90.7953 167.96C90.7953 161.24 94.9953 148.88 98.9553 140.36C95.4753 141.92 91.5153 142.88 88.3953 142.88C83.3553 142.88 78.4353 139.16 78.4353 132.2C78.4353 129.32 79.2753 125.96 81.1953 122C93.3153 122 103.995 116.36 107.715 105.2C116.595 105.2 127.275 113.84 127.275 120.68C127.275 134.24 117.555 153.68 117.555 167C117.555 173.72 118.995 176.36 120.435 178.52C117.435 181.76 113.115 183.68 106.875 183.68C97.2753 183.68 90.7953 179.12 90.7953 167.96Z"/>
</mask>
<path d="M12.44 12.56L11.3408 10.8892L10.1133 11.6967L10.517 13.1094L12.44 12.56ZM36.44 61.76L36.2214 59.772L34.44 59.9678V61.76H36.44ZM40.28 78.56L42.0317 79.5252L42.6017 78.4907L41.971 77.492L40.28 78.56ZM40.88 24.56L40.0419 22.7441L38.9486 23.2487L38.883 24.4511L40.88 24.56ZM38.36 44.36L36.3808 44.0721L35.9278 47.1868L38.94 46.274L38.36 44.36ZM12.44 12.56L13.5392 14.2308C22.4249 8.385 32.848 3.99999 46.04 3.99999V1.99999V-5.72205e-06C31.872 -5.72205e-06 20.6951 4.73498 11.3408 10.8892L12.44 12.56ZM46.04 1.99999V3.99999C55.5281 3.99999 63.1004 6.27298 68.2489 10.1654C73.3389 14.0136 76.2 19.5406 76.2 26.48H78.2L80.2 26.48C80.2 18.2994 76.7611 11.5864 70.6612 6.97463C64.6196 2.40701 56.1119 -5.72205e-06 46.04 -5.72205e-06V1.99999ZM78.2 26.48H76.2C76.2 35.297 71.8641 42.9524 64.6581 48.7743C57.4316 54.6127 47.3718 58.546 36.2214 59.772L36.44 61.76L36.6586 63.748C48.4282 62.454 59.2484 58.2873 67.1719 51.8857C75.1159 45.4676 80.2 36.743 80.2 26.48L78.2 26.48ZM36.44 61.76H34.44C34.44 68.7648 35.4175 74.6063 38.589 79.628L40.28 78.56L41.971 77.492C39.3826 73.3937 38.44 68.4352 38.44 61.76H36.44ZM40.28 78.56L38.5283 77.5948C37.2064 79.9938 34.536 82.0628 31.0279 83.5421C27.5511 85.0083 23.4667 85.8 19.64 85.8V87.8V89.8C23.9733 89.8 28.5889 88.9117 32.5821 87.2279C36.544 85.5572 40.1136 83.0062 42.0317 79.5252L40.28 78.56ZM19.64 87.8V85.8C13.9492 85.8 10.3675 84.0576 8.1878 81.6674C5.975 79.2408 4.96 75.8758 4.96 72.2H2.96H0.96C0.96 76.5642 2.165 80.9992 5.2322 84.3626C8.33247 87.7624 13.0908 89.8 19.64 89.8V87.8ZM2.96 72.2H4.96C4.96 69.2433 5.56572 65.3956 6.52672 60.9817C7.48294 56.5898 8.7605 51.7678 10.0535 46.8816C12.6017 37.2517 15.28 27.1651 15.28 20.36H13.28L11.28 20.36C11.28 26.5149 8.79832 35.9883 6.18655 45.8584C4.8995 50.7222 3.59706 55.6352 2.61828 60.1308C1.64428 64.6044 0.96 68.7967 0.96 72.2H2.96ZM13.28 20.36H15.28C15.28 18.1781 15.1652 14.8179 14.363 12.0106L12.44 12.56L10.517 13.1094C11.1548 15.342 11.28 18.2219 11.28 20.36L13.28 20.36ZM40.88 24.56L38.883 24.4511C38.5295 30.9318 37.3548 37.3763 36.3808 44.0721L38.36 44.36L40.3392 44.6479C41.2852 38.1437 42.5105 31.3882 42.877 24.6689L40.88 24.56ZM38.36 44.36L38.94 46.274C43.1776 44.9899 46.697 42.89 49.1635 39.9439C51.6479 36.9764 52.96 33.2723 52.96 29H50.96H48.96C48.96 32.4077 47.9321 35.1836 46.0965 37.3761C44.243 39.59 41.4624 41.3301 37.78 42.446L38.36 44.36ZM50.96 29H52.96C52.96 26.6343 52.271 24.6702 50.9159 23.2925C49.5662 21.9204 47.7811 21.36 46.04 21.36V23.36V25.36C46.9389 25.36 47.6138 25.6396 48.0642 26.0975C48.509 26.5498 48.96 27.4057 48.96 29H50.96ZM46.04 23.36V21.36C43.8969 21.36 41.8111 21.9275 40.0419 22.7441L40.88 24.56L41.7181 26.3759C43.0689 25.7525 44.5831 25.36 46.04 25.36V23.36ZM107.889 89V87C98.1362 87 90.3265 83.8274 84.948 78.1718C79.5595 72.5055 76.4088 64.1325 76.4088 53.36H74.4088H72.4088C72.4088 64.9075 75.798 74.3545 82.0495 80.9282C88.311 87.5126 97.2413 91 107.889 91V89ZM74.4088 53.36H76.4088C76.4088 28.1826 93.9635 3.99999 120.129 3.99999V1.99999V-5.72205e-06C91.094 -5.72205e-06 72.4088 26.6974 72.4088 53.36H74.4088ZM120.129 1.99999V3.99999C129.345 3.99999 137.102 6.70196 142.549 12.0386C147.986 17.365 151.369 25.5582 151.369 37.04H153.369H155.369C155.369 24.7618 151.732 15.435 145.348 9.18135C138.976 2.93803 130.113 -5.72205e-06 120.129 -5.72205e-06V1.99999ZM153.369 37.04H151.369C151.369 64.3559 133.712 87 107.889 87V89V91C136.545 91 155.369 65.8841 155.369 37.04H153.369ZM111.369 64.52V66.52C114.234 66.52 116.663 65.1143 118.606 63.1086C120.538 61.1148 122.112 58.4153 123.352 55.4716C125.833 49.5833 127.169 42.2671 127.169 36.32H125.169H123.169C123.169 41.7729 121.925 48.5567 119.666 53.9184C118.536 56.5997 117.199 58.8127 115.734 60.3251C114.28 61.8257 112.823 62.52 111.369 62.52V64.52ZM125.169 36.32H127.169C127.169 31.0877 126.382 27.4171 124.847 25.0021C123.2 22.412 120.835 21.48 118.449 21.48V23.48V25.48C119.662 25.48 120.657 25.868 121.471 27.1479C122.396 28.6029 123.169 31.3523 123.169 36.32H125.169ZM118.449 23.48V21.48C115.914 21.48 113.653 22.8948 111.806 24.7686C109.932 26.6702 108.254 29.269 106.852 32.1828C104.049 38.0069 102.169 45.4717 102.169 52.16H104.169H106.169C106.169 46.1283 107.888 39.2531 110.456 33.9172C111.739 31.251 113.188 29.0648 114.655 27.5764C116.15 26.0602 117.444 25.48 118.449 25.48V23.48ZM104.169 52.16H102.169C102.169 58.2465 103.576 61.9365 105.653 64.0925C107.759 66.2779 110.195 66.52 111.369 66.52V64.52V62.52C110.742 62.52 109.579 62.4021 108.534 61.3175C107.461 60.2035 106.169 57.7135 106.169 52.16H104.169ZM159.393 12.56L158.294 10.8892L157.066 11.6967L157.47 13.1094L159.393 12.56ZM201.993 51.56L201.439 49.6382L198.518 50.48L200.448 52.8295L201.993 51.56ZM220.953 54.92L222.581 53.7575L221.364 52.0539L219.717 53.3474L220.953 54.92ZM184.113 53.36L186.098 53.6081L186.379 51.36H184.113V53.36ZM182.073 53.36V51.36H180.37L180.099 53.0415L182.073 53.36ZM185.313 79.28L187.074 80.2282L187.722 79.0255L186.837 77.9847L185.313 79.28ZM186.513 28.64L185.734 26.7981L184.663 27.2512L184.527 28.4063L186.513 28.64ZM183.993 42.68L182.038 42.2609L181.505 44.7453L184.045 44.6793L183.993 42.68ZM159.393 12.56L160.492 14.2308C169.251 8.46883 184.219 3.99999 197.553 3.99999V1.99999V-5.72205e-06C183.527 -5.72205e-06 167.776 4.65116 158.294 10.8892L159.393 12.56ZM197.553 1.99999V3.99999C207.071 3.99999 214.259 6.10614 219.013 9.55827C223.699 12.9614 226.153 17.7594 226.153 23.6H228.153H230.153C230.153 16.4806 227.087 10.4786 221.363 6.32172C215.707 2.21385 207.596 -5.72205e-06 197.553 -5.72205e-06V1.99999ZM228.153 23.6H226.153C226.153 35.9657 215.233 45.6637 201.439 49.6382L201.993 51.56L202.547 53.4818C217.073 49.2963 230.153 38.5943 230.153 23.6H228.153ZM201.993 51.56L200.448 52.8295C203.471 56.5095 207.592 59.44 213.753 59.44V57.44V55.44C209.114 55.44 206.036 53.3305 203.539 50.2905L201.993 51.56ZM213.753 57.44V59.44C217.681 59.44 220.263 58.0054 222.189 56.4926L220.953 54.92L219.717 53.3474C218.283 54.4746 216.546 55.44 213.753 55.44V57.44ZM220.953 54.92L219.326 56.0825C219.604 56.4718 219.949 57.1957 220.306 58.2498C220.651 59.2696 220.965 60.4729 221.232 61.726C221.77 64.259 222.073 66.8099 222.073 68.24L224.073 68.24H226.073C226.073 66.4301 225.716 63.581 225.144 60.894C224.856 59.5371 224.503 58.1754 224.094 56.9677C223.697 55.7943 223.202 54.6282 222.581 53.7575L220.953 54.92ZM224.073 68.24L222.073 68.24C222.073 73.222 220.499 77.4753 217.707 80.4647C214.932 83.4349 210.804 85.32 205.353 85.32L205.353 87.32V89.32C211.783 89.32 217.014 87.0651 220.63 83.1953C224.227 79.3447 226.073 74.058 226.073 68.24H224.073ZM205.353 87.32L205.353 85.32C197.336 85.32 192.574 81.7651 189.705 76.9122C186.753 71.919 185.753 65.4287 185.753 59.72H183.753H181.753C181.753 65.7713 182.793 73.081 186.261 78.9478C189.813 84.9549 195.85 89.32 205.353 89.32V87.32ZM183.753 59.72H185.753C185.753 57.5064 185.87 55.4309 186.098 53.6081L184.113 53.36L182.129 53.1119C181.876 55.1291 181.753 57.3736 181.753 59.72H183.753ZM184.113 53.36V51.36H182.073V53.36V55.36H184.113V53.36ZM182.073 53.36L180.099 53.0415C179.488 56.8248 179.113 60.5379 179.113 63.68H181.113H183.113C183.113 60.8221 183.458 57.3352 184.048 53.6785L182.073 53.36ZM181.113 63.68H179.113C179.113 67.012 179.687 70.4958 180.523 73.4627C181.339 76.3573 182.483 79.0386 183.789 80.5753L185.313 79.28L186.837 77.9847C186.103 77.1214 185.147 75.1227 184.373 72.3773C183.62 69.7042 183.113 66.588 183.113 63.68H181.113ZM185.313 79.28L183.552 78.3318C182.561 80.1732 180.473 82.0495 177.356 83.4765C174.266 84.8908 170.294 85.8 165.753 85.8L165.753 87.8V89.8C170.812 89.8 175.36 88.7892 179.021 87.1135C182.653 85.4505 185.546 83.0668 187.074 80.2282L185.313 79.28ZM165.753 87.8L165.753 85.8C160.526 85.8 157.155 84.0867 155.063 81.6974C152.93 79.2616 151.913 75.8777 151.913 72.2H149.913H147.913C147.913 76.5623 149.116 80.9784 152.053 84.3326C155.031 87.7333 159.58 89.8 165.753 89.8V87.8ZM149.913 72.2H151.913C151.913 69.2433 152.519 65.3956 153.48 60.9817C154.436 56.5898 155.714 51.7678 157.007 46.8816C159.555 37.2517 162.233 27.1651 162.233 20.36H160.233H158.233C158.233 26.5149 155.751 35.9883 153.14 45.8584C151.853 50.7222 150.55 55.6352 149.571 60.1308C148.597 64.6044 147.913 68.7967 147.913 72.2H149.913ZM160.233 20.36H162.233C162.233 18.1781 162.118 14.8179 161.316 12.0106L159.393 12.56L157.47 13.1094C158.108 15.342 158.233 18.2219 158.233 20.36H160.233ZM186.513 28.64L184.527 28.4063C184.059 32.3864 183.116 37.2283 182.038 42.2609L183.993 42.68L185.949 43.0991C187.03 38.0517 188.008 33.0536 188.499 28.8737L186.513 28.64ZM183.993 42.68L184.045 44.6793C189.076 44.5486 193.345 42.8793 196.392 40.4283C199.405 38.0044 201.353 34.6888 201.353 31.28L199.353 31.28H197.353C197.353 33.1512 196.241 35.4156 193.884 37.3117C191.561 39.1807 188.15 40.5714 183.941 40.6807L183.993 42.68ZM199.353 31.28L201.353 31.28C201.353 29.5285 200.785 27.8113 199.426 26.5462C198.082 25.2949 196.217 24.72 194.073 24.72V26.72V28.72C195.53 28.72 196.304 29.105 196.7 29.4738C197.081 29.8287 197.353 30.3915 197.353 31.28H199.353ZM194.073 26.72V24.72C191.777 24.72 188.976 25.4265 185.734 26.7981L186.513 28.64L187.292 30.4819C190.291 29.2134 192.529 28.72 194.073 28.72V26.72ZM292.2 3.67999L292.98 1.83806L291.792 1.33545L290.844 2.21039L292.2 3.67999ZM280.44 31.64L280.261 29.648L279.045 29.7573L278.587 30.8886L280.44 31.64ZM278.4 79.4L280.022 80.571L280.905 79.3476L279.971 78.1623L278.4 79.4ZM254.28 30.8L256.103 31.624L257.246 29.0961L254.486 28.8106L254.28 30.8ZM232.32 33.92L230.556 34.8612L231.551 36.727L233.358 35.6296L232.32 33.92ZM292.2 3.67999L291.421 5.52193C292.522 5.98758 294.167 7.32292 295.553 9.37451C296.913 11.3876 297.88 13.8844 297.88 16.52H299.88L301.88 16.52C301.88 12.9155 300.568 9.6524 298.868 7.13548C297.193 4.65708 294.999 2.69241 292.98 1.83806L292.2 3.67999ZM299.88 16.52H297.88C297.88 21.0606 296.033 23.9817 293.054 25.972C289.942 28.0514 285.478 29.1791 280.261 29.648L280.44 31.64L280.619 33.632C286.082 33.1409 291.339 31.9286 295.276 29.298C299.347 26.5783 301.88 22.4194 301.88 16.52L299.88 16.52ZM280.44 31.64L278.587 30.8886C274.912 39.9522 271.96 52.209 271.96 62.84H273.96H275.96C275.96 52.831 278.768 41.0878 282.294 32.3914L280.44 31.64ZM273.96 62.84H271.96C271.96 69.7491 273.305 76.1643 276.829 80.6377L278.4 79.4L279.971 78.1623C277.256 74.7157 275.96 69.3709 275.96 62.84H273.96ZM278.4 79.4L276.779 78.229C273.992 82.0874 269.169 85.8 260.76 85.8V87.8V89.8C270.592 89.8 276.568 85.3526 280.022 80.571L278.4 79.4ZM260.76 87.8V85.8C255.816 85.8 252.29 84.056 249.968 81.3287C247.609 78.5567 246.32 74.5604 246.32 69.8H244.32H242.32C242.32 75.2396 243.792 80.2433 246.922 83.9213C250.091 87.644 254.785 89.8 260.76 89.8V87.8ZM244.32 69.8H246.32C246.32 59.8549 249.936 45.2629 256.103 31.624L254.28 30.8L252.458 29.976C246.145 43.9371 242.32 59.1051 242.32 69.8H244.32ZM254.28 30.8L254.486 28.8106C250.988 28.4487 247.666 28.2 245.16 28.2V30.2V32.2C247.455 32.2 250.613 32.4313 254.075 32.7894L254.28 30.8ZM245.16 30.2V28.2C239.676 28.2 234.88 30.026 231.282 32.2104L232.32 33.92L233.358 35.6296C236.48 33.734 240.565 32.2 245.16 32.2V30.2ZM232.32 33.92L234.085 32.9788C232.308 29.6464 231.32 25.8875 231.32 22.28H229.32H227.32C227.32 26.5925 228.493 30.9936 230.556 34.8612L232.32 33.92ZM229.32 22.28H231.32C231.32 16.7144 232.741 12.186 235.547 9.06793C238.32 5.98638 242.702 3.99999 249.24 3.99999V1.99999V-5.72205e-06C241.858 -5.72205e-06 236.28 2.27361 232.574 6.39207C228.9 10.4739 227.32 16.0856 227.32 22.28H229.32ZM249.24 1.99999V3.99999C252.942 3.99999 257.825 5.31428 263.443 6.75713C268.895 8.15743 274.927 9.63999 280.44 9.63999V7.63999V5.63999C275.514 5.63999 269.966 4.30255 264.438 2.88286C259.076 1.5057 253.579 -5.72205e-06 249.24 -5.72205e-06V1.99999ZM280.44 7.63999V9.63999C285.176 9.63999 289.939 8.48923 293.557 5.1496L292.2 3.67999L290.844 2.21039C288.222 4.63075 284.585 5.63999 280.44 5.63999V7.63999ZM327.847 33.2L327.214 31.3026L326.072 31.6834L325.874 32.8712L327.847 33.2ZM326.647 40.4L324.674 40.0712L324.265 42.5281L326.752 42.3972L326.647 40.4ZM344.767 33.92L345.463 32.0451L344.214 31.5812L343.305 32.5554L344.767 33.92ZM323.767 59.12L324.037 57.1383L321.964 56.8557L321.775 58.9389L323.767 59.12ZM328.327 78.56L330.019 79.6256L330.815 78.3617L329.829 77.2398L328.327 78.56ZM300.487 12.56L299.388 10.8892L298.16 11.6967L298.564 13.1094L300.487 12.56ZM351.247 35.36L349.647 36.56L350.648 37.8953L352.141 37.1489L351.247 35.36ZM327.847 33.2L325.874 32.8712L324.674 40.0712L326.647 40.4L328.62 40.7288L329.82 33.5288L327.847 33.2ZM326.647 40.4L326.752 42.3972C336.142 41.903 342.377 39.4122 346.229 35.2846L344.767 33.92L343.305 32.5554C340.437 35.6278 335.392 37.937 326.542 38.4028L326.647 40.4ZM344.767 33.92L344.071 35.7948C347.514 37.0737 349.967 40.4241 349.967 44.24H351.967H353.967C353.967 38.6959 350.42 33.8863 345.463 32.0451L344.767 33.92ZM351.967 44.24H349.967C349.967 47.6334 348.726 50.9276 345.896 53.3986C343.048 55.8859 338.379 57.72 331.207 57.72V59.72V61.72C339.035 61.72 344.746 59.7141 348.527 56.4114C352.328 53.0924 353.967 48.6466 353.967 44.24H351.967ZM331.207 59.72V57.72C329.056 57.72 326.636 57.4928 324.037 57.1383L323.767 59.12L323.497 61.1017C326.178 61.4672 328.798 61.72 331.207 61.72V59.72ZM323.767 59.12L321.775 58.9389C321.646 60.3642 321.647 61.7749 321.647 63.08H323.647H325.647C325.647 61.7451 325.648 60.5158 325.759 59.3011L323.767 59.12ZM323.647 63.08H321.647C321.647 69.288 322.879 75.3899 326.825 79.8802L328.327 78.56L329.829 77.2398C326.815 73.8101 325.647 68.872 325.647 63.08H323.647ZM328.327 78.56L326.634 77.4944C323.092 83.1212 315.078 85.8 307.687 85.8V87.8V89.8C315.656 89.8 325.402 86.9588 330.019 79.6256L328.327 78.56ZM307.687 87.8V85.8C301.901 85.8 298.256 84.1255 296.044 81.7897C293.81 79.4305 292.767 76.1128 292.767 72.32H290.767H288.767C288.767 76.8072 290.004 81.2295 293.14 84.5403C296.298 87.8745 301.113 89.8 307.687 89.8V87.8ZM290.767 72.32H292.767C292.767 65.8891 295.293 57.2484 297.971 47.832C300.591 38.6154 303.327 28.7324 303.327 20.36H301.327L299.327 20.36C299.327 28.0675 296.783 37.3846 294.123 46.738C291.52 55.8916 288.767 65.1909 288.767 72.32H290.767ZM301.327 20.36H303.327C303.327 18.1781 303.212 14.8179 302.41 12.0106L300.487 12.56L298.564 13.1094C299.202 15.342 299.327 18.2219 299.327 20.36L301.327 20.36ZM300.487 12.56L301.586 14.2308C305.891 11.3986 312.347 8.82835 319.641 6.96795C326.912 5.1134 334.875 3.99999 342.127 3.99999V1.99999V-5.72205e-06C334.498 -5.72205e-06 326.202 1.16659 318.653 3.09204C311.127 5.01164 304.203 7.72143 299.388 10.8892L300.487 12.56ZM342.127 1.99999V3.99999C348.313 3.99999 352.777 5.49109 355.661 7.91195C358.497 10.2922 360.047 13.7714 360.047 18.32H362.047H364.047C364.047 12.7886 362.117 8.1078 358.233 4.84805C354.397 1.62891 348.901 -5.72205e-06 342.127 -5.72205e-06V1.99999ZM362.047 18.32H360.047C360.047 24.9971 355.315 31.09 350.352 33.5711L351.247 35.36L352.141 37.1489C358.219 34.11 364.047 26.7629 364.047 18.32H362.047ZM351.247 35.36L352.847 34.16C349.782 30.0729 344.572 28.8 340.327 28.8V30.8V32.8C344.002 32.8 347.672 33.9271 349.647 36.56L351.247 35.36ZM340.327 30.8V28.8C336.184 28.8 331.634 29.8294 327.214 31.3026L327.847 33.2L328.479 35.0974C332.7 33.6906 336.789 32.8 340.327 32.8V30.8ZM389.49 89V87C379.738 87 371.928 83.8274 366.55 78.1718C361.161 72.5055 358.01 64.1325 358.01 53.36H356.01H354.01C354.01 64.9075 357.4 74.3545 363.651 80.9282C369.913 87.5126 378.843 91 389.49 91V89ZM356.01 53.36H358.01C358.01 28.1826 375.565 3.99999 401.73 3.99999V1.99999V-5.72205e-06C372.696 -5.72205e-06 354.01 26.6974 354.01 53.36H356.01ZM401.73 1.99999V3.99999C410.946 3.99999 418.703 6.70196 424.151 12.0386C429.587 17.365 432.97 25.5582 432.97 37.04H434.97H436.97C436.97 24.7618 433.333 15.435 426.95 9.18135C420.577 2.93803 411.714 -5.72205e-06 401.73 -5.72205e-06V1.99999ZM434.97 37.04H432.97C432.97 64.3559 415.314 87 389.49 87V89V91C418.147 91 436.97 65.8841 436.97 37.04H434.97ZM392.97 64.52V66.52C395.836 66.52 398.264 65.1143 400.208 63.1086C402.14 61.1148 403.713 58.4153 404.953 55.4716C407.434 49.5833 408.77 42.2671 408.77 36.32H406.77H404.77C404.77 41.7729 403.526 48.5567 401.267 53.9184C400.138 56.5997 398.801 58.8127 397.335 60.3251C395.881 61.8257 394.425 62.52 392.97 62.52V64.52ZM406.77 36.32H408.77C408.77 31.0877 407.983 27.4171 406.448 25.0021C404.802 22.412 402.437 21.48 400.05 21.48V23.48V25.48C401.264 25.48 402.259 25.868 403.072 27.1479C403.997 28.6029 404.77 31.3523 404.77 36.32H406.77ZM400.05 23.48V21.48C397.515 21.48 395.255 22.8948 393.408 24.7686C391.533 26.6702 389.855 29.269 388.453 32.1828C385.651 38.0069 383.77 45.4717 383.77 52.16H385.77H387.77C387.77 46.1283 389.49 39.2531 392.058 33.9172C393.34 31.251 394.79 29.0648 396.257 27.5764C397.751 26.0602 399.046 25.48 400.05 25.48V23.48ZM385.77 52.16H383.77C383.77 58.2465 385.178 61.9365 387.255 64.0925C389.36 66.2779 391.797 66.52 392.97 66.52V64.52V62.52C392.344 62.52 391.181 62.4021 390.136 61.3175C389.063 60.2035 387.77 57.7135 387.77 52.16H385.77ZM439.315 9.44L437.562 8.47616L437.079 9.35476L437.494 10.2676L439.315 9.44ZM460.915 60.56L458.99 60.018L458.274 62.56H460.915V60.56ZM488.875 49.64L490.234 48.1731L488.857 46.8966L487.496 48.1909L488.875 49.64ZM441.595 19.52H443.595C443.595 15.3242 442.421 11.4396 441.135 8.61239L439.315 9.44L437.494 10.2676C438.609 12.7204 439.595 16.0358 439.595 19.52H441.595ZM439.315 9.44L441.067 10.4038C441.176 10.2051 441.582 9.73511 442.473 9.09936C443.31 8.50214 444.412 7.874 445.675 7.30176C448.23 6.14448 451.211 5.32 453.715 5.32V3.32V1.32C450.459 1.32 446.9 2.35551 444.024 3.65823C442.572 4.316 441.237 5.06785 440.15 5.84314C439.117 6.57988 438.113 7.47487 437.562 8.47616L439.315 9.44ZM453.715 3.32V5.32C459.466 5.32 463.187 6.91851 465.49 9.35803C467.814 11.819 468.995 15.4521 468.995 20.12H470.995H472.995C472.995 14.8279 471.655 10.061 468.399 6.61197C465.122 3.14148 460.203 1.32 453.715 1.32V3.32ZM470.995 20.12H468.995C468.995 25.873 467.419 32.6584 465.342 39.6828C464.308 43.1781 463.166 46.6836 462.055 50.1154C460.948 53.5347 459.872 56.8852 458.99 60.018L460.915 60.56L462.84 61.102C463.698 58.0548 464.751 54.7753 465.861 51.3471C466.966 47.9314 468.126 44.3719 469.178 40.8172C471.27 33.7416 472.995 26.487 472.995 20.12H470.995ZM460.915 60.56V62.56C473.399 62.56 485.033 56.0544 490.253 51.0891L488.875 49.64L487.496 48.1909C482.876 52.5856 472.19 58.56 460.915 58.56V60.56ZM488.875 49.64L487.515 51.1069C491.87 55.1432 493.475 61.9395 493.475 66.32H495.475H497.475C497.475 61.3405 495.719 53.2568 490.234 48.1731L488.875 49.64ZM495.475 66.32H493.475C493.475 71.942 491.183 76.7019 486.483 80.1229C481.709 83.5974 474.288 85.8 463.915 85.8V87.8V89.8C474.782 89.8 483.141 87.5026 488.837 83.3571C494.606 79.1581 497.475 73.178 497.475 66.32H495.475ZM463.915 87.8V85.8C457.331 85.8 449.878 85.0764 444.135 82.2816C441.295 80.8996 438.934 79.0403 437.278 76.5633C435.629 74.0976 434.595 70.8957 434.595 66.68H432.595H430.595C430.595 71.5843 431.81 75.5824 433.953 78.7867C436.088 81.9797 439.06 84.2604 442.385 85.8784C448.971 89.0836 457.178 89.8 463.915 89.8V87.8ZM432.595 66.68H434.595C434.595 61.2573 436.735 53.8233 439.026 45.3309C441.267 37.0239 443.595 27.8652 443.595 19.52H441.595H439.595C439.595 27.2548 437.423 35.9161 435.164 44.2891C432.955 52.4767 430.595 60.5827 430.595 66.68H432.595ZM504.237 9.44L502.484 8.47616L502.001 9.35476L502.416 10.2676L504.237 9.44ZM527.037 80.48L528.555 81.7816L529.493 80.6871L528.752 79.451L527.037 80.48ZM510.597 87.32V85.32C506.032 85.32 503.027 83.8188 501.132 81.6193C499.194 79.3713 498.197 76.1386 498.197 72.32H496.197H494.197C494.197 76.7814 495.359 81.0487 498.102 84.2307C500.886 87.4612 505.081 89.32 510.597 89.32V87.32ZM496.197 72.32H498.197C498.197 65.8865 500.663 57.5819 503.283 48.2137C505.854 39.0207 508.517 28.9552 508.517 19.52H506.517H504.517C504.517 28.3248 502.019 37.8793 499.43 47.1363C496.891 56.2181 494.197 65.1935 494.197 72.32H496.197ZM506.517 19.52H508.517C508.517 15.3242 507.342 11.4396 506.057 8.61239L504.237 9.44L502.416 10.2676C503.531 12.7204 504.517 16.0358 504.517 19.52H506.517ZM504.237 9.44L505.989 10.4038C506.131 10.1453 506.537 9.65971 507.32 9.04283C508.07 8.45293 509.049 7.83383 510.182 7.27102C512.469 6.13438 515.191 5.32 517.677 5.32V3.32V1.32C514.402 1.32 511.064 2.36562 508.401 3.68898C507.059 4.35616 505.841 5.11707 504.846 5.89967C503.886 6.65528 503.002 7.53473 502.484 8.47616L504.237 9.44ZM517.677 3.32V5.32C523.43 5.32 527.432 6.92164 529.99 9.41682C532.545 11.9088 533.917 15.5409 533.917 20.12H535.917H537.917C537.917 14.7391 536.288 9.97123 532.783 6.55317C529.281 3.13835 524.163 1.32 517.677 1.32V3.32ZM535.917 20.12H533.917C533.917 28.0739 531.337 37.8211 528.652 47.342C527.324 52.0479 525.974 56.6949 524.961 60.9122C523.952 65.1116 523.237 69.0436 523.237 72.32H525.237H527.237C527.237 69.5364 527.856 65.9834 528.85 61.8465C529.839 57.7276 531.159 53.1871 532.501 48.428C535.156 39.0189 537.917 28.7261 537.917 20.12H535.917ZM525.237 72.32H523.237C523.237 75.0658 523.597 78.6342 525.322 81.509L527.037 80.48L528.752 79.451C527.596 77.5258 527.237 74.8542 527.237 72.32H525.237ZM527.037 80.48L525.518 79.1784C522.331 82.8968 517.745 85.32 510.597 85.32V87.32V89.32C518.808 89.32 524.542 86.4632 528.555 81.7816L527.037 80.48ZM566.326 89V87C556.574 87 548.764 83.8274 543.386 78.1718C537.997 72.5055 534.846 64.1325 534.846 53.36H532.846H530.846C530.846 64.9075 534.235 74.3545 540.487 80.9282C546.749 87.5126 555.679 91 566.326 91V89ZM532.846 53.36H534.846C534.846 28.1826 552.401 3.99999 578.566 3.99999V1.99999V-5.72205e-06C549.532 -5.72205e-06 530.846 26.6974 530.846 53.36H532.846ZM578.566 1.99999V3.99999C587.782 3.99999 595.539 6.70196 600.987 12.0386C606.423 17.365 609.806 25.5582 609.806 37.04H611.806H613.806C613.806 24.7618 610.169 15.435 603.786 9.18135C597.413 2.93803 588.55 -5.72205e-06 578.566 -5.72205e-06V1.99999ZM611.806 37.04H609.806C609.806 64.3559 592.15 87 566.326 87V89V91C594.983 91 613.806 65.8841 613.806 37.04H611.806ZM569.806 64.52V66.52C572.672 66.52 575.1 65.1143 577.044 63.1086C578.976 61.1148 580.549 58.4153 581.789 55.4716C584.27 49.5833 585.606 42.2671 585.606 36.32H583.606H581.606C581.606 41.7729 580.362 48.5567 578.103 53.9184C576.973 56.5997 575.637 58.8127 574.171 60.3251C572.717 61.8257 571.261 62.52 569.806 62.52V64.52ZM583.606 36.32H585.606C585.606 31.0877 584.819 27.4171 583.284 25.0021C581.638 22.412 579.273 21.48 576.886 21.48V23.48V25.48C578.1 25.48 579.095 25.868 579.908 27.1479C580.833 28.6029 581.606 31.3523 581.606 36.32H583.606ZM576.886 23.48V21.48C574.351 21.48 572.09 22.8948 570.244 24.7686C568.369 26.6702 566.691 29.269 565.289 32.1828C562.487 38.0069 560.606 45.4717 560.606 52.16H562.606H564.606C564.606 46.1283 566.326 39.2531 568.893 33.9172C570.176 31.251 571.626 29.0648 573.093 27.5764C574.587 26.0602 575.881 25.48 576.886 25.48V23.48ZM562.606 52.16H560.606C560.606 58.2465 562.014 61.9365 564.091 64.0925C566.196 66.2779 568.633 66.52 569.806 66.52V64.52V62.52C569.18 62.52 568.016 62.4021 566.972 61.3175C565.899 60.2035 564.606 57.7135 564.606 52.16H562.606ZM8.6 105.44L6.83529 104.499L6.29105 105.519L6.904 106.5L8.6 105.44ZM36.44 164.96H34.44V166.96H36.44V164.96ZM37.04 164.96V166.96H38.0225L38.623 166.182L37.04 164.96ZM44.72 108.44L42.8067 107.858L42.4573 109.006L43.3058 109.854L44.72 108.44ZM80.6 116.72H78.6C78.6 121.718 76.9349 128.32 74.0504 135.519C71.181 142.681 67.1686 150.277 62.6219 157.219C58.07 164.169 53.0263 170.396 48.1198 174.86C43.125 179.404 38.6214 181.8 35.12 181.8V183.8V185.8C40.1986 185.8 45.67 182.496 50.8115 177.819C56.0412 173.061 61.295 166.546 65.9681 159.411C70.6464 152.268 74.7865 144.437 77.7634 137.007C80.7251 129.615 82.6 122.462 82.6 116.72H80.6ZM35.12 183.8V181.8C29.117 181.8 23.0837 180.279 18.6087 177.036C14.2135 173.85 11.2 168.928 11.2 161.72H9.2H7.2C7.2 170.232 10.8465 176.35 16.2613 180.274C21.5963 184.141 28.523 185.8 35.12 185.8V183.8ZM9.2 161.72H11.2C11.2 156.113 12.0191 149.771 12.8641 143.117C13.7012 136.524 14.56 129.648 14.56 123.2H12.56H10.56C10.56 129.352 9.7388 135.976 8.89593 142.613C8.06088 149.189 7.2 155.807 7.2 161.72H9.2ZM12.56 123.2H14.56C14.56 116.348 13.5927 109.655 10.296 104.38L8.6 105.44L6.904 106.5C9.60732 110.825 10.56 116.612 10.56 123.2H12.56ZM8.6 105.44L10.3647 106.381C11.0391 105.117 12.8854 103.493 15.5432 102.157C18.1393 100.852 21.1616 100 23.84 100V98L23.84 96C20.3984 96 16.7607 97.068 13.7468 98.5831C10.7946 100.067 8.08087 102.163 6.83529 104.499L8.6 105.44ZM23.84 98V100C29.399 100 33.6622 102.132 36.5657 105.55C39.4997 109.004 41.16 113.915 41.16 119.6H43.16H45.16C45.16 113.165 43.2803 107.276 39.6143 102.96C35.9178 98.6084 30.521 96 23.84 96L23.84 98ZM43.16 119.6H41.16C41.16 126.795 39.5312 134.809 37.8435 142.765C36.1822 150.597 34.44 158.46 34.44 164.96H36.44H38.44C38.44 158.98 40.0578 151.603 41.7565 143.595C43.4288 135.711 45.16 127.285 45.16 119.6H43.16ZM36.44 164.96V166.96H37.04V164.96V162.96H36.44V164.96ZM37.04 164.96L38.623 166.182C46.2201 156.344 52.48 139.471 52.48 123.32H50.48H48.48C48.48 138.609 42.4999 154.616 35.457 163.738L37.04 164.96ZM50.48 123.32H52.48C52.48 118.907 51.7857 115.667 50.5866 113.063C49.3881 110.461 47.7496 108.641 46.1342 107.026L44.72 108.44L43.3058 109.854C44.8104 111.359 46.0519 112.779 46.9534 114.737C47.8543 116.693 48.48 119.333 48.48 123.32H50.48ZM44.72 108.44L46.6333 109.022C47.9981 104.538 53.7796 100 61.76 100V98V96C52.4604 96 44.8019 101.302 42.8067 107.858L44.72 108.44ZM61.76 98V100C66.3632 100 70.5693 101.533 73.6045 104.331C76.6154 107.106 78.6 111.239 78.6 116.72H80.6H82.6C82.6 110.201 80.2046 104.974 76.3155 101.389C72.4507 97.8271 67.2368 96 61.76 96V98ZM98.9553 140.36L100.769 141.203L103.028 136.343L98.1372 138.535L98.9553 140.36ZM81.1953 122V120H79.9423L79.3957 121.127L81.1953 122ZM107.715 105.2V103.2H106.274L105.818 104.568L107.715 105.2ZM120.435 178.52L121.903 179.879L122.974 178.722L122.099 177.411L120.435 178.52ZM90.7953 167.96H92.7953C92.7953 164.915 93.7678 160.383 95.301 155.426C96.8186 150.52 98.8259 145.384 100.769 141.203L98.9553 140.36L97.1416 139.517C95.1248 143.856 93.052 149.16 91.4796 154.244C89.9229 159.277 88.7953 164.285 88.7953 167.96L90.7953 167.96ZM98.9553 140.36L98.1372 138.535C94.85 140.009 91.1703 140.88 88.3953 140.88V142.88V144.88C91.8603 144.88 96.1006 143.831 99.7734 142.185L98.9553 140.36ZM88.3953 142.88V140.88C84.3976 140.88 80.4353 137.994 80.4353 132.2H78.4353H76.4353C76.4353 140.326 82.3131 144.88 88.3953 144.88V142.88ZM78.4353 132.2H80.4353C80.4353 129.708 81.1635 126.65 82.9949 122.873L81.1953 122L79.3957 121.127C77.3871 125.27 76.4353 128.932 76.4353 132.2H78.4353ZM81.1953 122V124C93.8926 124 105.54 118.049 109.613 105.832L107.715 105.2L105.818 104.568C102.45 114.671 92.7381 120 81.1953 120V122ZM107.715 105.2V107.2C111.57 107.2 116.033 109.111 119.578 111.939C121.331 113.336 122.784 114.901 123.786 116.458C124.797 118.029 125.275 119.477 125.275 120.68H127.275H129.275C129.275 118.463 128.419 116.266 127.15 114.293C125.871 112.306 124.1 110.429 122.072 108.811C118.057 105.609 112.74 103.2 107.715 103.2V105.2ZM127.275 120.68H125.275C125.275 127.108 122.955 135.049 120.497 143.363C118.097 151.482 115.555 159.986 115.555 167H117.555H119.555C119.555 160.694 121.873 152.818 124.333 144.497C126.735 136.371 129.275 127.812 129.275 120.68H127.275ZM117.555 167H115.555C115.555 170.499 115.93 173.046 116.542 175.054C117.162 177.085 117.998 178.469 118.771 179.629L120.435 178.52L122.099 177.411C121.433 176.411 120.828 175.395 120.368 173.886C119.901 172.354 119.555 170.221 119.555 167H117.555ZM120.435 178.52L118.968 177.161C116.413 179.921 112.664 181.68 106.875 181.68V183.68V185.68C113.567 185.68 118.458 183.599 121.903 179.879L120.435 178.52ZM106.875 183.68V181.68C102.358 181.68 98.894 180.605 96.5724 178.518C94.2896 176.466 92.7953 173.149 92.7953 167.96H90.7953L88.7953 167.96C88.7953 173.931 90.5411 178.474 93.8983 181.492C97.2166 184.475 101.792 185.68 106.875 185.68V183.68Z" fill="#F7F8FF" mask="url(#path-1-outside-1_202_13)"/>
</svg>
