<svg width="384" height="126" viewBox="0 0 384 126" fill="none" xmlns="http://www.w3.org/2000/svg">
<path d="M361.021 0.5L361.172 0.678711C368.354 9.24257 373.764 18.7198 377.399 29.1084C381.034 39.4962 382.85 50.6087 382.85 62.4414C382.85 74.1838 381.034 85.2504 377.399 95.6377C373.764 106.025 368.355 115.592 361.175 124.336L361.025 124.519H347.602L348.104 123.745C354.277 114.268 358.904 104.388 361.988 94.1055C365.073 83.7304 366.615 73.1762 366.615 62.4414C366.615 51.6152 365.072 41.1065 361.988 30.9141V30.9131C358.904 20.6304 354.277 10.7498 348.104 1.27246L347.602 0.5H361.021Z" fill="url(#paint0_linear_202_5)" stroke="#9A704E"/>
<path d="M317.323 0.5V18.0996L332.021 12.8984L332.511 12.7246L332.665 13.2217L336.28 24.9121L336.422 25.3711L335.969 25.5312L321.23 30.7471L330.916 44.3438L331.196 44.7373L330.812 45.0312L321.388 52.2354L320.977 52.5498L320.677 52.1289L311.014 38.5625L301.351 52.1289L301.051 52.5498L300.64 52.2354L291.215 45.0312L290.833 44.7393L291.109 44.3467L300.671 30.748L285.929 25.5312L285.477 25.3711L285.618 24.9121L289.233 13.2217L289.387 12.7246L289.878 12.8984L304.574 18.0996V0.5H317.323Z" fill="url(#paint1_linear_202_5)" stroke="#9A704E"/>
<path d="M243.334 0.5L243.472 0.776367L265.42 44.6826L265.782 45.4062H248.522L248.386 45.126L236.231 20.3799L223.978 45.1279L223.84 45.4062H206.453L206.814 44.6826L228.763 0.776367L228.901 0.5H243.334Z" fill="url(#paint2_linear_202_5)" stroke="#9A704E"/>
<path d="M184.341 58.1357V72.7285H131.697V58.1357H184.341Z" fill="url(#paint3_linear_202_5)" stroke="#9A704E"/>
<path d="M87.3711 0.5L87.5088 0.776367L109.457 44.6826L109.819 45.4062H92.5596L92.4229 45.126L80.2686 20.3799L68.0146 45.1279L67.877 45.4062H50.4902L50.8516 44.6826L72.7998 0.776367L72.9385 0.5H87.3711Z" fill="url(#paint4_linear_202_5)" stroke="#9A704E"/>
<path d="M35.6123 0.5L35.1182 1.27051C29.0311 10.7484 24.4021 20.6287 21.2314 30.9131C18.1473 41.1055 16.6055 51.6151 16.6055 62.4414C16.6055 73.1748 18.1475 83.7277 21.2314 94.1016L21.5332 95.0645C24.6931 105.004 29.2206 114.565 35.1182 123.748L35.6123 124.519H22.1934L22.0439 124.333C14.9506 115.59 9.5847 106.024 5.9502 95.6377C2.31543 85.2504 0.500029 74.1838 0.5 62.4414C0.5 50.6087 2.31523 39.4962 5.9502 29.1084C9.58504 18.721 14.9515 9.24424 22.0469 0.680664L22.1973 0.5H35.6123Z" fill="url(#paint5_linear_202_5)" stroke="#9A704E"/>
<defs>
<linearGradient id="paint0_linear_202_5" x1="365.437" y1="1" x2="365.437" y2="124.018" gradientUnits="userSpaceOnUse">
<stop stop-color="#F3AADF"/>
<stop offset="1" stop-color="white"/>
</linearGradient>
<linearGradient id="paint1_linear_202_5" x1="310.949" y1="1" x2="310.949" y2="51.8385" gradientUnits="userSpaceOnUse">
<stop stop-color="#F3AADF"/>
<stop offset="1" stop-color="white"/>
</linearGradient>
<linearGradient id="paint2_linear_202_5" x1="236.117" y1="1" x2="236.117" y2="44.9059" gradientUnits="userSpaceOnUse">
<stop stop-color="#F3AADF"/>
<stop offset="1" stop-color="white"/>
</linearGradient>
<linearGradient id="paint3_linear_202_5" x1="158.019" y1="58.6357" x2="158.019" y2="72.2289" gradientUnits="userSpaceOnUse">
<stop stop-color="#F3AADF"/>
<stop offset="1" stop-color="white"/>
</linearGradient>
<linearGradient id="paint4_linear_202_5" x1="80.1544" y1="1" x2="80.1544" y2="44.9059" gradientUnits="userSpaceOnUse">
<stop stop-color="#F3AADF"/>
<stop offset="1" stop-color="white"/>
</linearGradient>
<linearGradient id="paint5_linear_202_5" x1="17.8486" y1="1" x2="17.8486" y2="124.018" gradientUnits="userSpaceOnUse">
<stop stop-color="#F3AADF"/>
<stop offset="1" stop-color="white"/>
</linearGradient>
</defs>
</svg>
