<svg width="557" height="636" viewBox="0 0 557 636" fill="none" xmlns="http://www.w3.org/2000/svg">
<path d="M275.365 1C341.426 1.00006 398.037 14.3187 445.157 41.002L447.357 42.248C493.392 68.5749 528.793 105.25 553.543 152.257L553.843 152.845C556.823 158.927 556.134 165.1 552.757 171.243C549.298 177.534 543 183.848 534.855 190.197C518.559 202.902 494.501 216.02 469.773 229.562C445 243.128 419.53 257.132 400.249 271.65C390.611 278.908 382.564 286.262 376.934 293.716C371.304 301.168 368.137 308.657 368.137 316.209L368.146 316.917C368.338 324.233 371.482 331.54 376.938 338.85C382.57 346.396 390.619 353.88 400.258 361.296C419.54 376.13 445.012 390.558 469.785 404.557C494.513 418.53 518.569 432.089 534.865 445.144C543.01 451.668 549.305 458.134 552.761 464.539C556.242 470.992 556.864 477.441 553.544 483.747L553.543 483.749C528.4 531.236 492.267 568.326 445.161 595.002L445.157 595.004C398.037 621.421 341.426 634.607 275.365 634.607C209.304 634.607 152.693 621.421 105.572 595.004L105.568 595.002C58.4627 568.326 22.3293 531.236 -2.81348 483.749L-2.81445 483.747C-6.13425 477.441 -5.51255 470.992 -2.03125 464.539C1.42425 458.134 7.71949 451.668 15.8643 445.144C32.1601 432.089 56.2162 418.53 80.9443 404.557C105.718 390.558 131.189 376.13 150.472 361.296C160.11 353.881 168.159 346.396 173.791 338.85C179.423 331.304 182.592 323.762 182.592 316.209C182.592 308.657 179.424 301.168 173.795 293.716C168.164 286.262 160.117 278.908 150.479 271.65C131.199 257.132 105.729 243.128 80.9561 229.562C56.2288 216.02 32.1709 202.902 15.874 190.197C7.72909 183.848 1.43104 177.534 -2.02734 171.243C-5.51374 164.902 -6.13453 158.53 -2.81348 152.257C22.3292 104.503 58.4636 67.413 105.572 41.002C152.693 14.3186 209.304 1 275.365 1ZM276.947 162.497C257.667 162.497 241.161 168.661 227.376 180.983C213.566 193.328 202.966 210.968 195.621 233.974L195.62 233.977C188.277 256.711 184.592 284.115 184.592 316.209L184.603 319.18C184.826 349.744 188.506 376.16 195.621 398.444C202.966 421.45 213.566 439.09 227.376 451.435C241.161 463.757 257.667 469.921 276.947 469.921C295.156 469.921 310.868 463.768 324.131 451.447C337.42 439.102 347.76 421.459 355.108 398.444C362.453 375.441 366.137 348.035 366.137 316.209C366.137 284.115 362.452 256.711 355.109 233.977L355.108 233.974C347.76 210.96 337.42 193.316 324.131 180.971C310.868 168.65 295.156 162.497 276.947 162.497Z" fill="url(#paint0_linear_240_166)" stroke="#9A704E" stroke-width="2"/>
<defs>
<linearGradient id="paint0_linear_240_166" x1="275.365" y1="2" x2="275.365" y2="633.607" gradientUnits="userSpaceOnUse">
<stop stop-color="#FF8DB7"/>
<stop offset="0.353587" stop-color="#F6F6F6"/>
</linearGradient>
</defs>
</svg>
