<svg width="751" height="88" viewBox="0 0 751 88" fill="none" xmlns="http://www.w3.org/2000/svg">
<ellipse cx="491" cy="44.5" rx="46" ry="43.5" fill="#FE131C"/>
<ellipse cx="705" cy="43.5" rx="46" ry="43.5" fill="white"/>
<ellipse cx="376" cy="44.5" rx="46" ry="43.5" fill="#DBAC55"/>
<ellipse cx="261" cy="43" rx="46" ry="43" fill="url(#paint0_linear_217_17)"/>
<ellipse cx="153.5" cy="44.5" rx="45.5" ry="43.5" fill="url(#paint1_linear_217_17)"/>
<path d="M46 0.5C71.1556 0.5 91.5 19.7777 91.5 43.5C91.5 67.2223 71.1556 86.5 46 86.5C20.8444 86.5 0.5 67.2223 0.5 43.5C0.5 19.7777 20.8444 0.5 46 0.5Z" stroke="#F7F8FF"/>
<ellipse cx="599" cy="44.5" rx="46" ry="43.5" fill="#A5D320"/>
<defs>
<linearGradient id="paint0_linear_217_17" x1="261" y1="0" x2="261" y2="86" gradientUnits="userSpaceOnUse">
<stop stop-color="#D4E89E"/>
<stop offset="1" stop-color="white"/>
</linearGradient>
<linearGradient id="paint1_linear_217_17" x1="153.5" y1="1" x2="153.5" y2="88" gradientUnits="userSpaceOnUse">
<stop stop-color="#FF99DC"/>
<stop offset="1" stop-color="#FFFCFD"/>
</linearGradient>
</defs>
</svg>
