<svg width="261" height="44" viewBox="0 0 261 44" fill="none" xmlns="http://www.w3.org/2000/svg">
<path d="M0 43.3594V0.390625H11.6455C14.7705 0.390625 17.041 1.1556 18.457 2.68555C19.8893 4.19922 20.6055 6.70573 20.6055 10.2051V12.085C20.6055 14.1032 20.2393 15.7389 19.5068 16.9922C18.7907 18.2454 17.6921 19.0674 16.2109 19.458C18.1478 19.9463 19.4417 21.0938 20.0928 22.9004C20.7601 24.6908 21.0938 26.8799 21.0938 29.4678C21.0938 32.251 20.8333 34.6842 20.3125 36.7676C19.7917 38.8509 18.8477 40.4704 17.4805 41.626C16.1133 42.7816 14.1683 43.3594 11.6455 43.3594H0ZM8.39844 16.5771H10.1562C10.9538 16.5771 11.4665 16.2679 11.6943 15.6494C11.9222 15.0309 12.0361 14.2904 12.0361 13.4277V9.10645C12.0361 7.72298 11.4258 7.03125 10.2051 7.03125H8.39844V16.5771ZM9.25293 35.791C11.4827 35.791 12.5977 34.7331 12.5977 32.6172V27.2461C12.5977 26.0254 12.4105 25.0651 12.0361 24.3652C11.6781 23.6491 10.9945 23.291 9.98535 23.291H8.39844V35.7422C8.75651 35.7747 9.04134 35.791 9.25293 35.791ZM22.7539 43.3594L26.9043 0.390625H41.4795L45.5566 43.3594H37.4268L36.8164 36.4258H31.6406L31.1035 43.3594H22.7539ZM32.251 29.5654H36.1572L34.2773 7.71484H33.8867L32.251 29.5654ZM57.0557 43.75C50.9196 43.75 47.8516 39.3555 47.8516 30.5664V12.0361C47.8516 4.01204 51.3672 0 58.3984 0C61.2956 0 63.5173 0.585938 65.0635 1.75781C66.6097 2.91341 67.6758 4.60612 68.2617 6.83594C68.8477 9.06576 69.1406 11.7839 69.1406 14.9902H60.7422V11.1816C60.7422 10.2539 60.612 9.48079 60.3516 8.8623C60.1074 8.22754 59.5866 7.91016 58.7891 7.91016C57.7962 7.91016 57.137 8.24382 56.8115 8.91113C56.5023 9.57845 56.3477 10.3109 56.3477 11.1084V31.9336C56.3477 33.0892 56.4941 34.0332 56.7871 34.7656C57.0964 35.4818 57.6904 35.8398 58.5693 35.8398C59.4808 35.8398 60.083 35.4818 60.376 34.7656C60.6852 34.0332 60.8398 33.0729 60.8398 31.8848V25.7568H58.5449V18.335H69.043V43.3594H65.6006L64.1357 39.7461C62.6383 42.4154 60.2783 43.75 57.0557 43.75ZM72.4609 43.3594V0.390625H89.6484V8.69141H81.2012V17.0654H89.3066V25.1465H81.2012V34.9854H90.21V43.3594H72.4609ZM93.0664 43.3594V0.390625H106.25C108.447 0.390625 110.107 0.895182 111.23 1.9043C112.354 2.89714 113.102 4.29688 113.477 6.10352C113.867 7.89388 114.062 10.0016 114.062 12.4268C114.062 14.7705 113.761 16.6423 113.159 18.042C112.573 19.4417 111.458 20.4102 109.814 20.9473C111.165 21.224 112.109 21.8994 112.646 22.9736C113.2 24.0316 113.477 25.4069 113.477 27.0996V43.3594H105.005V26.5381C105.005 25.2848 104.744 24.5117 104.224 24.2188C103.719 23.9095 102.897 23.7549 101.758 23.7549V43.3594H93.0664ZM101.807 16.3086H103.882C105.07 16.3086 105.664 15.0146 105.664 12.4268C105.664 10.7503 105.534 9.65169 105.273 9.13086C105.013 8.61003 104.525 8.34961 103.809 8.34961H101.807V16.3086ZM116.895 43.3594V0.390625H128.711C131.803 0.390625 134.131 1.25326 135.693 2.97852C137.256 4.6875 138.037 7.19401 138.037 10.498V30.6152C138.037 34.6842 137.321 37.8255 135.889 40.0391C134.473 42.2526 131.982 43.3594 128.418 43.3594H116.895ZM125.537 35.7666H127.026C128.605 35.7666 129.395 35.0016 129.395 33.4717V11.3037C129.395 9.87142 129.199 8.95182 128.809 8.54492C128.434 8.12174 127.661 7.91016 126.489 7.91016H125.537V35.7666ZM146.753 43.3594V29.2236L139.893 0.390625H148.413L150.806 14.9414L153.198 0.390625H161.694L154.858 29.2236V43.3594H146.753ZM172.729 43.75C166.593 43.75 163.525 39.3555 163.525 30.5664V12.0361C163.525 4.01204 167.041 0 174.072 0C176.969 0 179.191 0.585938 180.737 1.75781C182.284 2.91341 183.35 4.60612 183.936 6.83594C184.521 9.06576 184.814 11.7839 184.814 14.9902H176.416V11.1816C176.416 10.2539 176.286 9.48079 176.025 8.8623C175.781 8.22754 175.26 7.91016 174.463 7.91016C173.47 7.91016 172.811 8.24382 172.485 8.91113C172.176 9.57845 172.021 10.3109 172.021 11.1084V31.9336C172.021 33.0892 172.168 34.0332 172.461 34.7656C172.77 35.4818 173.364 35.8398 174.243 35.8398C175.155 35.8398 175.757 35.4818 176.05 34.7656C176.359 34.0332 176.514 33.0729 176.514 31.8848V25.7568H174.219V18.335H184.717V43.3594H181.274L179.81 39.7461C178.312 42.4154 175.952 43.75 172.729 43.75ZM191.821 43.3594V8.64258H186.719V0.390625H205.518V8.64258H200.415V43.3594H191.821ZM207.52 43.3594V0.390625H215.82V43.3594H207.52ZM228.101 43.75C221.965 43.75 218.896 39.3555 218.896 30.5664V12.0361C218.896 4.01204 222.412 0 229.443 0C232.34 0 234.562 0.585938 236.108 1.75781C237.655 2.91341 238.721 4.60612 239.307 6.83594C239.893 9.06576 240.186 11.7839 240.186 14.9902H231.787V11.1816C231.787 10.2539 231.657 9.48079 231.396 8.8623C231.152 8.22754 230.632 7.91016 229.834 7.91016C228.841 7.91016 228.182 8.24382 227.856 8.91113C227.547 9.57845 227.393 10.3109 227.393 11.1084V31.9336C227.393 33.0892 227.539 34.0332 227.832 34.7656C228.141 35.4818 228.735 35.8398 229.614 35.8398C230.526 35.8398 231.128 35.4818 231.421 34.7656C231.73 34.0332 231.885 33.0729 231.885 31.8848V25.7568H229.59V18.335H240.088V43.3594H236.646L235.181 39.7461C233.683 42.4154 231.323 43.75 228.101 43.75ZM247.192 43.3594V8.64258H242.09V0.390625H260.889V8.64258H255.786V43.3594H247.192Z" fill="#E4DECB"/>
</svg>
