<svg width="727" height="397" viewBox="0 0 727 397" fill="none" xmlns="http://www.w3.org/2000/svg">
<path d="M96.5078 40.5703V68.0312C95.3099 69.0729 93.7083 69.9453 91.7031 70.6484C89.6979 71.3516 87.263 71.7031 84.3984 71.7031C81.5339 71.7031 79.099 71.0651 77.0938 69.7891C74.8281 68.4089 73.6953 66.4557 73.6953 63.9297V38.7734H64.5938C62.7188 36.0911 61.7812 33.1615 61.7812 29.9844C61.7812 27.8229 62.1198 25.9479 62.7969 24.3594C63.5 22.7448 64.3594 21.4948 65.375 20.6094H105.766C106.521 21.7812 107.146 23.2005 107.641 24.8672C108.135 26.5339 108.383 28.1875 108.383 29.8281C108.383 32.901 107.706 35.1667 106.352 36.625C104.997 38.0573 103.174 38.7734 100.883 38.7734H89.4375C89.3594 38.9557 89.3203 39.151 89.3203 39.3594C89.3203 39.8281 89.5938 40.1406 90.1406 40.2969C90.7135 40.4792 91.9375 40.5703 93.8125 40.5703H96.5078ZM157.641 29.5938V68.4219C154.724 70.6094 150.987 71.7031 146.43 71.7031C142.914 71.7031 140.128 70.987 138.07 69.5547C135.909 68.0964 134.828 65.987 134.828 63.2266V55.4922H137.602C138.669 55.4922 139.333 55.362 139.594 55.1016C139.88 54.8151 140.023 54.3594 140.023 53.7344H127.758C127.758 54.3594 127.875 54.8151 128.109 55.1016C128.344 55.362 128.904 55.4922 129.789 55.4922H132.758V68.4219C130.753 69.724 128.852 70.5964 127.055 71.0391C125.258 71.4818 123.422 71.7031 121.547 71.7031C118.031 71.7031 115.245 70.987 113.188 69.5547C111.026 68.0964 109.945 65.987 109.945 63.2266V24.3594C111.299 22.9271 112.966 21.8333 114.945 21.0781C116.951 20.2969 119.034 19.9062 121.195 19.9062C124.346 19.9062 127.016 20.6875 129.203 22.25C131.573 24.0208 132.758 26.4688 132.758 29.5938V36.5469H137.719C137.719 35.8698 137.589 35.4141 137.328 35.1797C137.094 34.9193 136.703 34.7891 136.156 34.7891H134.828V24.3594C136.182 22.9271 137.849 21.8333 139.828 21.0781C141.833 20.2969 143.917 19.9062 146.078 19.9062C149.229 19.9062 151.898 20.6875 154.086 22.25C156.456 24.0208 157.641 26.4688 157.641 29.5938ZM178.148 20.6094H200.688C201.443 21.8594 202.003 23.2266 202.367 24.7109C202.732 26.1693 202.914 27.4844 202.914 28.6562C202.914 31.2865 202.393 33.2656 201.352 34.5938C200.336 35.9219 198.904 36.5859 197.055 36.5859H181.312C180.349 36.5859 179.867 36.9635 179.867 37.7188V38.0312C179.867 38.1875 179.893 38.2917 179.945 38.3438H198.617C199.086 39.151 199.49 40.1667 199.828 41.3906C200.141 42.7188 200.297 43.9036 200.297 44.9453C200.297 48.0443 199.724 50.4661 198.578 52.2109H190.102C186.143 52.2109 183.461 52.3672 182.055 52.6797C180.648 52.9661 179.776 53.2135 179.438 53.4219C179.099 53.6562 178.93 53.9557 178.93 54.3203C178.93 54.6849 179.112 54.9714 179.477 55.1797C180.831 54.737 182.25 54.4245 183.734 54.2422C185.688 54.0599 187.81 53.9688 190.102 53.9688H201.078C202.667 56.2083 203.461 58.9036 203.461 62.0547C203.461 63.8255 203.24 65.5182 202.797 67.1328C202.354 68.7474 201.69 70.0495 200.805 71.0391H171.547C168.318 71.0391 165.727 70.2578 163.773 68.6953C161.638 67.0286 160.57 64.5807 160.57 61.3516V24.2031C160.57 22.9531 162.003 22.0417 164.867 21.4688C167.732 20.8958 172.159 20.6094 178.148 20.6094ZM243.773 56.7812C244.633 56.625 245.062 56.1953 245.062 55.4922C245.062 54.763 244.828 53.9557 244.359 53.0703C243.917 52.1589 243.253 51.2995 242.367 50.4922C240.049 48.4089 236.911 47.3672 232.953 47.3672C231 47.3672 229.177 47.6927 227.484 48.3438C225.688 47.4323 224.255 45.987 223.188 44.0078C222.12 42.0286 221.586 39.8932 221.586 37.6016C221.586 31.612 224.086 26.9896 229.086 23.7344C233.383 20.9479 238.682 19.5547 244.984 19.5547C249.672 19.5547 253.617 20.0625 256.82 21.0781C260.023 22.0677 262.641 23.3438 264.672 24.9062C265.271 26.625 265.57 28.4089 265.57 30.2578C265.57 32.1068 265.323 33.7865 264.828 35.2969C264.333 36.8073 263.617 38.0182 262.68 38.9297C261.794 38.2786 260.193 37.6146 257.875 36.9375C255.557 36.2604 253.448 35.9219 251.547 35.9219C249.646 35.9219 248.37 36.0391 247.719 36.2734C247.094 36.5078 246.781 36.8724 246.781 37.3672C246.781 37.6016 246.82 37.8229 246.898 38.0312C247.81 37.7969 248.982 37.6797 250.414 37.6797C255.492 37.6797 259.633 38.8776 262.836 41.2734C266.612 44.138 268.5 48.4349 268.5 54.1641C268.5 59.2161 266.456 63.4089 262.367 66.7422C257.94 70.3099 251.99 72.0938 244.516 72.0938C240.401 72.0938 236.833 71.7812 233.812 71.1562C230.792 70.5573 227.849 69.4896 224.984 67.9531C223.031 65.1146 222.055 62.237 222.055 59.3203C222.055 56.3776 223.057 53.9427 225.062 52.0156C227.068 50.0885 229.529 49.125 232.445 49.125C235.388 49.125 237.784 49.724 239.633 50.9219C241.508 52.1198 242.888 54.0729 243.773 56.7812ZM304.164 19.9062C307.289 19.9062 309.997 20.7526 312.289 22.4453C314.581 24.138 315.727 26.5469 315.727 29.6719V51.3906C315.727 58.0052 313.708 63.1094 309.672 66.7031C305.635 70.2708 300.049 72.0547 292.914 72.0547C285.805 72.0547 280.271 70.2969 276.312 66.7812C272.276 63.2656 270.258 58.1354 270.258 51.3906V23.5391C273.331 21.0911 276.885 19.8672 280.922 19.8672C284.307 19.8672 286.99 20.7656 288.969 22.5625C290.948 24.3333 291.938 27.0286 291.938 30.6484V53.4219C292.224 53.6302 292.549 53.7344 292.914 53.7344C293.305 53.7344 293.578 53.6432 293.734 53.4609C293.917 53.2526 294.008 52.875 294.008 52.3281V30.6094C294.008 28.9688 293.93 27.6667 293.773 26.7031C293.617 25.7396 293.305 24.776 292.836 23.8125C295.961 21.2083 299.737 19.9062 304.164 19.9062ZM339.633 56.7812C340.492 56.625 340.922 56.1953 340.922 55.4922C340.922 54.763 340.688 53.9557 340.219 53.0703C339.776 52.1589 339.112 51.2995 338.227 50.4922C335.909 48.4089 332.771 47.3672 328.812 47.3672C326.859 47.3672 325.036 47.6927 323.344 48.3438C321.547 47.4323 320.115 45.987 319.047 44.0078C317.979 42.0286 317.445 39.8932 317.445 37.6016C317.445 31.612 319.945 26.9896 324.945 23.7344C329.242 20.9479 334.542 19.5547 340.844 19.5547C345.531 19.5547 349.477 20.0625 352.68 21.0781C355.883 22.0677 358.5 23.3438 360.531 24.9062C361.13 26.625 361.43 28.4089 361.43 30.2578C361.43 32.1068 361.182 33.7865 360.688 35.2969C360.193 36.8073 359.477 38.0182 358.539 38.9297C357.654 38.2786 356.052 37.6146 353.734 36.9375C351.417 36.2604 349.307 35.9219 347.406 35.9219C345.505 35.9219 344.229 36.0391 343.578 36.2734C342.953 36.5078 342.641 36.8724 342.641 37.3672C342.641 37.6016 342.68 37.8229 342.758 38.0312C343.669 37.7969 344.841 37.6797 346.273 37.6797C351.352 37.6797 355.492 38.8776 358.695 41.2734C362.471 44.138 364.359 48.4349 364.359 54.1641C364.359 59.2161 362.315 63.4089 358.227 66.7422C353.799 70.3099 347.849 72.0938 340.375 72.0938C336.26 72.0938 332.693 71.7812 329.672 71.1562C326.651 70.5573 323.708 69.4896 320.844 67.9531C318.891 65.1146 317.914 62.237 317.914 59.3203C317.914 56.3776 318.917 53.9427 320.922 52.0156C322.927 50.0885 325.388 49.125 328.305 49.125C331.247 49.125 333.643 49.724 335.492 50.9219C337.367 52.1198 338.747 54.0729 339.633 56.7812ZM414.047 29.5938V68.4219C411.13 70.6094 407.393 71.7031 402.836 71.7031C399.32 71.7031 396.534 70.987 394.477 69.5547C392.315 68.0964 391.234 65.987 391.234 63.2266V55.4922H394.008C395.076 55.4922 395.74 55.362 396 55.1016C396.286 54.8151 396.43 54.3594 396.43 53.7344H384.164C384.164 54.3594 384.281 54.8151 384.516 55.1016C384.75 55.362 385.31 55.4922 386.195 55.4922H389.164V68.4219C387.159 69.724 385.258 70.5964 383.461 71.0391C381.664 71.4818 379.828 71.7031 377.953 71.7031C374.438 71.7031 371.651 70.987 369.594 69.5547C367.432 68.0964 366.352 65.987 366.352 63.2266V24.3594C367.706 22.9271 369.372 21.8333 371.352 21.0781C373.357 20.2969 375.44 19.9062 377.602 19.9062C380.753 19.9062 383.422 20.6875 385.609 22.25C387.979 24.0208 389.164 26.4688 389.164 29.5938V36.5469H394.125C394.125 35.8698 393.995 35.4141 393.734 35.1797C393.5 34.9193 393.109 34.7891 392.562 34.7891H391.234V24.3594C392.589 22.9271 394.255 21.8333 396.234 21.0781C398.24 20.2969 400.323 19.9062 402.484 19.9062C405.635 19.9062 408.305 20.6875 410.492 22.25C412.862 24.0208 414.047 26.4688 414.047 29.5938ZM439.789 27.6797V68.0312C438.591 69.0729 436.99 69.9453 434.984 70.6484C432.979 71.3516 430.544 71.7031 427.68 71.7031C424.815 71.7031 422.38 71.0651 420.375 69.7891C418.109 68.4089 416.977 66.4557 416.977 63.9297V23.5781C418.174 22.5365 419.776 21.6641 421.781 20.9609C423.786 20.2578 426.208 19.9062 429.047 19.9062C431.885 19.9062 434.346 20.5312 436.43 21.7812C438.669 23.2135 439.789 25.1797 439.789 27.6797ZM486.82 38.4609H509.984C511.469 40.6224 512.211 43.2526 512.211 46.3516C512.211 49.4245 511.573 51.9245 510.297 53.8516H508.695V65.5703C503.565 70.0234 496.794 72.25 488.383 72.25C483.253 72.25 478.695 71.3385 474.711 69.5156C470.362 67.5625 466.99 64.7109 464.594 60.9609C461.964 56.8464 460.648 51.7943 460.648 45.8047C460.648 37.2891 463.201 30.7005 468.305 26.0391C473.148 21.5859 479.711 19.3594 487.992 19.3594C492.081 19.3594 495.935 19.9714 499.555 21.1953C503.201 22.4193 506.078 23.9427 508.188 25.7656C508.188 27.3281 507.992 29.2422 507.602 31.5078C507.237 33.7734 506.768 35.5052 506.195 36.7031H485.609C484.776 37.5885 483.982 38.8646 483.227 40.5312C482.497 42.1979 482.133 44.112 482.133 46.2734C482.133 49.2422 482.875 51.5729 484.359 53.2656C485.661 54.8021 487.328 55.5703 489.359 55.5703C490.193 55.5703 490.609 55.2839 490.609 54.7109V53.8125H490.18C488.461 53.8125 487.029 53.1484 485.883 51.8203C484.763 50.4661 484.203 48.5391 484.203 46.0391C484.203 42.9141 485.076 40.388 486.82 38.4609ZM536.625 45.3359C536.833 45.5443 537.159 45.6484 537.602 45.6484C538.044 45.6484 538.422 45.5573 538.734 45.375C538.057 41.4167 537.602 39.0729 537.367 38.3438C537.081 37.5885 536.651 37.2109 536.078 37.2109C535.818 37.2109 535.505 37.2891 535.141 37.4453L536.625 45.3359ZM528.891 57.0547C528.63 57.4193 528.5 57.7578 528.5 58.0703C528.5 58.8255 529.203 59.4635 530.609 59.9844C532.042 60.4792 533.773 60.7917 535.805 60.9219C536.143 64.6719 536.508 66.8073 536.898 67.3281C536.404 68.2917 535.036 69.2682 532.797 70.2578C530.557 71.2214 528.031 71.7031 525.219 71.7031C521.495 71.7031 518.305 70.9089 515.648 69.3203C512.992 67.7057 511.664 65.6354 511.664 63.1094C511.664 62.4323 511.729 61.8333 511.859 61.3125L520.18 24.125C522.263 22.7969 524.75 21.7552 527.641 21C530.531 20.2448 533.539 19.8672 536.664 19.8672C541.143 19.8672 544.971 20.6224 548.148 22.1328C551.768 23.8516 553.969 26.3385 554.75 29.5938L563.656 66.4297C560.948 69.9453 556.534 71.7031 550.414 71.7031C547.445 71.7031 544.932 71.1693 542.875 70.1016C540.818 69.0339 539.62 67.5104 539.281 65.5312L538.422 60.7656C539.984 60.7396 541.495 60.4401 542.953 59.8672C544.411 59.2943 545.141 58.6953 545.141 58.0703C545.141 57.6536 544.971 57.3151 544.633 57.0547C543.643 57.7578 542.432 58.2917 541 58.6562C539.568 59.0208 538.24 59.2031 537.016 59.2031C533.5 59.2031 530.792 58.487 528.891 57.0547ZM608.852 71.7031C605.284 71.7031 602.484 71.1172 600.453 69.9453C598.266 68.7214 597.081 66.9896 596.898 64.75L596.547 61.0781C598.943 60.5052 600.961 59.0208 602.602 56.625C603.044 55.9479 603.266 55.362 603.266 54.8672C603.266 54.1901 602.927 53.8516 602.25 53.8516H602.133C602.107 53.8776 602.055 53.8906 601.977 53.8906C600.154 57.7188 597.198 59.6328 593.109 59.6328C591.026 59.6328 589.242 59.1771 587.758 58.2656C586.299 57.3542 584.958 55.7786 583.734 53.5391H583.5C582.797 53.5391 582.445 53.8385 582.445 54.4375C582.445 54.8542 582.602 55.3229 582.914 55.8438C583.956 57.5885 585.258 58.9557 586.82 59.9453C588.044 60.7786 589.333 61.2734 590.688 61.4297L590.375 68.8125C588.812 69.8281 587.159 70.5573 585.414 71C583.695 71.4688 581.234 71.7031 578.031 71.7031C574.854 71.7031 572.016 71.0781 569.516 69.8281C566.443 68.2917 564.906 66.1562 564.906 63.4219C564.906 60.0104 565.583 51.5859 566.938 38.1484C567.667 31.1432 568.253 26.2474 568.695 23.4609C571.378 21.0651 575.336 19.8672 580.57 19.8672C584.372 19.8672 587.523 20.5703 590.023 21.9766L592.172 29.1641L590.805 34.9062C590.701 35.2969 590.648 35.6745 590.648 36.0391C590.648 36.9505 591.169 37.4193 592.211 37.4453L595.922 22.0156C596.99 21.4427 598.383 20.9479 600.102 20.5312C601.82 20.0885 603.695 19.8672 605.727 19.8672C609.529 19.8672 612.341 20.5182 614.164 21.8203C616.013 23.0964 617.107 25.2578 617.445 28.3047C617.523 28.8776 617.641 29.8281 617.797 31.1562C620.167 51.5208 621.352 63.513 621.352 67.1328C618.461 70.1797 614.294 71.7031 608.852 71.7031ZM640.883 20.6094H663.422C664.177 21.8594 664.737 23.2266 665.102 24.7109C665.466 26.1693 665.648 27.4844 665.648 28.6562C665.648 31.2865 665.128 33.2656 664.086 34.5938C663.07 35.9219 661.638 36.5859 659.789 36.5859H644.047C643.083 36.5859 642.602 36.9635 642.602 37.7188V38.0312C642.602 38.1875 642.628 38.2917 642.68 38.3438H661.352C661.82 39.151 662.224 40.1667 662.562 41.3906C662.875 42.7188 663.031 43.9036 663.031 44.9453C663.031 48.0443 662.458 50.4661 661.312 52.2109H652.836C648.878 52.2109 646.195 52.3672 644.789 52.6797C643.383 52.9661 642.51 53.2135 642.172 53.4219C641.833 53.6562 641.664 53.9557 641.664 54.3203C641.664 54.6849 641.846 54.9714 642.211 55.1797C643.565 54.737 644.984 54.4245 646.469 54.2422C648.422 54.0599 650.544 53.9688 652.836 53.9688H663.812C665.401 56.2083 666.195 58.9036 666.195 62.0547C666.195 63.8255 665.974 65.5182 665.531 67.1328C665.089 68.7474 664.424 70.0495 663.539 71.0391H634.281C631.052 71.0391 628.461 70.2578 626.508 68.6953C624.372 67.0286 623.305 64.5807 623.305 61.3516V24.2031C623.305 22.9531 624.737 22.0417 627.602 21.4688C630.466 20.8958 634.893 20.6094 640.883 20.6094Z" fill="black"/>
<ellipse cx="499" cy="353.5" rx="46" ry="43.5" fill="#FE131C"/>
<ellipse cx="384" cy="353.5" rx="46" ry="43.5" fill="#DBAC55"/>
<ellipse cx="269" cy="352" rx="46" ry="43" fill="url(#paint0_linear_280_1711)"/>
<ellipse cx="161.5" cy="353.5" rx="45.5" ry="43.5" fill="url(#paint1_linear_280_1711)"/>
<ellipse cx="607" cy="353.5" rx="46" ry="43.5" fill="#A5D320"/>
<path d="M337.866 135.959C337.866 135.959 387.318 184.64 443.635 242.201C387.862 214.781 347.395 180.225 337.866 135.959Z" fill="black"/>
<path d="M416.567 252.778C360.25 195.217 310.798 146.535 310.798 146.535C320.328 190.801 360.794 225.358 416.567 252.778Z" fill="black"/>
<defs>
<linearGradient id="paint0_linear_280_1711" x1="269" y1="309" x2="269" y2="395" gradientUnits="userSpaceOnUse">
<stop stop-color="#D4E89E"/>
<stop offset="1" stop-color="white"/>
</linearGradient>
<linearGradient id="paint1_linear_280_1711" x1="161.5" y1="310" x2="161.5" y2="397" gradientUnits="userSpaceOnUse">
<stop stop-color="#FF99DC"/>
<stop offset="1" stop-color="#FFFCFD"/>
</linearGradient>
</defs>
</svg>
