<svg width="1261" height="721" viewBox="0 0 1261 721" fill="none" xmlns="http://www.w3.org/2000/svg">
<g clip-path="url(#clip0_189_4291)">
<path d="M1261 0H0V721H1261V0Z" fill="black"/>
<path d="M1119.54 82.1738H103.625V643.886H1119.54V82.1738Z" stroke="#D0992D" stroke-width="3" stroke-miterlimit="10"/>
<path d="M197.543 82.1738L197.68 644.02" stroke="#D0992D" stroke-width="3" stroke-miterlimit="10"/>
<path d="M1026.33 82.3066L1026.2 643.879" stroke="#D0992D" stroke-width="3" stroke-miterlimit="10"/>
<path d="M1119.11 82.6484H998.846V206.04H1119.11V82.6484Z" fill="#E0B661"/>
<path d="M224.592 520.381H104.328V643.772H224.592V520.381Z" fill="#E0B661"/>
<path d="M150.63 311.592C150.064 312.981 149.446 314.483 148.659 316.966C146.856 322.861 140.324 343.603 137.903 349.438L132.834 349.611C135.652 342.969 142.184 322.046 143.87 315.925C144.605 313.268 144.826 311.939 144.995 310.377L150.63 311.592ZM161.334 330.945C165.277 336.84 171.471 348.51 173.781 354.465L169.109 356.601C166.858 350.359 161.112 338.342 157.059 332.855L161.34 330.945H161.334ZM130.642 348.223C138.749 347.816 158.913 345.506 166.181 344.411L167.417 348.917C159.59 349.959 138.866 352.268 130.921 353.076C129.516 353.19 127.824 353.423 126.249 353.657L125.352 348.343C127.043 348.403 129.015 348.343 130.648 348.229L130.642 348.223Z" fill="#FF1523"/>
<path d="M125.346 291.984C127.09 292.158 130.018 292.332 133.232 292.332H164.093C166.911 292.332 168.882 292.098 170.177 291.984V297.646C168.993 297.585 166.631 297.412 164.152 297.412H133.232C130.135 297.412 127.148 297.525 125.346 297.646V291.984Z" fill="#FF1523"/>
<path d="M163.142 230.419C164.547 232.502 166.577 235.967 167.703 238.337L164.665 239.725C163.597 237.416 161.678 233.891 160.162 231.754L163.148 230.426L163.142 230.419ZM169.278 228.109C170.8 230.192 172.941 233.831 174.008 235.967L171.022 237.356C169.785 234.812 167.924 231.581 166.35 229.384L169.278 228.116V228.109ZM142.698 232.502C142.249 233.831 141.683 235.393 141.292 236.608C140.395 239.211 139.152 242.73 137.577 245.914C135.326 250.42 131.214 256.315 127.667 259.319L123.217 256.549C127.27 253.605 131.324 247.65 133.244 244.125C134.818 241.234 135.775 238.29 136.451 236.034C136.9 234.592 137.187 232.969 137.297 231.467L142.704 232.509L142.698 232.502ZM135.658 242.436H165.732C167.137 242.436 169.395 242.376 171.028 242.089V247.056C169.226 246.942 167.026 246.942 165.732 246.942H135.039L135.658 242.436ZM156.323 244.866C155.815 262.664 149.393 272.891 139.314 279.481L134.525 276.129C136.1 275.495 137.85 274.454 139.087 273.412C144.891 268.966 151.254 260.875 151.534 244.866H156.323Z" fill="#FF1523"/>
<path d="M125.293 168.119H167.756V172.278H125.293V168.119ZM125.631 178.347H159.59V182.219H125.631V178.347ZM166.071 168.119H170.293V211.052C170.293 214.056 169.727 215.558 167.762 216.366C165.791 217.12 162.245 217.174 157.228 217.174C157 215.845 156.382 213.709 155.705 212.434C159.648 212.547 163.474 212.547 164.659 212.494C165.726 212.434 166.064 212.147 166.064 211.052V168.119H166.071ZM129.236 188.461H133.348V211.226H129.236V188.461ZM132.613 188.461H155.705V206.953H132.613V203.141H151.535V192.333H132.613V188.461Z" fill="#FF1523"/>
<path d="M126.588 104.752H170.625V108.51H126.588V104.752ZM128.845 113.25H168.439V116.888H128.845V113.25ZM123.269 121.969H173.677V125.781H123.269V121.969ZM124.226 131.622H172.772V135.434H124.226V131.622ZM159.089 125.267H163.37V147.511C163.37 150.054 162.804 151.323 161.002 152.017C159.089 152.711 155.991 152.711 151.261 152.711C151.033 151.496 150.363 149.767 149.797 148.492C153.571 148.606 156.896 148.606 157.852 148.552C158.867 148.552 159.089 148.265 159.089 147.457V125.267ZM145.399 99.7246L150.018 100.245C146.98 124.225 141.176 140.461 126.418 150.341C125.742 149.42 123.829 147.624 122.703 146.817C137.343 138.091 142.75 122.429 145.399 99.7246ZM138.306 140L141.8 137.744C144.559 140.341 147.936 144.039 149.569 146.409L145.906 148.953C144.383 146.523 141.065 142.711 138.306 139.994V140Z" fill="#FF1523"/>
<path d="M1044.05 483.524H1101.96V488.284H1044.05V483.524ZM1070.09 477.068H1075.25V539.555H1070.09V477.068ZM1068.56 516.022L1072.74 517.925C1066.51 526.49 1055.58 534.448 1045.9 538.527C1045.11 537.232 1043.58 535.262 1042.39 534.241C1052.06 530.776 1062.93 523.499 1068.56 516.022ZM1076.91 516.096C1082.61 523.573 1093.68 530.85 1103.48 534.248C1102.29 535.269 1100.76 537.238 1099.97 538.667C1090.17 534.655 1079.1 526.497 1072.86 517.998L1076.9 516.096H1076.91ZM1054.71 508.412V514.941H1091.56V508.412H1054.71ZM1054.71 498.078V504.54H1091.56V498.078H1054.71ZM1049.88 494.065H1096.59V519.02H1049.88V494.065ZM1043.97 570.505H1101.83V575.398H1043.97V570.505ZM1070.09 562.62H1075.32V573.088H1070.09V562.62ZM1057.03 586.14V597.288H1088.97V586.14H1057.03ZM1052.13 581.653H1094.21V601.848H1052.13V581.653ZM1085.19 608.103L1089.7 605.86C1094.14 610.28 1099.65 616.535 1102.36 620.547L1097.52 623.131C1095.07 619.186 1089.7 612.663 1085.2 608.103H1085.19ZM1070.15 599.945H1075.32V619.252C1075.32 622.243 1074.65 623.672 1072.34 624.419C1070.09 625.167 1066.31 625.234 1060.41 625.167C1060.14 623.805 1059.41 621.769 1058.75 620.407C1063.26 620.541 1067.43 620.474 1068.63 620.407C1069.82 620.407 1070.15 620.133 1070.15 619.185V599.945ZM1054.91 605.794L1059.95 607.423C1056.77 612.797 1051.67 618.845 1046.69 622.65C1045.7 621.696 1043.91 620.34 1042.78 619.659C1047.55 616.121 1052.46 610.48 1054.91 605.787V605.794Z" fill="#B0D925"/>
<path d="M420.535 363.138L413.833 364.853C408.537 364.853 402.108 353.104 402.108 347.669L401.828 331.861C401.828 326.427 406.162 321.98 411.458 321.98C416.755 321.98 421.088 326.427 421.088 331.861V347.329C421.088 352.763 425.831 363.138 420.535 363.138Z" fill="#FFDAC2"/>
<path d="M470.185 296.246L455.193 295.062C453.337 294.916 451.716 296.341 451.573 298.245L451.384 300.774C451.241 302.678 452.63 304.341 454.486 304.487L469.478 305.671C471.334 305.818 472.955 304.393 473.098 302.488L473.287 299.959C473.43 298.055 472.041 296.392 470.185 296.246Z" fill="#FFDAC2"/>
<path d="M298.727 348.189L283.917 350.86C282.084 351.191 280.859 352.984 281.181 354.865L281.609 357.363C281.932 359.244 283.679 360.501 285.512 360.171L300.322 357.5C302.156 357.169 303.381 355.376 303.058 353.495L302.63 350.996C302.308 349.115 300.56 347.859 298.727 348.189Z" fill="#FFDAC2"/>
<g opacity="0.9">
<path opacity="0.6" d="M272.6 307.406L269.496 310.804L295.738 347.288L277.877 305.65L272.6 307.406Z" fill="#DBAF53" stroke="#FFE5D4" stroke-width="0.25" stroke-miterlimit="10"/>
<path opacity="0.6" d="M264.199 313.261L261.121 317.681L295.737 347.289L269.495 310.805L264.199 313.261Z" fill="#DBAF53" stroke="#FFE5D4" stroke-width="0.25" stroke-miterlimit="10"/>
<path opacity="0.6" d="M295.77 348.363L297.136 303.066L292.308 302.092L287.09 303.928L295.77 348.363Z" fill="#DBAF53" stroke="#FFE5D4" stroke-width="0.25" stroke-miterlimit="10"/>
<path opacity="0.6" d="M295.768 348.363L287.089 303.928L282.241 303.508L277.875 305.651L295.768 348.363Z" fill="#DBAF53" stroke="#FFE5D4" stroke-width="0.25" stroke-miterlimit="10"/>
<path opacity="0.6" d="M249.299 341L250.236 346.033L295.041 349.044L251.908 336.58L249.299 341Z" fill="#DBAF53" stroke="#FFE5D4" stroke-width="0.25" stroke-miterlimit="10"/>
<path opacity="0.6" d="M248.855 351.421L250.105 356.701L295.04 349.044L250.235 346.033L248.855 351.421Z" fill="#DBAF53" stroke="#FFE5D4" stroke-width="0.25" stroke-miterlimit="10"/>
<path opacity="0.6" d="M295.157 346.386L261.121 317.68L256.904 321.612L256.098 327.126L295.157 346.386Z" fill="#DBAF53" stroke="#FFE5D4" stroke-width="0.25" stroke-miterlimit="10"/>
<g opacity="0.6">
<path d="M295.039 346.467L256.097 327.127L252.004 330.745L251.906 336.58L295.039 349.044" fill="#DBAF53"/>
<path d="M295.039 346.467L256.097 327.127L252.004 330.745L251.906 336.58L295.039 349.044" stroke="#FFE5D4" stroke-width="0.25" stroke-miterlimit="10"/>
</g>
<g opacity="0.6">
<path d="M336.917 338.622L333.15 334.002L296.719 349.043L336.501 343.455L336.917 338.622Z" fill="#DBAF53" stroke="#FFE5D4" stroke-width="0.25" stroke-miterlimit="10"/>
<path d="M333.761 328.715L329.798 324.549L295.879 349.043L333.514 334.142L333.761 328.715Z" fill="#DBAF53" stroke="#FFE5D4" stroke-width="0.25" stroke-miterlimit="10"/>
</g>
<g opacity="0.6">
<path d="M292.111 348.609L338.003 364.365L336.416 359.524L335.661 353.77L297.974 350.332" fill="#DBAF53"/>
<path d="M292.111 348.609L338.003 364.365L336.416 359.524L335.661 353.77L297.974 350.332" stroke="#FFE5D4" stroke-width="0.25" stroke-miterlimit="10"/>
</g>
<g opacity="0.6">
<path d="M295.879 349.897L335.661 353.769L337.886 349.203L336.5 343.455L295.879 349.043" fill="#DBAF53"/>
<path d="M295.879 349.897L335.661 353.769L337.886 349.203L336.5 343.455L295.879 349.043" stroke="#FFE5D4" stroke-width="0.25" stroke-miterlimit="10"/>
</g>
<g opacity="0.6">
<path d="M311.931 306.318L306.348 306.505L295.879 348.183L316.401 309.943L311.931 306.318Z" fill="#DBAF53" stroke="#FFE5D4" stroke-width="0.25" stroke-miterlimit="10"/>
<path d="M302.997 303.066H297.135L295.879 348.182L306.348 306.505L302.997 303.066Z" fill="#DBAF53" stroke="#FFE5D4" stroke-width="0.25" stroke-miterlimit="10"/>
</g>
<path opacity="0.6" d="M295.041 349.043L329.8 324.549L327.971 319.208L323.937 315.957L295.041 349.043Z" fill="#DBAF53" stroke="#FFE5D4" stroke-width="0.25" stroke-miterlimit="10"/>
<path opacity="0.6" d="M295.041 349.044L323.937 315.958L320.782 311.839L316.403 309.943L295.041 349.044Z" fill="#DBAF53" stroke="#FFE5D4" stroke-width="0.25" stroke-miterlimit="10"/>
</g>
<path d="M292.952 349.472L303.837 352.91C305.536 350.841 305.51 348.911 305.51 346.034C305.51 339.391 300.07 334.004 293.368 334.004C286.666 334.004 281.227 339.391 281.227 346.034C281.227 347.93 281.682 349.712 282.469 351.308L292.952 349.472Z" fill="#ED1C24"/>
<path d="M408.523 291.037C408.523 292.145 408.348 293.2 408.022 294.181C407.899 294.569 407.749 294.949 407.58 295.31C406.129 298.387 403.155 300.49 399.733 300.49C399.199 300.49 398.672 300.437 398.158 300.337C395.191 299.769 392.744 297.593 391.625 294.682C391.183 293.567 390.936 292.326 390.936 291.037C390.936 287.439 392.803 284.308 395.568 282.712C396.037 282.439 396.531 282.212 397.052 282.031C397.898 281.738 398.796 281.584 399.733 281.584C400.78 281.584 401.776 281.784 402.706 282.145C402.875 282.205 403.038 282.272 403.201 282.352C403.604 282.532 403.988 282.746 404.346 282.999C405.55 283.8 406.558 284.895 407.287 286.204C407.326 286.27 407.365 286.351 407.404 286.424C407.638 286.871 407.84 287.332 407.996 287.826C408.341 288.834 408.523 289.902 408.523 291.037Z" fill="black"/>
<path d="M435.324 285.882C435.324 289.454 434.947 293.88 433.828 297.645C433.769 297.886 433.691 298.119 433.613 298.353C433.314 299.274 432.963 300.149 432.559 300.957C432.188 301.678 431.778 302.339 431.329 302.926L431.18 303.106C431.037 303.1 430.926 303.04 430.802 302.979C430.841 303.14 430.822 303.32 430.744 303.48C429.846 303.413 429.091 303.3 428.518 302.579C427.816 303.26 427.126 303.327 426.209 303.233C426.157 303.053 426.209 302.906 426.235 302.732C426.091 302.819 425.916 302.826 425.747 302.786C425.623 301.911 425.564 301.15 426.059 300.443C425.135 300.236 424.693 299.715 424.244 298.894C424.263 298.874 424.276 298.86 424.296 298.84C423.866 298.987 423.411 298.987 422.864 298.934C422.812 298.754 422.864 298.607 422.89 298.433C422.747 298.52 422.571 298.527 422.402 298.487C422.279 297.612 422.22 296.851 422.714 296.143C421.791 295.936 421.348 295.416 420.899 294.595C421.016 294.448 421.159 294.408 421.309 294.327C421.159 294.247 421.049 294.114 420.99 293.947C421.192 293.747 421.381 293.566 421.582 293.406C421.901 293.159 422.233 292.959 422.63 292.892L407.417 286.43C407.651 286.877 407.853 287.338 408.009 287.832C408.354 288.84 408.536 289.908 408.536 291.043C408.536 292.178 408.361 293.206 408.035 294.187C408.205 294.167 408.367 294.167 408.536 294.167C413.898 294.167 416.898 297.579 419.442 303.767C415.368 301.878 410.892 298.72 407.593 295.309C407.274 294.988 406.975 294.661 406.688 294.341C405.257 292.732 404.118 291.083 403.422 289.494C403.097 288.74 402.863 287.992 402.752 287.271C402.7 286.944 402.674 286.623 402.674 286.316C402.674 286.096 402.68 285.869 402.693 285.649C402.693 285.569 402.7 285.502 402.7 285.428C402.719 285.108 402.752 284.781 402.791 284.474C402.823 284.193 402.869 283.913 402.908 283.639C402.993 283.212 403.084 282.778 403.207 282.358C403.272 282.077 403.364 281.797 403.461 281.53C405.309 276.055 410.267 272.137 416.071 272.137C423.476 272.137 435.338 278.058 435.338 285.882H435.324Z" fill="black"/>
<path d="M432.554 300.95C432.3 300.536 432.04 300.122 431.766 299.715C431.096 298.694 430.368 297.679 429.6 296.698C429.255 296.257 428.904 295.823 428.546 295.402C428.526 295.376 428.513 295.349 428.487 295.336C428.422 295.249 428.35 295.162 428.279 295.089C427.017 293.6 425.657 292.191 424.245 290.89C418.831 285.896 412.572 282.451 407.275 282.451C406.605 282.451 405.941 282.538 405.284 282.712C404.972 282.792 404.666 282.885 404.354 283.005C403.866 283.179 403.384 283.392 402.903 283.639C402.603 283.793 402.311 283.96 402.018 284.147C401.634 284.381 401.256 284.628 400.879 284.901C400.801 284.955 400.729 285.001 400.651 285.061C400.411 285.235 400.176 285.422 399.942 285.609C398.764 286.564 397.606 287.672 396.494 288.873C394.834 290.643 393.253 292.605 391.789 294.475C391.737 294.541 391.679 294.615 391.64 294.681C385.139 303.233 388.458 313.434 390.117 319.396C391.074 322.834 393.052 325.224 395.667 326.886C402.057 330.958 412.259 330.685 420.757 330.591C421.74 330.571 422.69 330.565 423.614 330.565C435.872 330.565 437.011 327.534 437.011 314.235C437.011 310.076 435.293 305.403 432.567 300.95H432.554ZM426.112 305.643C424.284 305.643 421.935 304.936 419.43 303.761C416.886 297.572 413.886 294.161 408.524 294.161C408.355 294.161 408.193 294.161 408.023 294.181C408.349 293.199 408.524 292.145 408.524 291.036C408.524 289.928 408.342 288.827 407.997 287.825C407.841 287.338 407.64 286.871 407.405 286.423L422.618 292.886C422.228 292.952 421.889 293.153 421.57 293.4C421.369 293.56 421.18 293.74 420.978 293.94C421.037 294.101 421.148 294.241 421.297 294.321C421.148 294.401 421.004 294.441 420.887 294.588C421.343 295.402 421.785 295.93 422.703 296.137C422.208 296.851 422.267 297.606 422.39 298.48C422.559 298.52 422.735 298.513 422.878 298.427C422.852 298.6 422.8 298.747 422.852 298.927C423.399 298.981 423.854 298.981 424.284 298.834C424.264 298.854 424.251 298.867 424.232 298.887C424.687 299.702 425.13 300.229 426.047 300.436C425.553 301.15 425.611 301.905 425.735 302.779C425.904 302.819 426.08 302.813 426.223 302.726C426.197 302.9 426.145 303.046 426.197 303.227C427.121 303.32 427.804 303.253 428.507 302.572C429.086 303.293 429.84 303.407 430.732 303.474C430.81 303.32 430.829 303.14 430.79 302.973C430.914 303.033 431.025 303.093 431.168 303.1C429.88 304.675 428.22 305.643 426.112 305.643Z" fill="black"/>
<path d="M424.056 321.258C423.906 324.75 422.637 327.954 420.75 330.591C417.64 334.937 412.845 337.761 408.531 337.761C403.039 337.761 398.23 333.388 395.66 326.893C394.385 323.681 393.656 319.943 393.656 315.964C393.656 309.829 395.381 304.295 398.165 300.342C400.436 297.118 403.39 294.935 406.683 294.347C407.125 294.261 407.568 294.207 408.03 294.194C408.199 294.174 408.361 294.174 408.531 294.174C413.892 294.174 416.892 297.585 419.436 303.774C420.653 306.738 421.765 310.33 422.989 314.489C423.125 314.969 423.275 315.47 423.418 315.964C423.945 317.78 424.14 319.556 424.062 321.265L424.056 321.258Z" fill="#FFDAC2"/>
<path d="M425.994 317.887C426.786 315.406 426.536 313.096 425.436 312.726C424.337 312.357 422.803 314.068 422.012 316.549C421.22 319.03 421.47 321.34 422.569 321.71C423.669 322.079 425.202 320.368 425.994 317.887Z" fill="#FFDAC2"/>
<path d="M431.173 303.1C429.884 304.676 428.225 305.644 426.117 305.644C424.289 305.644 421.94 304.936 419.435 303.761C416.89 297.573 413.891 294.161 408.529 294.161C408.36 294.161 408.197 294.161 408.028 294.181C408.354 293.2 408.529 292.145 408.529 291.037C408.529 289.929 408.347 288.827 408.002 287.826C407.846 287.338 407.644 286.871 407.41 286.424L422.623 292.886C422.232 292.953 421.894 293.153 421.575 293.4C421.374 293.56 421.185 293.741 420.983 293.941C421.042 294.101 421.152 294.241 421.302 294.321C421.152 294.402 421.009 294.442 420.892 294.588C421.348 295.403 421.79 295.93 422.707 296.137C422.213 296.852 422.271 297.606 422.395 298.481C422.564 298.521 422.74 298.514 422.883 298.427C422.857 298.601 422.805 298.748 422.857 298.928C423.404 298.981 423.859 298.981 424.289 298.834C424.269 298.854 424.256 298.868 424.236 298.888C424.692 299.702 425.134 300.23 426.052 300.437C425.557 301.151 425.616 301.905 425.74 302.78C425.909 302.82 426.084 302.813 426.228 302.726C426.202 302.9 426.149 303.047 426.202 303.227C427.125 303.321 427.809 303.254 428.511 302.573C429.091 303.294 429.845 303.407 430.737 303.474C430.815 303.321 430.834 303.14 430.795 302.973C430.919 303.034 431.029 303.094 431.173 303.1Z" fill="black"/>
<path d="M407.404 286.424C407.638 286.872 407.84 287.332 407.996 287.826L406.825 287.346L402.895 285.73L402.68 285.643L401.138 285.009L400.871 284.896L400.605 284.782L400.032 284.548L397.846 283.647L395.568 282.713L391.359 280.983C391.294 280.95 391.189 280.897 391.15 280.77L391.359 280.122C391.391 280.042 391.495 279.648 391.658 279.735L397.052 282.032L401.112 283.747L402.01 284.135L402.778 284.462L407.163 286.318L407.398 286.418L407.404 286.424Z" fill="#F5C153"/>
<path d="M437.27 299.261L437.114 299.642C437.082 299.708 437.004 299.742 436.939 299.722L433.614 298.353L432.208 297.779L430.419 297.038L429.931 296.838L429.605 296.698L427.745 295.93L427.152 295.689L421.576 293.393C421.895 293.146 422.227 292.946 422.624 292.879L427.732 295.042L428.018 295.162L428.174 295.229L428.467 295.356L428.551 295.389L429.417 295.756L433.841 297.632L437.218 299.068C437.283 299.094 437.316 299.181 437.283 299.248L437.27 299.261Z" fill="#F5C153"/>
<path d="M439.015 573.664C433.465 578.411 413.795 594.026 385.413 593.431C368.352 593.071 355.397 587.003 348.559 583.117C361.956 532.42 375.36 481.717 388.757 431.02H432.306C434.538 478.565 436.777 526.118 439.008 573.664H439.015Z" fill="#662D91"/>
<path d="M465.817 506.637C457.846 505.248 444.026 486.302 432.639 486.936C414.96 487.918 400.626 492.377 390.762 496.389C392.161 476.342 393.553 456.287 394.952 436.239C400.834 433.148 411.642 428.442 425.943 427.647C440.31 426.846 451.593 430.365 457.768 432.801C459.167 451.42 464.424 488.018 465.823 506.637H465.817Z" fill="#662D91"/>
<path d="M497.641 580.54C488.499 581.461 476.741 581.728 463.305 579.679C453.935 578.25 445.782 576.007 439.015 573.664C425.891 520.957 406.911 468.258 393.787 415.551L409.702 411.252C423.347 433.556 443.915 462.483 457.442 489.447C473.52 521.505 486.742 552.121 497.641 580.533V580.54Z" fill="url(#paint0_linear_189_4291)"/>
<path d="M406.352 526.405C403.424 525.531 397.952 524.329 391.276 525.544C382.518 527.14 376.811 531.966 374.527 534.136C379.271 496.037 384.021 457.944 388.764 419.844L399.65 415.545C398.257 435.833 398.082 459.286 400.489 485.148C401.869 499.982 403.931 513.768 406.352 526.392V526.405Z" fill="#F7931E"/>
<path d="M457.442 435.318C449.471 433.929 439.516 432.968 428.129 433.602C410.45 434.584 396.116 439.043 386.252 443.055C387.651 423.008 389.043 402.953 390.442 382.905C396.324 379.814 407.132 375.108 421.434 374.313C435.801 373.512 447.083 377.031 453.258 379.467C454.657 398.086 456.049 416.706 457.448 435.325L457.442 435.318Z" fill="#F7931E"/>
<path d="M403.338 281.451C403.507 281.538 403.579 281.671 403.683 281.805C403.722 281.638 403.832 281.498 403.975 281.404C404.789 281.958 405.433 282.479 405.518 283.581C406.409 283.32 407.047 283.561 407.814 284.055C407.775 284.242 407.671 284.355 407.58 284.489C407.749 284.489 407.912 284.549 408.036 284.662C407.749 285.597 407.444 286.365 406.481 286.758C406.52 286.812 406.559 286.872 406.598 286.932C407.203 287.86 407.131 288.601 406.819 289.562C406.63 289.569 406.5 289.489 406.35 289.429C406.396 289.596 406.37 289.769 406.285 289.923C405.394 289.856 404.639 289.743 404.06 289.028C403.357 289.702 402.674 289.776 401.75 289.682C401.698 289.496 401.75 289.349 401.776 289.182C401.627 289.262 401.451 289.275 401.295 289.228C401.165 288.354 401.106 287.6 401.601 286.879C400.683 286.678 400.234 286.151 399.785 285.336C399.902 285.19 400.045 285.143 400.195 285.069C400.045 284.996 399.935 284.856 399.876 284.696C400.572 284.001 401.204 283.474 402.264 283.614C402.258 282.646 402.668 282.079 403.344 281.451H403.338Z" fill="#ED1C24"/>
<path d="M429.131 293.915C428.994 294.356 428.857 294.756 428.656 295.104C428.597 295.19 428.545 295.264 428.487 295.337C428.48 295.357 428.467 295.364 428.461 295.371C428.278 295.604 428.044 295.791 427.738 295.938C427.686 295.971 427.641 295.991 427.582 296.018C427.615 296.072 427.66 296.132 427.699 296.192C428.304 297.12 428.226 297.861 427.914 298.822C427.732 298.829 427.595 298.755 427.445 298.682C427.485 298.842 427.465 299.022 427.387 299.183C426.489 299.116 425.734 299.002 425.162 298.281C424.875 298.555 424.583 298.735 424.283 298.842C423.854 298.989 423.398 298.989 422.852 298.936C422.8 298.755 422.852 298.608 422.878 298.435C422.735 298.522 422.559 298.528 422.39 298.488C422.266 297.614 422.208 296.853 422.702 296.145C421.778 295.938 421.336 295.417 420.887 294.596C421.004 294.449 421.147 294.409 421.297 294.329C421.147 294.249 421.036 294.116 420.978 293.949C421.18 293.748 421.368 293.568 421.57 293.408C421.889 293.161 422.221 292.961 422.618 292.894C422.845 292.84 423.086 292.834 423.366 292.867C423.359 291.999 423.685 291.452 424.244 290.891C424.309 290.831 424.381 290.764 424.446 290.704C424.615 290.798 424.687 290.924 424.791 291.058C424.83 290.898 424.94 290.758 425.084 290.664C425.897 291.225 426.535 291.739 426.626 292.84C427.511 292.58 428.148 292.82 428.923 293.321C428.89 293.508 428.779 293.615 428.688 293.748C428.857 293.748 429.014 293.815 429.144 293.929L429.131 293.915Z" fill="#ED1C24"/>
<path d="M431.765 299.715C431.557 299.955 431.29 300.162 430.926 300.309C430.958 300.363 431.004 300.423 431.043 300.483C431.603 301.351 431.577 302.045 431.316 302.926C431.297 302.986 431.277 303.046 431.258 303.113C431.225 303.113 431.193 303.113 431.167 303.106C431.023 303.1 430.913 303.04 430.789 302.98C430.828 303.14 430.809 303.32 430.731 303.48C429.833 303.413 429.078 303.3 428.505 302.579C427.803 303.26 427.113 303.327 426.196 303.233C426.143 303.053 426.195 302.906 426.222 302.733C426.078 302.819 425.903 302.826 425.734 302.786C425.61 301.911 425.551 301.15 426.046 300.443C425.122 300.236 424.679 299.715 424.23 298.894C424.25 298.874 424.263 298.86 424.283 298.84C424.393 298.74 424.51 298.694 424.64 298.627C424.491 298.547 424.38 298.413 424.322 298.246C425.018 297.559 425.655 297.025 426.71 297.165C426.703 296.557 426.859 296.11 427.145 295.703C427.302 295.482 427.497 295.276 427.725 295.055C427.751 295.035 427.764 295.015 427.79 294.995C427.881 295.049 427.946 295.109 428.004 295.175C428.043 295.229 428.089 295.289 428.128 295.349C428.134 295.316 428.154 295.282 428.161 295.249C428.187 295.195 428.226 295.135 428.271 295.095C428.31 295.042 428.362 295.002 428.421 294.955C428.499 295.008 428.577 295.055 428.649 295.109C428.941 295.322 429.202 295.529 429.403 295.776C429.664 296.057 429.846 296.404 429.924 296.844C429.943 296.931 429.956 297.025 429.963 297.125C430.113 297.085 430.262 297.045 430.405 297.038C431.076 296.958 431.622 297.192 432.253 297.605C432.247 297.672 432.221 297.726 432.195 297.779C432.143 297.872 432.078 297.953 432.019 298.039C432.188 298.039 432.344 298.106 432.474 298.22C432.299 298.807 432.104 299.321 431.765 299.722V299.715Z" fill="white"/>
<path d="M398.471 282.959C398.64 283.046 398.711 283.179 398.815 283.313C398.855 283.146 398.965 283.006 399.108 282.912C399.922 283.466 400.566 283.987 400.65 285.088C401.542 284.828 402.179 285.068 402.947 285.562C402.908 285.749 402.804 285.863 402.713 285.996C402.882 285.996 403.045 286.056 403.168 286.17C402.882 287.105 402.576 287.872 401.613 288.266C401.652 288.32 401.691 288.38 401.73 288.44C402.336 289.368 402.264 290.109 401.952 291.07C401.763 291.077 401.633 290.997 401.483 290.937C401.529 291.103 401.503 291.277 401.418 291.431C400.527 291.364 399.772 291.25 399.193 290.536C398.49 291.21 397.807 291.284 396.883 291.19C396.831 291.003 396.883 290.856 396.909 290.69C396.759 290.77 396.584 290.783 396.428 290.736C396.297 289.862 396.239 289.107 396.733 288.386C395.816 288.186 395.367 287.659 394.918 286.844C395.035 286.697 395.178 286.651 395.328 286.577C395.178 286.504 395.068 286.364 395.009 286.203C395.705 285.509 396.336 284.982 397.397 285.122C397.391 284.154 397.8 283.586 398.477 282.959H398.471Z" fill="white"/>
<path d="M427.464 317.883C427.966 317.693 428.212 317.09 428.013 316.537C427.814 315.983 427.246 315.688 426.744 315.879C426.241 316.069 425.995 316.671 426.194 317.225C426.393 317.778 426.962 318.073 427.464 317.883Z" fill="#CCCFD9"/>
<path d="M427.466 320.461C427.968 320.271 428.214 319.668 428.015 319.115C427.816 318.561 427.248 318.267 426.746 318.457C426.243 318.647 425.997 319.249 426.196 319.803C426.395 320.356 426.964 320.651 427.466 320.461Z" fill="#CCCFD9"/>
<path d="M427.642 323.193C428.144 323.003 428.39 322.401 428.191 321.847C427.992 321.294 427.424 320.999 426.921 321.189C426.419 321.379 426.173 321.982 426.372 322.535C426.571 323.089 427.139 323.384 427.642 323.193Z" fill="#CCCFD9"/>
<path d="M427.638 325.772C428.14 325.582 428.386 324.979 428.187 324.425C427.988 323.872 427.42 323.577 426.917 323.767C426.415 323.957 426.169 324.56 426.368 325.114C426.567 325.667 427.135 325.962 427.638 325.772Z" fill="#CCCFD9"/>
<path d="M427.263 306.752C427.765 306.562 428.011 305.959 427.812 305.406C427.613 304.852 427.045 304.558 426.542 304.748C426.04 304.938 425.794 305.54 425.993 306.094C426.192 306.647 426.76 306.942 427.263 306.752Z" fill="#CCCFD9"/>
<path d="M427.267 309.33C427.769 309.14 428.015 308.537 427.816 307.984C427.617 307.43 427.049 307.136 426.546 307.326C426.044 307.516 425.798 308.119 425.997 308.672C426.196 309.226 426.764 309.52 427.267 309.33Z" fill="#CCCFD9"/>
<path d="M427.441 312.063C427.943 311.873 428.189 311.27 427.99 310.716C427.791 310.163 427.223 309.868 426.72 310.058C426.218 310.248 425.972 310.851 426.171 311.405C426.37 311.958 426.938 312.253 427.441 312.063Z" fill="#CCCFD9"/>
<path d="M427.439 314.641C427.941 314.451 428.187 313.848 427.988 313.294C427.789 312.741 427.221 312.446 426.718 312.636C426.216 312.826 425.97 313.429 426.169 313.983C426.368 314.536 426.936 314.831 427.439 314.641Z" fill="#CCCFD9"/>
<path d="M430.712 317.811C431.214 317.621 431.46 317.018 431.261 316.464C431.063 315.911 430.494 315.616 429.992 315.806C429.489 315.996 429.243 316.599 429.442 317.153C429.641 317.706 430.21 318.001 430.712 317.811Z" fill="#CCCFD9"/>
<path d="M430.712 320.395C431.214 320.205 431.46 319.602 431.261 319.048C431.063 318.495 430.494 318.2 429.992 318.39C429.489 318.58 429.243 319.183 429.442 319.737C429.641 320.29 430.21 320.585 430.712 320.395Z" fill="#CCCFD9"/>
<path d="M430.892 323.125C431.394 322.935 431.64 322.332 431.441 321.779C431.242 321.225 430.674 320.931 430.171 321.121C429.669 321.311 429.423 321.914 429.622 322.467C429.821 323.021 430.389 323.315 430.892 323.125Z" fill="#CCCFD9"/>
<path d="M430.896 325.703C431.398 325.513 431.644 324.91 431.445 324.357C431.246 323.803 430.678 323.509 430.175 323.699C429.673 323.889 429.427 324.492 429.626 325.045C429.825 325.599 430.393 325.893 430.896 325.703Z" fill="#CCCFD9"/>
<path d="M430.515 306.692C431.017 306.501 431.263 305.899 431.064 305.345C430.865 304.792 430.297 304.497 429.794 304.687C429.292 304.877 429.046 305.48 429.245 306.033C429.444 306.587 430.012 306.882 430.515 306.692Z" fill="#CCCFD9"/>
<path d="M430.511 309.264C431.013 309.074 431.259 308.471 431.06 307.917C430.861 307.364 430.293 307.069 429.79 307.259C429.288 307.449 429.042 308.052 429.241 308.606C429.44 309.159 430.008 309.454 430.511 309.264Z" fill="#CCCFD9"/>
<path d="M430.687 311.996C431.189 311.806 431.435 311.203 431.236 310.65C431.037 310.096 430.469 309.802 429.966 309.992C429.464 310.182 429.218 310.785 429.417 311.338C429.616 311.892 430.184 312.186 430.687 311.996Z" fill="#CCCFD9"/>
<path d="M430.689 314.574C431.191 314.384 431.437 313.782 431.238 313.228C431.039 312.675 430.471 312.38 429.968 312.57C429.466 312.76 429.22 313.363 429.419 313.916C429.618 314.47 430.186 314.764 430.689 314.574Z" fill="#CCCFD9"/>
<path d="M147.879 600.658L148.992 604.704C149.623 606.98 150.234 608.322 152.395 609.377C156.578 611.406 165.122 613.436 174.446 610.045C177.927 608.783 178.584 606.914 179.202 604.43L180.094 600.865" fill="#333333"/>
<path d="M163.99 588.075C141.795 588.075 123.739 580.725 123.199 571.572C123.733 591.493 142.498 607.282 164.452 607.282C186.405 607.282 203.941 591.547 204.748 571.866C203.843 580.879 185.943 588.075 163.983 588.075H163.99Z" fill="black" stroke="black" stroke-miterlimit="10"/>
<path d="M163.371 554.936C140.956 554.936 122.769 562.433 122.574 571.712C122.574 571.899 122.574 572.093 122.581 572.28C123.121 581.432 141.17 588.782 163.371 588.782C185.572 588.782 203.231 581.593 204.136 572.573C204.149 572.226 204.162 571.879 204.162 571.532C203.739 562.339 185.644 554.936 163.371 554.936Z" fill="#FF7BAC" stroke="#FBB03B" stroke-miterlimit="10"/>
<path d="M163.975 554.51C141.559 554.51 123.373 561.98 123.178 571.226C123.178 571.413 123.178 571.607 123.184 571.794C123.724 580.913 141.774 588.243 163.975 588.243C186.176 588.243 203.835 581.073 204.739 572.094C204.752 571.747 204.765 571.407 204.765 571.059C204.342 561.893 186.247 554.523 163.975 554.523V554.51Z" stroke="#FBB03B" stroke-width="3" stroke-miterlimit="10"/>
<path d="M1042.96 160.568L1044.07 164.614C1044.7 166.89 1045.32 168.232 1047.48 169.287C1051.66 171.317 1060.2 173.346 1069.53 169.955C1073.01 168.693 1073.67 166.824 1074.28 164.34L1075.18 160.775" fill="#333333"/>
<path d="M1059.08 147.985C1036.88 147.985 1018.83 140.635 1018.29 131.482C1018.82 151.403 1037.59 167.192 1059.54 167.192C1081.49 167.192 1099.03 151.457 1099.84 131.776C1098.93 140.789 1081.03 147.985 1059.07 147.985H1059.08Z" fill="black" stroke="black" stroke-miterlimit="10"/>
<path d="M1058.45 114.846C1036.04 114.846 1017.85 122.343 1017.66 131.622C1017.66 131.809 1017.66 132.003 1017.66 132.19C1018.2 141.342 1036.25 148.693 1058.45 148.693C1080.65 148.693 1098.31 141.503 1099.22 132.483C1099.23 132.136 1099.24 131.789 1099.24 131.442C1098.82 122.249 1080.73 114.846 1058.45 114.846Z" fill="#FF7BAC" stroke="#FBB03B" stroke-miterlimit="10"/>
<path d="M1059.06 114.426C1036.64 114.426 1018.45 121.896 1018.26 131.142C1018.26 131.329 1018.26 131.523 1018.27 131.71C1018.81 140.829 1036.86 148.159 1059.06 148.159C1081.26 148.159 1098.92 140.989 1099.82 132.01C1099.83 131.663 1099.85 131.323 1099.85 130.975C1099.42 121.809 1081.33 114.439 1059.06 114.439V114.426Z" stroke="#FBB03B" stroke-width="3" stroke-miterlimit="10"/>
<path d="M234.158 114.005V130.655C233.448 131.289 232.505 131.817 231.321 132.244C230.136 132.671 228.698 132.885 227.007 132.885C225.315 132.885 223.877 132.497 222.686 131.723C221.346 130.889 220.676 129.7 220.676 128.171V112.917H215.295C214.188 111.288 213.629 109.512 213.629 107.59C213.629 106.281 213.831 105.14 214.228 104.178C214.644 103.197 215.151 102.442 215.75 101.902H239.623C240.072 102.609 240.437 103.471 240.729 104.485C241.022 105.493 241.165 106.501 241.165 107.496C241.165 109.359 240.768 110.734 239.968 111.615C239.168 112.483 238.088 112.917 236.734 112.917H229.967C229.922 113.03 229.896 113.144 229.896 113.271C229.896 113.558 230.058 113.745 230.384 113.838C230.722 113.952 231.444 114.005 232.557 114.005H234.151H234.158ZM270.289 107.349V130.895C268.565 132.224 266.359 132.885 263.665 132.885C261.59 132.885 259.944 132.451 258.727 131.583C257.452 130.702 256.814 129.42 256.814 127.744V123.051H258.454C259.085 123.051 259.475 122.971 259.631 122.817C259.8 122.644 259.885 122.37 259.885 121.99H252.637C252.637 122.37 252.708 122.644 252.845 122.817C252.981 122.978 253.313 123.051 253.84 123.051H255.597V130.889C254.413 131.676 253.287 132.21 252.227 132.477C251.166 132.744 250.079 132.878 248.973 132.878C246.898 132.878 245.251 132.444 244.035 131.576C242.759 130.695 242.122 129.413 242.122 127.738V104.171C242.922 103.304 243.905 102.643 245.076 102.182C246.26 101.708 247.49 101.474 248.772 101.474C250.633 101.474 252.214 101.948 253.502 102.896C254.901 103.971 255.604 105.453 255.604 107.349V111.568H258.538C258.538 111.155 258.46 110.881 258.304 110.741C258.167 110.58 257.933 110.507 257.614 110.507H256.827V104.185C257.627 103.317 258.61 102.656 259.781 102.195C260.965 101.721 262.195 101.488 263.477 101.488C265.338 101.488 266.919 101.962 268.207 102.91C269.606 103.985 270.309 105.467 270.309 107.363L270.289 107.349ZM282.411 101.902H295.731C296.18 102.663 296.505 103.491 296.726 104.392C296.941 105.273 297.051 106.074 297.051 106.782C297.051 108.377 296.746 109.579 296.127 110.38C295.529 111.188 294.683 111.588 293.59 111.588H284.285C283.713 111.588 283.433 111.815 283.433 112.276V112.463C283.433 112.556 283.446 112.623 283.478 112.65H294.514C294.794 113.137 295.028 113.758 295.23 114.499C295.412 115.307 295.509 116.021 295.509 116.655C295.509 118.531 295.171 120 294.494 121.062H289.484C287.142 121.062 285.561 121.155 284.728 121.349C283.895 121.522 283.381 121.669 283.179 121.796C282.977 121.936 282.88 122.116 282.88 122.343C282.88 122.57 282.99 122.737 283.205 122.864C284.005 122.597 284.845 122.403 285.723 122.297C286.875 122.183 288.131 122.13 289.484 122.13H295.971C296.908 123.485 297.377 125.121 297.377 127.03C297.377 128.105 297.247 129.133 296.986 130.107C296.726 131.089 296.329 131.877 295.809 132.477H278.514C276.607 132.477 275.072 132.003 273.92 131.055C272.658 130.047 272.027 128.559 272.027 126.603V104.078C272.027 103.317 272.872 102.77 274.564 102.422C276.256 102.075 278.872 101.902 282.411 101.902ZM321.198 123.839C321.705 123.745 321.959 123.485 321.959 123.058C321.959 122.63 321.822 122.123 321.543 121.589C321.282 121.035 320.885 120.514 320.365 120.027C318.999 118.765 317.144 118.131 314.802 118.131C313.65 118.131 312.57 118.331 311.568 118.725C310.507 118.171 309.661 117.296 309.03 116.095C308.399 114.893 308.08 113.598 308.08 112.209C308.08 108.578 309.557 105.774 312.511 103.798C315.049 102.109 318.185 101.261 321.907 101.261C324.679 101.261 327.008 101.568 328.902 102.182C330.795 102.783 332.344 103.557 333.541 104.505C333.892 105.547 334.075 106.628 334.075 107.75C334.075 108.871 333.931 109.893 333.639 110.807C333.346 111.722 332.923 112.456 332.37 113.01C331.849 112.617 330.899 112.216 329.533 111.802C328.16 111.388 326.917 111.188 325.792 111.188C324.666 111.188 323.911 111.261 323.527 111.402C323.156 111.542 322.974 111.762 322.974 112.062C322.974 112.203 323 112.336 323.046 112.463C323.586 112.323 324.275 112.249 325.121 112.249C328.121 112.249 330.567 112.977 332.461 114.426C334.693 116.161 335.805 118.772 335.805 122.243C335.805 125.307 334.595 127.851 332.181 129.874C329.565 132.037 326.045 133.118 321.634 133.118C319.2 133.118 317.092 132.931 315.309 132.551C313.526 132.19 311.783 131.543 310.091 130.608C308.939 128.886 308.36 127.143 308.36 125.374C308.36 123.605 308.952 122.116 310.136 120.941C311.321 119.773 312.778 119.186 314.502 119.186C316.227 119.186 317.658 119.546 318.751 120.274C319.857 121.002 320.677 122.183 321.198 123.825V123.839ZM356.887 101.474C358.735 101.474 360.336 101.988 361.689 103.017C363.042 104.045 363.719 105.507 363.719 107.396V120.568C363.719 124.58 362.528 127.671 360.14 129.854C357.752 132.017 354.454 133.098 350.237 133.098C346.021 133.098 342.768 132.03 340.425 129.901C338.037 127.771 336.846 124.66 336.846 120.568V103.677C338.662 102.195 340.763 101.448 343.151 101.448C345.149 101.448 346.737 101.995 347.908 103.083C349.079 104.158 349.665 105.794 349.665 107.983V121.796C349.834 121.923 350.029 121.983 350.244 121.983C350.478 121.983 350.634 121.929 350.732 121.816C350.842 121.689 350.894 121.462 350.894 121.128V107.957C350.894 106.962 350.849 106.174 350.758 105.587C350.667 104.999 350.478 104.419 350.205 103.831C352.053 102.249 354.284 101.461 356.9 101.461L356.887 101.474ZM377.852 123.839C378.359 123.745 378.613 123.485 378.613 123.058C378.613 122.63 378.476 122.123 378.197 121.589C377.936 121.035 377.539 120.514 377.019 120.027C375.646 118.765 373.792 118.131 371.456 118.131C370.304 118.131 369.224 118.331 368.222 118.725C367.161 118.171 366.315 117.296 365.684 116.095C365.053 114.893 364.741 113.598 364.741 112.209C364.741 108.578 366.218 105.774 369.172 103.798C371.709 102.109 374.846 101.261 378.567 101.261C381.339 101.261 383.669 101.568 385.562 102.182C387.456 102.783 389.004 103.557 390.201 104.505C390.553 105.547 390.735 106.628 390.735 107.75C390.735 108.871 390.585 109.893 390.299 110.807C390.006 111.722 389.583 112.456 389.03 113.01C388.51 112.617 387.56 112.216 386.193 111.802C384.82 111.388 383.578 111.188 382.452 111.188C381.326 111.188 380.571 111.261 380.188 111.402C379.817 111.542 379.635 111.762 379.635 112.062C379.635 112.203 379.661 112.336 379.706 112.463C380.246 112.323 380.936 112.249 381.782 112.249C384.781 112.249 387.228 112.977 389.121 114.426C391.353 116.161 392.466 118.772 392.466 122.243C392.466 125.307 391.255 127.851 388.842 129.874C386.226 132.037 382.706 133.118 378.288 133.118C375.854 133.118 373.746 132.931 371.963 132.551C370.18 132.19 368.436 131.543 366.745 130.608C365.593 128.886 365.014 127.143 365.014 125.374C365.014 123.605 365.606 122.116 366.79 120.941C367.975 119.773 369.432 119.186 371.156 119.186C372.881 119.186 374.312 119.546 375.405 120.274C376.511 121.002 377.331 122.183 377.852 123.825V123.839ZM421.831 107.349V130.895C420.106 132.224 417.9 132.885 415.207 132.885C413.131 132.885 411.485 132.451 410.268 131.583C408.993 130.702 408.355 129.42 408.355 127.744V123.051H409.995C410.626 123.051 411.016 122.971 411.173 122.817C411.342 122.644 411.426 122.37 411.426 121.99H404.178C404.178 122.37 404.249 122.644 404.386 122.817C404.523 122.978 404.855 123.051 405.382 123.051H407.138V130.889C405.954 131.676 404.828 132.21 403.768 132.477C402.707 132.744 401.621 132.878 400.515 132.878C398.439 132.878 396.793 132.444 395.576 131.576C394.301 130.695 393.663 129.413 393.663 127.738V104.171C394.463 103.304 395.446 102.643 396.617 102.182C397.801 101.708 399.031 101.474 400.313 101.474C402.174 101.474 403.755 101.948 405.043 102.896C406.442 103.971 407.145 105.453 407.145 107.349V111.568H410.079C410.079 111.155 410.001 110.881 409.852 110.741C409.715 110.58 409.481 110.507 409.162 110.507H408.375V104.185C409.175 103.317 410.157 102.656 411.329 102.195C412.513 101.721 413.743 101.488 415.025 101.488C416.885 101.488 418.467 101.962 419.755 102.91C421.154 103.985 421.857 105.467 421.857 107.363L421.831 107.349ZM437.043 106.188V130.655C436.334 131.289 435.391 131.817 434.206 132.244C433.022 132.671 431.584 132.885 429.886 132.885C428.188 132.885 426.756 132.497 425.565 131.723C424.225 130.889 423.555 129.7 423.555 128.171V103.704C424.264 103.07 425.208 102.543 426.392 102.115C427.576 101.688 429.007 101.474 430.686 101.474C432.365 101.474 433.816 101.855 435.052 102.609C436.373 103.477 437.037 104.672 437.037 106.188H437.043ZM464.84 112.723H478.53C479.408 114.032 479.844 115.627 479.844 117.51C479.844 119.393 479.467 120.888 478.712 122.056H477.769V129.159C474.737 131.857 470.735 133.212 465.764 133.212C462.732 133.212 460.038 132.658 457.683 131.556C455.112 130.375 453.121 128.645 451.703 126.369C450.148 123.872 449.373 120.808 449.373 117.176C449.373 112.009 450.883 108.017 453.896 105.193C456.759 102.496 460.637 101.141 465.53 101.141C467.944 101.141 470.221 101.514 472.362 102.256C474.515 102.997 476.22 103.924 477.463 105.026C477.463 105.974 477.346 107.136 477.118 108.511C476.903 109.886 476.624 110.934 476.285 111.662H464.118C463.623 112.196 463.155 112.97 462.712 113.985C462.283 114.993 462.068 116.155 462.068 117.47C462.068 119.272 462.504 120.681 463.382 121.709C464.15 122.644 465.139 123.104 466.336 123.104C466.831 123.104 467.078 122.931 467.078 122.584V122.036H466.824C465.809 122.036 464.963 121.636 464.287 120.828C463.623 120.007 463.291 118.839 463.291 117.323C463.291 115.427 463.805 113.898 464.84 112.73V112.723ZM494.276 116.896C494.4 117.023 494.595 117.083 494.855 117.083C495.116 117.083 495.337 117.029 495.526 116.916C495.122 114.513 494.855 113.097 494.719 112.65C494.549 112.189 494.296 111.962 493.957 111.962C493.801 111.962 493.619 112.009 493.404 112.102L494.283 116.889L494.276 116.896ZM489.708 123.999C489.552 124.219 489.474 124.426 489.474 124.613C489.474 125.074 489.891 125.461 490.724 125.775C491.569 126.075 492.591 126.262 493.795 126.342C493.996 128.619 494.211 129.914 494.439 130.228C494.146 130.815 493.339 131.403 492.012 132.003C490.691 132.591 489.194 132.878 487.535 132.878C485.336 132.878 483.449 132.397 481.881 131.436C480.313 130.455 479.525 129.2 479.525 127.671C479.525 127.257 479.565 126.896 479.643 126.583L484.562 104.031C485.791 103.224 487.262 102.596 488.973 102.135C490.685 101.675 492.461 101.448 494.309 101.448C496.957 101.448 499.221 101.908 501.095 102.823C503.236 103.864 504.537 105.373 504.999 107.349L510.263 129.687C508.663 131.816 506.053 132.885 502.436 132.885C500.679 132.885 499.195 132.564 497.979 131.917C496.762 131.269 496.053 130.348 495.857 129.146L495.35 126.255C496.274 126.242 497.165 126.055 498.031 125.708C498.896 125.361 499.325 125 499.325 124.62C499.325 124.366 499.228 124.159 499.026 124.006C498.441 124.433 497.725 124.753 496.879 124.974C496.033 125.194 495.246 125.307 494.523 125.307C492.448 125.307 490.847 124.874 489.722 124.006L489.708 123.999ZM536.967 132.885C534.859 132.885 533.206 132.531 532.002 131.817C530.707 131.075 530.011 130.027 529.9 128.665L529.692 126.436C531.111 126.089 532.301 125.187 533.271 123.739C533.531 123.325 533.661 122.971 533.661 122.67C533.661 122.257 533.46 122.056 533.063 122.056H532.991C532.991 122.056 532.946 122.083 532.9 122.083C531.82 124.406 530.076 125.568 527.662 125.568C526.432 125.568 525.378 125.294 524.5 124.74C523.641 124.186 522.847 123.231 522.125 121.876H521.988C521.572 121.876 521.364 122.056 521.364 122.423C521.364 122.677 521.455 122.958 521.643 123.278C522.262 124.333 523.029 125.167 523.953 125.768C524.676 126.275 525.437 126.576 526.237 126.669L526.055 131.149C525.131 131.763 524.155 132.204 523.12 132.477C522.105 132.764 520.648 132.905 518.754 132.905C516.861 132.905 515.202 132.524 513.725 131.77C511.909 130.835 510.998 129.54 510.998 127.884C510.998 125.815 511.402 120.708 512.202 112.556C512.632 108.311 512.976 105.34 513.243 103.651C514.831 102.195 517.167 101.474 520.264 101.474C522.509 101.474 524.376 101.902 525.853 102.756L527.122 107.116L526.315 110.6C526.257 110.834 526.224 111.068 526.224 111.288C526.224 111.842 526.53 112.123 527.148 112.143L529.341 102.783C529.972 102.436 530.798 102.135 531.813 101.882C532.828 101.615 533.935 101.481 535.138 101.481C537.383 101.481 539.049 101.875 540.122 102.663C541.216 103.437 541.86 104.746 542.061 106.595C542.107 106.942 542.179 107.516 542.27 108.324C543.669 120.674 544.371 127.944 544.371 130.141C542.66 131.99 540.201 132.911 536.986 132.911L536.967 132.885ZM555.895 101.902H569.214C569.663 102.663 569.988 103.491 570.21 104.392C570.424 105.273 570.535 106.074 570.535 106.782C570.535 108.377 570.229 109.579 569.611 110.38C569.012 111.188 568.166 111.588 567.073 111.588H557.769C557.203 111.588 556.916 111.815 556.916 112.276V112.463C556.916 112.556 556.929 112.623 556.962 112.65H567.997C568.277 113.137 568.511 113.758 568.713 114.499C568.895 115.307 568.993 116.021 568.993 116.655C568.993 118.531 568.654 120 567.978 121.062H562.968C560.625 121.062 559.044 121.155 558.211 121.349C557.378 121.522 556.864 121.669 556.663 121.796C556.461 121.936 556.363 122.116 556.363 122.343C556.363 122.57 556.474 122.737 556.689 122.864C557.489 122.597 558.328 122.403 559.207 122.297C560.358 122.183 561.614 122.13 562.968 122.13H569.455C570.392 123.485 570.86 125.121 570.86 127.03C570.86 128.105 570.73 129.133 570.47 130.107C570.21 131.089 569.819 131.877 569.292 132.477H551.997C550.091 132.477 548.555 132.003 547.403 131.055C546.141 130.047 545.51 128.559 545.51 126.603V104.078C545.51 103.317 546.356 102.77 548.048 102.422C549.739 102.075 552.355 101.902 555.895 101.902Z" fill="white"/>
<path d="M732.747 613.331C732.903 613.331 733.04 613.291 733.164 613.211V611.054C734.211 610.327 735.675 609.739 737.549 609.279C739.443 608.818 741.284 608.591 743.067 608.591C743.88 609.446 744.557 610.721 745.097 612.43C745.65 614.119 745.943 615.654 745.975 617.023C745.669 617.657 745.142 618.331 744.407 619.059C743.685 619.787 742.807 620.454 741.778 621.075C739.221 622.624 736.293 623.398 732.981 623.398C728.238 623.398 724.51 621.983 721.783 619.159C718.966 616.302 717.561 612.343 717.561 607.289C717.561 602.236 719.103 598.243 722.18 595.353C723.534 594.058 725.115 593.09 726.911 592.442C728.713 591.781 730.606 591.447 732.591 591.447C736.469 591.447 739.651 592.409 742.123 594.338C744.602 596.267 745.839 598.644 745.839 601.468C745.839 603.597 745.201 605.18 743.926 606.208C742.65 607.216 740.92 607.723 738.733 607.723C737.53 607.723 736.326 607.423 735.109 606.822C733.892 606.208 733.17 605.627 732.936 605.093C732.936 603.798 732.962 602.776 733.007 602.035C732.975 602.022 732.923 602.009 732.845 602.009H732.682C732.454 602.009 732.266 602.082 732.129 602.222C732.005 602.349 731.888 602.623 731.784 603.05C731.693 603.477 731.648 604.639 731.648 606.535C731.648 611.068 732.018 613.331 732.754 613.331H732.747ZM762.457 606.415C762.457 604.832 762.385 603.751 762.249 603.17C762.112 602.569 761.858 602.269 761.487 602.269C761.26 602.269 761.051 602.349 760.863 602.509C760.895 602.796 760.941 603.17 760.999 603.644C761.058 604.118 761.09 605.126 761.09 606.675V608.217C761.09 609.292 761.064 610.073 761.019 610.56C760.973 611.048 760.934 611.468 760.902 611.816C760.889 612.002 760.869 612.196 760.856 612.383C761.038 612.543 761.247 612.617 761.481 612.617C761.852 612.617 762.105 612.323 762.242 611.742C762.379 611.141 762.45 610.053 762.45 608.471V606.408L762.457 606.415ZM761.533 623.518C758.794 623.518 756.275 622.944 753.985 621.789C751.708 620.621 749.866 618.845 748.467 616.462C747.068 614.059 746.366 611.068 746.366 607.483C746.366 602.289 747.888 598.23 750.94 595.306C753.647 592.729 757.134 591.447 761.396 591.447C766.029 591.447 769.692 592.923 772.386 595.88C775.093 598.817 776.446 602.69 776.446 607.489C776.446 612.83 775.002 616.903 772.106 619.713C769.478 622.257 765.951 623.525 761.533 623.525V623.518ZM790.624 606.862C790.683 606.909 790.865 606.935 791.158 606.935C791.451 606.935 791.672 606.815 791.828 606.582C791.984 606.348 792.062 605.961 792.062 605.42V603.617C792.062 603.05 791.991 602.643 791.854 602.409C791.73 602.155 791.516 602.029 791.21 602.029C790.904 602.029 790.715 602.062 790.611 602.122C790.624 602.202 790.637 602.336 790.637 602.523V606.855L790.624 606.862ZM791.203 617.57V621.195C790.527 621.776 789.57 622.263 788.34 622.637C787.111 622.998 785.822 623.185 784.482 623.185C782.576 623.185 781.014 622.804 779.797 622.05C778.411 621.182 777.722 619.927 777.722 618.284V595.78C777.722 595.273 778.053 594.772 778.717 594.264C779.394 593.757 780.324 593.303 781.508 592.889C784.046 592.008 786.948 591.561 790.214 591.561C794.724 591.561 798.315 592.716 800.996 595.019C803.677 597.322 805.011 600.426 805.011 604.325C805.011 608.224 803.8 611.235 801.386 613.398C799.064 615.454 795.836 616.475 791.711 616.475C790.774 616.475 789.765 616.362 788.685 616.142C787.625 615.901 786.909 615.701 786.538 615.527C786.415 615.654 786.356 615.828 786.356 616.048C786.356 616.856 787.97 617.357 791.203 617.563V617.57ZM816.417 592.202H829.736C830.185 592.963 830.51 593.791 830.732 594.692C830.946 595.573 831.057 596.374 831.057 597.082C831.057 598.677 830.751 599.879 830.133 600.68C829.535 601.488 828.689 601.888 827.595 601.888H818.291C817.718 601.888 817.439 602.115 817.439 602.576V602.763C817.439 602.856 817.452 602.923 817.484 602.95H828.519C828.799 603.437 829.033 604.058 829.235 604.799C829.417 605.607 829.515 606.321 829.515 606.955C829.515 608.831 829.177 610.3 828.5 611.362H823.49C821.147 611.362 819.566 611.455 818.733 611.649C817.9 611.822 817.386 611.976 817.185 612.096C816.983 612.236 816.885 612.423 816.885 612.643C816.885 612.864 816.996 613.037 817.211 613.164C818.011 612.897 818.85 612.703 819.729 612.597C820.881 612.483 822.136 612.43 823.49 612.43H829.977C830.914 613.785 831.382 615.421 831.382 617.33C831.382 618.405 831.252 619.433 830.992 620.407C830.732 621.389 830.341 622.177 829.814 622.777H812.519C810.613 622.777 809.077 622.303 807.926 621.355C806.663 620.347 806.032 618.859 806.032 616.903V594.378C806.032 593.617 806.878 593.069 808.57 592.722C810.262 592.375 812.877 592.202 816.417 592.202ZM832.528 618.378V594.645C832.528 593.824 833.165 593.143 834.447 592.609C835.742 592.055 837.258 591.781 838.995 591.781C839.978 591.781 840.902 591.908 841.767 592.162C842.645 592.402 843.316 592.709 843.778 593.083C844.409 593.904 844.988 594.739 845.508 595.593C846.029 596.448 847.207 598.437 849.042 601.561C849.211 601.561 849.367 601.508 849.504 601.394C849.64 601.281 849.712 601.121 849.712 600.894C849.712 600.66 849.517 600.206 849.133 599.545L846.641 595.139V593.837C847.428 593.176 848.378 592.662 849.504 592.295C850.629 591.928 851.787 591.748 852.991 591.748C854.943 591.748 856.524 592.108 857.722 592.836C859.12 593.704 859.823 595.066 859.823 596.908V619.339C859.823 620.694 859.192 621.683 857.93 622.303C856.85 622.857 855.412 623.131 853.616 623.131C852.614 623.131 851.638 623.018 850.681 622.797C849.744 622.577 849.003 622.29 848.462 621.943C847.369 620.508 846.283 618.892 845.209 617.11L842.854 613.084C842.405 613.151 842.183 613.391 842.183 613.818C842.183 614.085 842.405 614.599 842.854 615.36L845.743 620.147V621.402C843.96 622.584 841.943 623.178 839.691 623.178C837.44 623.178 835.703 622.757 834.428 621.923C833.165 621.088 832.534 619.9 832.534 618.371L832.528 618.378ZM889.715 597.649V621.195C887.991 622.524 885.785 623.185 883.091 623.185C881.016 623.185 879.369 622.751 878.153 621.883C876.877 620.995 876.24 619.72 876.24 618.044V613.351H877.879C878.51 613.351 878.901 613.271 879.057 613.117C879.226 612.944 879.311 612.67 879.311 612.289H872.062C872.062 612.67 872.134 612.944 872.27 613.117C872.407 613.278 872.739 613.351 873.266 613.351H875.023V621.189C873.839 621.976 872.713 622.504 871.652 622.777C870.592 623.044 869.505 623.178 868.399 623.178C866.323 623.178 864.671 622.744 863.46 621.876C862.185 620.988 861.547 619.713 861.547 618.037V594.465C862.348 593.597 863.33 592.936 864.502 592.475C865.686 592.001 866.916 591.768 868.197 591.768C870.058 591.768 871.639 592.242 872.928 593.19C874.327 594.264 875.029 595.747 875.029 597.643V601.862H877.964C877.964 601.454 877.886 601.174 877.736 601.034C877.6 600.874 877.365 600.794 877.046 600.794H876.259V594.471C877.059 593.604 878.042 592.943 879.213 592.482C880.397 592.008 881.627 591.774 882.909 591.774C884.77 591.774 886.351 592.248 887.639 593.196C889.038 594.271 889.741 595.753 889.741 597.649H889.715ZM905.552 607.196C905.676 607.323 905.871 607.383 906.131 607.383C906.392 607.383 906.613 607.329 906.802 607.216C906.398 604.812 906.131 603.397 905.995 602.95C905.826 602.489 905.572 602.262 905.234 602.262C905.077 602.262 904.895 602.309 904.68 602.402L905.559 607.189L905.552 607.196ZM900.985 614.299C900.828 614.519 900.75 614.726 900.75 614.913C900.75 615.374 901.167 615.761 902 616.075C902.846 616.375 903.867 616.562 905.071 616.642C905.273 618.919 905.487 620.214 905.715 620.528C905.422 621.115 904.615 621.703 903.288 622.303C901.967 622.884 900.471 623.178 898.811 623.178C896.612 623.178 894.725 622.697 893.157 621.736C891.589 620.755 890.802 619.499 890.802 617.971C890.802 617.563 890.841 617.196 890.919 616.883L895.838 594.331C897.068 593.523 898.538 592.896 900.249 592.435C901.961 591.975 903.737 591.748 905.585 591.748C908.233 591.748 910.497 592.208 912.371 593.123C914.512 594.164 915.813 595.673 916.275 597.649L921.539 619.987C919.939 622.116 917.329 623.185 913.712 623.185C911.955 623.185 910.471 622.858 909.255 622.217C908.038 621.569 907.329 620.648 907.133 619.446L906.626 616.555C907.55 616.542 908.441 616.355 909.307 616.008C910.172 615.661 910.602 615.3 910.602 614.92C910.602 614.666 910.504 614.459 910.302 614.306C909.717 614.733 909.001 615.053 908.155 615.274C907.309 615.494 906.522 615.607 905.8 615.607C903.724 615.607 902.123 615.174 900.998 614.306L900.985 614.299ZM936.238 603.03H949.928C950.807 604.338 951.242 605.934 951.242 607.817C951.242 609.699 950.865 611.195 950.11 612.363H949.16V619.466C946.128 622.163 942.127 623.518 937.155 623.518C934.123 623.518 931.43 622.964 929.074 621.863C926.504 620.681 924.513 618.952 923.094 616.676C921.539 614.179 920.765 611.115 920.765 607.483C920.765 602.316 922.275 598.323 925.294 595.5C928.157 592.802 932.035 591.447 936.928 591.447C939.342 591.447 941.619 591.821 943.76 592.562C945.913 593.303 947.618 594.231 948.861 595.333C948.861 596.281 948.744 597.442 948.516 598.817C948.301 600.193 948.022 601.241 947.683 601.969H935.516C935.021 602.503 934.553 603.277 934.11 604.292C933.681 605.3 933.466 606.461 933.466 607.777C933.466 609.579 933.902 610.988 934.78 612.016C935.548 612.95 936.537 613.411 937.735 613.411C938.229 613.411 938.476 613.237 938.476 612.89V612.343H938.223C937.208 612.343 936.362 611.942 935.685 611.135C935.021 610.313 934.689 609.145 934.689 607.63C934.689 605.734 935.203 604.205 936.238 603.037V603.03ZM962.551 592.202H975.87C976.319 592.963 976.645 593.791 976.866 594.692C977.081 595.573 977.191 596.374 977.191 597.082C977.191 598.677 976.885 599.879 976.267 600.68C975.669 601.488 974.823 601.888 973.73 601.888H964.425C963.852 601.888 963.573 602.115 963.573 602.576V602.763C963.573 602.856 963.586 602.923 963.618 602.95H974.654C974.933 603.437 975.168 604.058 975.369 604.799C975.552 605.607 975.649 606.321 975.649 606.955C975.649 608.831 975.311 610.3 974.634 611.362H969.624C967.281 611.362 965.7 611.455 964.868 611.649C964.035 611.822 963.521 611.976 963.319 612.096C963.117 612.236 963.02 612.423 963.02 612.643C963.02 612.864 963.13 613.037 963.345 613.164C964.145 612.897 964.985 612.703 965.863 612.597C967.015 612.483 968.27 612.43 969.624 612.43H976.111C977.048 613.785 977.517 615.421 977.517 617.33C977.517 618.405 977.386 619.433 977.126 620.407C976.866 621.389 976.469 622.177 975.948 622.777H958.654C956.747 622.777 955.212 622.303 954.06 621.355C952.798 620.347 952.166 618.859 952.166 616.903V594.378C952.166 593.617 953.012 593.069 954.704 592.722C956.396 592.375 959.011 592.202 962.551 592.202ZM978.668 618.378V594.645C978.668 593.824 979.306 593.143 980.581 592.609C981.876 592.055 983.392 591.781 985.129 591.781C986.112 591.781 987.036 591.908 987.901 592.162C988.78 592.402 989.45 592.709 989.912 593.083C990.543 593.904 991.122 594.739 991.643 595.593C992.163 596.448 993.341 598.437 995.176 601.561C995.345 601.561 995.501 601.508 995.638 601.394C995.774 601.281 995.846 601.121 995.846 600.894C995.846 600.66 995.651 600.206 995.267 599.545L992.775 595.139V593.837C993.562 593.176 994.512 592.662 995.638 592.295C996.763 591.928 997.922 591.748 999.125 591.748C1001.08 591.748 1002.66 592.108 1003.86 592.836C1005.25 593.704 1005.96 595.066 1005.96 596.908V619.339C1005.96 620.694 1005.33 621.683 1004.06 622.303C1002.98 622.857 1001.55 623.131 999.743 623.131C998.741 623.131 997.765 623.018 996.809 622.797C995.872 622.577 995.13 622.29 994.59 621.943C993.497 620.508 992.41 618.892 991.337 617.11L988.981 613.084C988.532 613.151 988.311 613.391 988.311 613.818C988.311 614.085 988.532 614.599 988.981 615.36L991.87 620.147V621.402C990.088 622.584 988.07 623.178 985.819 623.178C983.568 623.178 981.83 622.757 980.555 621.923C979.293 621.088 978.662 619.9 978.662 618.371L978.668 618.378Z" fill="white"/>
<path d="M540.916 289.783C540.916 289.89 540.89 289.99 540.857 290.083L540.916 289.783Z" fill="#F0EBD3"/>
<path d="M754.785 363.324C754.765 362.369 754.739 361.415 754.7 360.46C754.681 360.013 754.661 359.565 754.642 359.125C753.972 344.972 751.349 331.353 747.055 318.522C746.931 318.502 746.808 318.475 746.684 318.455C746.625 318.442 746.56 318.435 746.502 318.422C746.131 318.355 745.754 318.295 745.37 318.235C744.589 318.115 743.788 317.994 742.975 317.861C742.806 317.834 742.637 317.801 742.461 317.774C742.084 317.707 741.706 317.641 741.329 317.567C741.114 317.527 740.906 317.487 740.691 317.44C740.32 317.36 739.956 317.287 739.585 317.193C739.377 317.147 739.175 317.093 738.967 317.04C738.707 316.973 738.44 316.9 738.18 316.826C737.919 316.753 737.653 316.673 737.392 316.586C734.146 308.802 732.629 305.177 722.7 306.806C719.284 307.366 716.447 310.604 713.565 312.1C713.962 299.469 704.111 294.582 694.702 294.582C682.97 294.582 673.458 304.342 673.458 316.379C673.458 318.362 673.718 320.284 674.206 322.114C672.15 321.439 666.593 320.251 664.329 320.251C653.209 320.251 648.973 330.278 648.049 341.44C646.793 341.207 644.002 340.626 642.687 340.626C635.328 340.626 628.847 344.465 625.035 350.299L624.28 349.739C619.523 346.888 613.635 346.834 608.859 349.652C605.449 351.661 601.662 354.579 597.791 357.716C595.266 352.496 589.651 348.784 583.125 348.784C576.599 348.784 570.411 353.537 567.834 358.564C567.242 350.853 561.041 343.49 552.543 343.49C551.919 343.49 551.359 343.43 550.754 343.49C550.78 343.123 550.754 342.849 550.754 342.468C550.754 334.257 543.551 327.594 534.669 327.594C529.679 327.594 527.492 330.412 524.545 333.703C523.92 333.636 521.012 332.888 520.374 332.888C511.707 332.888 504.647 339.231 504.309 347.162C503.092 346.895 501.824 346.741 500.522 346.741C491.641 346.741 484.438 353.404 484.438 361.615C484.438 362.396 484.503 363.157 484.626 363.898C484.236 363.871 483.846 363.851 483.449 363.851C476.434 363.851 470.474 368.011 468.268 373.799C468.112 373.885 467.963 373.972 467.813 374.059C467.754 374.092 467.696 374.132 467.637 374.166C467.598 374.192 467.559 374.212 467.52 374.239C467.52 374.239 467.52 374.239 467.514 374.239C467.735 378.605 468.138 382.931 468.724 387.19C469.342 391.723 470.669 396.31 471.684 400.689L472.081 401.096C472.231 401.096 471.528 401.096 471.684 401.096C472.758 405.709 474.164 409.695 475.654 414.135C475.706 414.295 475.992 414.789 476.05 414.949C476.298 415.697 476.577 416.658 476.844 417.392C476.87 417.466 476.415 417.319 476.447 417.392C481.939 432.694 492.024 446.92 501.863 459.357L722.759 459.311C732.512 446.98 740.359 433.001 745.845 417.853C745.923 417.653 745.994 417.452 746.066 417.252C746.385 416.351 746.704 415.45 747.003 414.542C747.061 414.388 747.107 414.235 747.159 414.074C748.441 410.229 749.566 406.304 750.536 402.318C751.2 399.594 751.792 396.844 752.299 394.073C752.436 393.352 752.56 392.631 752.683 391.904C753.835 385.114 754.531 378.165 754.746 371.088C754.759 370.627 754.772 370.167 754.778 369.706C754.804 368.625 754.811 367.543 754.811 366.462C754.811 365.38 754.798 364.365 754.778 363.317L754.785 363.324Z" fill="#F0EBD3"/>
<path d="M747.003 414.543C746.704 415.451 746.385 416.352 746.066 417.253C746.001 417.454 745.923 417.654 745.845 417.854C743.548 424.203 740.835 430.345 737.738 436.24C733.45 444.424 728.42 452.148 722.753 459.312H721.152C712.264 469.946 701.866 479.273 690.291 486.963C688.846 487.925 687.382 488.859 685.905 489.767C664.251 503.059 638.829 510.756 611.618 510.863C588.819 510.83 567.268 505.462 548.126 495.929C548.113 495.929 548.1 495.916 548.093 495.916L548.08 495.909C547.768 495.756 547.456 495.602 547.15 495.435C546.759 495.328 546.206 495.115 546.258 495.108L546.427 495.068C541.489 492.531 536.726 489.721 532.145 486.636C532.132 486.636 532.113 486.623 532.1 486.61C520.746 478.992 510.53 469.786 501.778 459.318C501.238 458.678 500.705 458.03 500.178 457.369C490.34 445.192 482.441 431.386 476.949 416.399C476.916 416.332 476.89 416.259 476.871 416.192C476.669 415.644 476.474 415.097 476.285 414.543H747.016H747.003Z" fill="#313638"/>
<path d="M747.05 318.522C746.867 318.489 746.679 318.455 746.496 318.422C746.126 318.355 745.748 318.295 745.364 318.235C744.584 318.115 743.783 317.994 742.97 317.861C742.801 317.834 742.632 317.801 742.456 317.774C742.078 317.707 741.701 317.641 741.324 317.567C741.109 317.527 740.901 317.487 740.686 317.44C740.315 317.36 739.951 317.287 739.58 317.193C739.378 317.147 739.17 317.093 738.962 317.04C738.701 316.973 738.435 316.9 738.174 316.826C737.914 316.753 737.647 316.673 737.387 316.586C734.14 308.802 732.624 305.177 722.695 306.806C719.279 307.366 716.442 310.604 713.56 312.1C713.956 299.469 704.105 294.582 694.697 294.582C682.965 294.582 673.452 304.342 673.452 316.379C673.452 318.362 673.712 320.284 674.2 322.114C672.144 321.439 666.588 320.251 664.323 320.251C653.203 320.251 648.967 330.278 648.043 341.44C646.788 341.207 643.996 340.626 642.682 340.626C635.323 340.626 628.842 344.465 625.029 350.299C624.736 350.747 624.463 351.201 624.203 351.668C622.433 354.852 621.431 358.531 621.438 362.463C621.438 366.335 622.459 369.987 624.222 373.151C627.866 379.687 634.705 384.153 642.493 384.22C646.898 384.26 650.991 382.918 654.4 380.608C657.94 387.598 665.052 392.371 673.263 392.371C678.723 392.371 683.7 390.255 687.461 386.783C687.611 386.643 687.754 386.503 687.897 386.369C687.975 386.623 688.053 386.877 688.144 387.13C688.593 388.466 689.166 389.741 689.849 390.936C693.532 397.405 700.37 401.751 708.205 401.751C711.328 401.751 714.282 401.056 716.956 399.815C717.294 401.23 717.763 402.592 718.355 403.88C720.522 408.614 724.302 412.419 728.967 414.548C731.603 415.75 734.518 416.418 737.589 416.418C740.66 416.418 743.568 415.75 746.204 414.548C746.522 414.402 746.848 414.248 747.16 414.081C748.442 410.236 749.568 406.31 750.537 402.325C751.201 399.601 751.793 396.851 752.3 394.08C752.437 393.359 752.561 392.638 752.684 391.91C754.083 383.646 754.819 375.147 754.819 366.468C754.819 349.685 752.086 333.556 747.05 318.529V318.522ZM719.077 359.833C719.175 360.373 719.285 360.914 719.416 361.441C719.149 361.268 718.869 361.101 718.589 360.941C718.758 360.574 718.921 360.206 719.071 359.833H719.077Z" fill="#D0CFCB"/>
<path d="M599.203 363.858C599.203 366.154 598.637 368.311 597.635 370.227C595.045 375.173 589.521 378.525 583.118 378.525C581.368 378.525 579.689 378.264 578.121 377.79C578.141 378.097 578.154 378.411 578.154 378.725C578.154 386.936 570.951 393.599 562.069 393.599C559.499 393.599 557.072 393.038 554.918 392.057C553.591 394.44 551.587 396.443 549.14 397.865C548.334 398.332 547.475 398.739 546.577 399.067C546.531 399.08 546.486 399.1 546.44 399.12C544.638 399.767 542.673 400.121 540.623 400.121C537.506 400.121 534.598 399.3 532.132 397.878C532.08 397.852 532.034 397.825 531.982 397.798C531.924 397.845 531.859 397.892 531.8 397.938C531.338 398.292 530.856 398.626 530.355 398.926C528.351 400.141 526.042 400.949 523.556 401.23C522.899 401.31 522.235 401.35 521.552 401.35C517.804 401.35 514.362 400.161 511.629 398.185C509.534 399.287 507.14 399.968 504.595 400.101C504.296 400.115 503.99 400.128 503.678 400.128H503.606C502.032 400.121 500.516 399.908 499.084 399.514C498.713 399.414 495.74 398.245 494.725 397.618C494.738 397.845 494.744 398.072 494.744 398.299C494.744 398.86 494.705 399.427 494.627 399.994C493.794 406.33 488.407 412.579 481.893 414.561C480.521 414.982 479.102 415.209 477.664 415.209C476.831 415.209 476.792 415.075 476.031 414.969C475.972 414.808 475.686 414.314 475.634 414.154C474.17 409.801 472.771 405.762 471.711 401.236C471.678 401.109 471.782 400.996 471.906 401.009C472.504 401.083 473.435 401.23 472.459 401.116H472.062C471.047 396.737 469.329 391.743 468.704 387.217C468.119 382.951 467.709 378.625 467.494 374.259C467.533 374.232 467.579 374.205 467.618 374.179C467.676 374.145 467.735 374.112 467.793 374.072C467.943 373.985 468.093 373.898 468.249 373.812C470.448 368.023 476.408 363.864 483.429 363.864C483.826 363.864 484.216 363.884 484.607 363.911C484.483 363.163 484.418 362.402 484.418 361.628C484.418 353.417 491.615 346.754 500.503 346.754C501.804 346.754 503.073 346.908 504.29 347.175C504.628 339.244 511.694 332.901 520.355 332.901C520.992 332.901 523.901 333.649 524.525 333.716C527.473 330.418 529.659 327.607 534.65 327.607C543.532 327.607 550.734 334.27 550.734 342.481C550.734 342.862 550.76 343.136 550.734 343.503C551.333 343.443 551.899 343.503 552.524 343.503C561.015 343.503 567.222 350.866 567.815 358.577C570.391 353.55 576.683 348.797 583.105 348.797C589.527 348.797 595.253 352.509 597.771 357.729C598.123 358.457 598.409 359.211 598.63 359.992C598.995 361.234 599.183 362.536 599.183 363.871L599.203 363.858Z" fill="#D0CFCB"/>
<path d="M750.537 402.326C749.568 406.312 748.442 410.237 747.16 414.082C747.108 414.236 747.056 414.389 747.004 414.55C746.705 415.458 746.386 416.359 746.067 417.26L476.845 416.993C476.579 416.259 475.902 414.883 475.655 414.142C475.596 413.982 476.501 413.895 476.448 413.735C474.958 409.296 472.759 405.724 471.686 401.104C477.437 401.198 485.057 400.911 494.648 399.983C495.832 399.869 497.036 399.742 498.265 399.602C498.545 399.569 498.819 399.535 499.105 399.502C499.723 399.429 500.348 399.355 500.979 399.275C501.525 399.208 502.085 399.135 502.638 399.062C505.657 398.661 508.8 398.18 512.034 397.606C533.011 393.894 558.095 386.33 582.423 371.29C587.889 367.912 593.322 364.153 598.651 359.981C599.653 359.193 600.661 358.392 601.657 357.577C601.657 357.577 611.007 344.306 624.203 351.676C626.265 352.824 628.419 354.473 630.644 356.763C634.425 360.642 641.53 363.699 644.94 366.136C648.922 368.973 655.175 372.364 659.586 374.381H659.593C660.165 374.648 660.718 374.888 661.219 375.095C668.494 378.152 669.275 378.426 678.293 382.432C681.644 383.92 684.657 385.383 687.461 386.791C687.689 386.905 687.916 387.018 688.144 387.132C689.986 388.066 691.736 388.974 693.447 389.855C702.01 394.255 709.493 397.947 721.075 400.196C721.27 400.23 721.465 400.277 721.66 400.303C732.565 402.386 742.605 403.241 750.53 402.326H750.537Z" fill="#DEDCDB"/>
<path opacity="0.2" d="M734.594 386.322L724.756 382.01C721.327 381.742 705.002 386.376 693.446 389.847C692.177 390.228 690.973 390.588 689.848 390.929C685.781 392.17 682.762 393.118 681.864 393.412L672.781 393.919C672.592 393.926 672.41 393.953 672.228 394C671.421 394.2 670.646 394.507 669.918 394.901L654.484 401.076C653.683 401.396 652.831 401.583 651.972 401.637L646.123 401.971L642.212 403.646C641.653 403.88 641.047 403.973 640.442 403.913L630.24 401.971C630.298 402.278 630.285 402.551 630.24 402.785C629.927 404.434 627.676 405.649 624.683 406.043L620.714 404.414L612.535 406.917C609.386 406.757 605.007 406.183 600.068 404.414C595.084 402.631 591.284 400.255 588.714 398.359C586.808 399.153 584.901 399.954 582.995 400.749L578.206 399.113C577.444 398.853 576.631 398.826 575.857 399.046L568.302 401.163C567.795 401.209 567.261 401.209 566.715 401.163C562.492 400.782 559.648 397.438 558.581 396.016C558.119 395.769 557.202 395.361 555.979 395.335C555.087 395.315 554.189 395.495 553.357 395.889L549.153 397.865L546.59 399.067L546.459 399.127H546.446L544.143 397.344C543.616 396.944 542.913 396.89 542.341 397.211L538.912 399.127L534.604 398.025C533.797 397.818 532.958 397.771 532.138 397.878C532.028 397.892 531.917 397.912 531.806 397.938C531.396 398.018 530.986 398.132 530.596 398.285C530.551 398.452 530.472 398.673 530.368 398.92C530.128 399.48 529.705 400.181 528.989 400.756C527.544 401.91 525.462 402.071 523.575 401.223C523.53 401.21 523.478 401.189 523.432 401.163C519.639 399.974 515.839 398.793 512.039 397.605C510.302 397.057 508.558 396.516 506.814 395.969C505.721 395.628 504.582 395.475 503.437 395.508L497.015 395.709C485.101 388.131 470.63 376.348 468.398 373.852C469.036 377.643 469.004 382.263 468.73 387.19C469.348 391.723 471.073 396.717 472.088 401.096H474.469C474.619 401.096 471.535 401.096 471.691 401.096C472.764 405.709 474.567 409.695 476.057 414.134C476.109 414.294 475.998 414.788 476.057 414.949C476.304 415.696 476.187 415.029 476.454 415.763C476.48 415.836 477.215 416.504 477.248 416.577L504.179 417.505L705.49 417.793L745.851 417.853C745.929 417.652 746.001 417.452 746.072 417.252C746.391 416.351 746.71 415.449 747.009 414.541C747.068 414.388 747.113 414.234 747.165 414.074C748.447 410.229 749.573 406.303 750.542 402.318C751.206 399.594 751.798 396.843 752.306 394.073L734.601 386.316L734.594 386.322ZM509.69 402.057C509.69 402.057 509.54 402.031 509.3 401.971C508.61 401.79 507.849 401.523 507.016 401.189C508.564 401.677 509.605 402.011 509.69 402.064V402.057Z" fill="#26050F"/>
<path d="M662.215 374.88L659.593 374.379H659.586L637.795 370.194L624.229 373.158L619.134 374.273L598.085 370.2L597.636 370.234L582.423 371.295L580.152 371.455C585.423 368.124 591.702 362.657 597.792 357.723C601.657 354.585 605.45 351.675 608.86 349.659C613.636 346.841 619.524 346.895 624.281 349.745L625.036 350.306L635.811 358.384L662.215 374.887V374.88Z" fill="#EBF9FF"/>
<path d="M752.684 391.911C752.56 392.639 752.437 393.36 752.3 394.081C751.792 396.858 751.2 399.608 750.537 402.326C749.567 406.311 748.442 410.237 747.16 414.082C747.108 414.235 747.056 414.389 747.004 414.549C746.704 415.457 746.385 416.358 746.067 417.26C746.002 417.46 745.923 417.66 745.845 417.86C740.36 433.015 732.513 446.994 722.76 459.318H721.159C712.271 469.953 701.873 479.279 690.298 486.97C688.853 487.931 687.389 488.866 685.912 489.774C674.779 490.508 662.683 492.264 666.587 488.919C667.335 488.278 683.062 483.058 671.441 481.215L671.291 480.955C671.291 480.955 647.399 475.974 635.498 473.498C635.4 473.478 635.296 473.444 635.205 473.404C631.601 471.829 630.683 470.574 630.716 469.619C630.859 465.887 645.922 463.918 645.688 462.035C645.688 461.948 646.475 460.954 647.809 459.325C654.999 450.519 678.254 423.114 678.254 423.114C681.201 419.89 686.023 419.396 689.53 421.959L695.698 426.472C696.297 426.913 697.117 426.833 697.631 426.279L705.471 417.8L705.972 417.26L708.477 414.549L718.341 403.881L721.647 400.303L734.576 386.323L736.938 383.766C739.358 381.15 743.444 381.223 745.78 383.92L752.593 391.818L752.671 391.904L752.684 391.911Z" fill="#080A16"/>
<path d="M540.916 289.783C540.916 289.89 540.89 289.99 540.857 290.083L540.916 289.783Z" fill="black"/>
<path d="M547.143 495.434C546.752 495.327 546.199 495.113 546.251 495.106L546.421 495.066L546.765 494.986C547.82 495.547 547.585 495.554 547.143 495.44V495.434Z" fill="#080A16"/>
<path d="M573.463 476.941C573.163 478.817 588.148 481.354 588.155 485.093C588.155 486.041 587.192 487.269 583.535 488.704C583.437 488.738 583.34 488.771 583.242 488.785C571.263 490.814 559.278 492.837 547.299 494.866C547.267 494.866 547.241 494.88 547.208 494.886L546.766 494.986C541.944 492.423 537.006 489.639 532.139 486.642C532.126 486.642 532.106 486.628 532.093 486.615C520.739 478.998 510.523 469.792 501.772 459.324C501.232 458.683 500.698 458.035 500.171 457.374C490.333 445.197 482.434 431.392 476.942 416.404C476.91 416.337 476.884 416.264 476.864 416.197C476.662 415.65 476.467 415.102 476.278 414.548H476.057C474.567 410.109 473.162 405.716 472.088 401.103C471.932 401.103 472.238 401.103 472.088 401.103L471.691 400.696L471.32 400.415L471.951 399.734C471.951 399.734 497.132 407.919 496.534 408.607L501.635 414.548L503.958 417.259L504.179 417.512L522.847 439.256C523.335 439.823 524.155 439.93 524.766 439.516L531.091 435.237C534.696 432.807 539.491 433.481 542.315 436.812L553.598 450.118C554.086 450.692 554.906 450.805 555.524 450.391C559.167 447.928 562.818 445.464 566.461 442.994C568.999 441.279 572.278 441.225 574.868 442.861C582.019 447.374 589.105 453.088 595.885 459.31C598.8 461.987 601.656 464.758 604.435 467.568C605.241 468.383 605.625 469.197 605.625 470.419C606.816 474.899 591.33 476.12 575.623 476.094C571.472 476.127 573.541 476.467 573.456 476.941H573.463Z" fill="#080A16"/>
<path d="M631.887 223.57C625.094 222.582 618.139 222.068 611.072 222.068C565.278 222.068 524.488 243.578 498.168 277.085C481.368 299.315 470.397 326.573 467.671 356.341C467.652 356.528 467.639 356.722 467.619 356.909C467.619 356.942 467.619 356.969 467.612 356.995C467.495 358.958 467.411 360.921 467.365 362.897C467.339 364.085 467.326 365.274 467.326 366.469C467.326 367.75 467.339 369.019 467.378 370.287C467.404 371.609 467.456 372.924 467.528 374.246C467.528 374.246 467.528 374.246 467.534 374.246C467.567 374.219 467.612 374.199 467.652 374.173C467.71 374.139 467.769 374.106 467.827 374.066C467.977 373.979 468.127 373.892 468.283 373.805C470.482 368.017 476.442 363.858 483.463 363.858C483.86 363.858 484.25 363.878 484.641 363.905C484.517 363.157 484.452 362.396 484.452 361.622C484.452 353.411 491.648 346.748 500.536 346.748C501.838 346.748 503.107 346.902 504.323 347.169C504.662 339.238 511.728 332.895 520.388 332.895C521.026 332.895 523.935 333.643 524.559 333.71C527.507 330.412 529.693 327.601 534.684 327.601C543.565 327.601 550.768 334.264 550.768 342.475C550.768 342.856 550.794 343.13 550.768 343.497C551.367 343.437 551.933 343.497 552.558 343.497C561.049 343.497 567.256 350.86 567.848 358.571C570.425 353.544 576.717 348.791 583.139 348.791C589.561 348.791 595.287 352.503 597.805 357.723C601.67 354.585 605.464 351.675 608.873 349.659C613.649 346.841 619.538 346.895 624.294 349.745L625.049 350.306C628.862 344.471 635.349 340.633 642.701 340.633C644.016 340.633 646.807 341.214 648.063 341.447C648.987 330.285 653.223 320.258 664.343 320.258C666.607 320.258 672.17 321.446 674.22 322.12C673.738 320.298 673.472 318.375 673.472 316.386C673.472 304.349 682.984 294.589 694.716 294.589C704.125 294.589 713.976 299.476 713.579 312.107C716.462 310.604 719.298 307.373 722.714 306.813C732.644 305.184 734.16 308.802 737.407 316.593C737.667 316.68 737.934 316.76 738.194 316.833C738.454 316.913 738.721 316.987 738.981 317.047C739.189 317.1 739.391 317.154 739.599 317.2C739.97 317.287 740.335 317.367 740.706 317.447C740.92 317.494 741.128 317.534 741.343 317.574C741.721 317.648 742.098 317.714 742.475 317.781C742.645 317.808 742.814 317.841 742.989 317.868C743.803 318.001 744.603 318.122 745.384 318.242C745.768 318.302 746.145 318.362 746.516 318.429C746.575 318.442 746.64 318.449 746.698 318.462C729.228 268.653 685.327 231.355 631.907 223.577L631.887 223.57ZM540.858 290.083L540.917 289.782C540.917 289.889 540.891 289.989 540.858 290.083Z" fill="#F0EBD3"/>
<path d="M540.916 289.783C540.916 289.89 540.89 289.99 540.857 290.083L540.916 289.783Z" fill="#F1DED8"/>
<path d="M755.611 366.468C755.611 367.55 755.598 368.638 755.578 369.713C755.565 370.173 755.552 370.634 755.546 371.095C755.325 377.991 754.635 384.76 753.483 391.376C753.457 391.523 753.431 391.677 753.405 391.823C753.308 392.384 753.203 392.945 753.099 393.499C752.592 396.216 752 398.907 751.336 401.57C750.366 405.476 749.241 409.314 747.959 413.08C747.907 413.233 747.855 413.38 747.803 413.534C747.686 413.874 747.575 414.208 747.451 414.542C747.263 415.089 747.061 415.637 746.866 416.191C746.801 416.384 746.723 416.585 746.645 416.778C744.153 423.514 741.172 430.016 737.743 436.238C733.631 443.709 728.875 450.779 723.552 457.361C723.025 458.015 722.492 458.663 721.952 459.31C713.064 469.945 702.666 479.271 691.09 486.962C689.646 487.923 688.182 488.858 686.705 489.766C664.901 503.151 639.277 510.862 611.858 510.862H611.624C588.824 510.829 567.274 505.461 548.131 495.928C548.118 495.928 548.105 495.915 548.099 495.915L548.086 495.908C547.774 495.754 547.461 495.601 547.155 495.434C547.012 495.367 546.876 495.294 546.733 495.22C546.635 495.167 546.531 495.12 546.433 495.06C541.495 492.523 536.732 489.713 532.151 486.628C532.138 486.628 532.118 486.615 532.105 486.602C520.751 478.984 510.536 469.778 501.784 459.31C501.244 458.67 500.711 458.022 500.184 457.361C490.345 445.184 482.446 431.378 476.955 416.391C476.922 416.324 476.896 416.251 476.877 416.184C476.675 415.637 476.48 415.089 476.291 414.535C476.226 414.355 476.161 414.181 476.102 414.001C476.044 413.841 475.992 413.687 475.94 413.527C474.469 409.234 473.194 404.862 472.127 400.402C472.114 400.342 472.101 400.282 472.081 400.222C472.049 400.095 472.016 399.968 471.99 399.835C471.983 399.801 471.97 399.755 471.964 399.721C470.962 395.469 470.155 391.143 469.537 386.756C468.964 382.631 468.554 378.452 468.333 374.232C468.333 374.179 468.333 374.126 468.327 374.072C468.262 372.804 468.21 371.542 468.177 370.274C468.145 369.005 468.125 367.737 468.125 366.455C468.125 365.26 468.138 364.072 468.164 362.883C468.216 360.974 468.294 359.071 468.411 357.182C468.411 357.155 468.411 357.122 468.418 357.095C468.431 356.842 468.45 356.588 468.47 356.328C470.526 326.506 481.6 299.175 498.967 277.071C525.286 243.565 566.077 222.055 611.871 222.055C618.937 222.055 625.893 222.569 632.686 223.557C686.106 231.341 730.007 268.633 747.478 318.442C747.608 318.796 747.725 319.156 747.848 319.517C752.13 332.027 754.745 345.312 755.435 359.111C755.455 359.559 755.474 359.999 755.494 360.447C755.526 361.401 755.559 362.356 755.578 363.311C755.598 364.352 755.611 365.4 755.611 366.455V366.468Z" stroke="black" stroke-width="4" stroke-miterlimit="10"/>
<path d="M677.642 271.764C697.773 271.764 714.093 255.02 714.093 234.365C714.093 213.711 697.773 196.967 677.642 196.967C657.511 196.967 641.191 213.711 641.191 234.365C641.191 255.02 657.511 271.764 677.642 271.764Z" fill="#C7312C"/>
<path d="M484.744 330.566C484.223 318.282 475.471 299.062 472.179 299.629C470.448 299.93 473.175 303.001 469.947 303.835C466.902 304.623 461.859 302.787 459.615 303.061C456.96 303.388 454.214 310.398 453.121 337.348L421.368 341.641L414.386 358.057L402.108 344.218L366.718 354.839C366.699 354.479 361.097 357.47 361.07 357.109C353.913 359.746 348.298 363.618 335.662 359.773C314.287 353.277 310.201 354.459 303.382 352.423C303.538 351.849 303.323 351.241 302.165 352.035C300.304 353.304 293.654 358.224 293.791 358.912C295.366 366.823 303.844 388.987 308.867 392.425C306.902 440.625 305.458 535.33 328.101 540.31C328.973 540.504 329.884 540.564 330.847 540.477C339.169 538.634 350.575 534.989 362.469 527.339C368.163 523.674 372.88 519.788 376.706 516.17C374.071 473.537 371.429 430.898 368.794 388.266C383.336 383.499 399.916 378.519 417.75 376.957C428.369 376.029 438.422 378.492 447.811 380.335C444.421 409.428 440.687 444.03 437.017 479.212C438.155 481.735 442.775 491.195 453.765 496.396C465.158 501.79 475.543 498.893 478.055 498.111C475.738 443.402 487.073 385.255 484.757 330.546L484.744 330.566Z" fill="#662D91"/>
<path d="M559.89 286.03H567.614C568.108 286.791 568.355 287.719 568.355 288.814C568.355 289.909 568.141 290.777 567.718 291.458H567.184V295.59C565.473 297.159 563.215 297.947 560.411 297.947C558.699 297.947 557.177 297.626 555.849 296.985C554.398 296.298 553.273 295.29 552.473 293.968C551.594 292.519 551.158 290.737 551.158 288.627C551.158 285.623 552.011 283.3 553.709 281.657C555.322 280.089 557.515 279.301 560.274 279.301C561.64 279.301 562.922 279.514 564.133 279.948C565.349 280.382 566.306 280.916 567.008 281.557C567.008 282.111 566.943 282.786 566.813 283.58C566.69 284.381 566.534 284.989 566.345 285.409H559.48C559.2 285.723 558.94 286.17 558.686 286.758C558.446 287.345 558.322 288.02 558.322 288.781C558.322 289.829 558.569 290.65 559.064 291.244C559.5 291.785 560.053 292.058 560.73 292.058C561.009 292.058 561.146 291.958 561.146 291.758V291.444H561.003C560.43 291.444 559.955 291.211 559.571 290.743C559.2 290.263 559.012 289.588 559.012 288.707C559.012 287.606 559.305 286.718 559.884 286.037L559.89 286.03ZM581.707 290.69C581.707 291.351 581.779 291.885 581.915 292.285C582.052 292.686 582.299 293.006 582.644 293.233C582.651 293.28 582.657 293.367 582.657 293.494V293.741C582.657 295.043 582.286 296.057 581.538 296.785C580.881 297.426 580.061 297.746 579.091 297.746C578.434 297.746 577.829 297.579 577.283 297.252C576.736 296.925 576.346 296.445 576.111 295.817C575.819 295.817 575.669 295.971 575.669 296.271C575.669 296.525 575.819 296.818 576.124 297.139C575.558 297.546 574.706 297.746 573.574 297.746C571.967 297.746 570.685 297.286 569.715 296.371C568.759 295.443 568.284 294.155 568.284 292.499C568.284 290.843 568.791 289.555 569.806 288.64C570.737 287.826 571.941 287.412 573.418 287.412C573.919 287.412 574.407 287.445 574.875 287.526C575.187 287.592 575.357 287.626 575.383 287.639C575.409 287.546 575.422 287.472 575.422 287.405C575.422 287.165 575.233 287.005 574.849 286.925C574.465 286.845 573.971 286.798 573.353 286.798C572.038 286.798 570.919 287.078 569.989 287.639C569.566 286.878 569.351 285.91 569.351 284.748C569.351 284.087 569.429 283.593 569.585 283.273C570.21 282.973 571.004 282.706 571.967 282.472C572.93 282.232 573.945 282.111 575.012 282.111C577.217 282.111 578.883 282.619 580.015 283.64C581.148 284.662 581.707 286.104 581.707 287.979V290.677V290.69ZM574.947 291.364C574.582 291.364 574.4 291.538 574.4 291.885C574.4 292.212 574.615 292.379 575.038 292.379C575.331 292.379 575.552 292.305 575.688 292.159C575.825 292.005 575.897 291.738 575.897 291.358H574.947V291.364ZM604.298 290.69C604.298 291.358 604.37 291.905 604.507 292.326C604.643 292.746 604.891 293.073 605.235 293.3C605.242 293.347 605.248 293.427 605.248 293.534V293.741C605.248 294.996 604.904 295.984 604.207 296.685C603.511 297.393 602.613 297.746 601.514 297.746C600.414 297.746 599.536 297.433 598.872 296.798C598.085 296.064 597.688 294.942 597.688 293.427V289.074C597.688 288.46 597.499 288.153 597.115 288.153C596.965 288.153 596.848 288.193 596.764 288.267L596.998 290.316V293.427C596.998 294.675 597.193 295.623 597.583 296.264C597.167 296.732 596.647 297.099 596.022 297.366C595.404 297.626 594.773 297.753 594.135 297.753C593.094 297.753 592.287 297.486 591.714 296.952C591.018 296.311 590.673 295.296 590.673 293.908V289.074C590.673 288.46 590.485 288.153 590.101 288.153C589.951 288.153 589.834 288.193 589.749 288.267L589.984 290.316V293.968C589.984 294.996 590.114 295.79 590.374 296.351C589.522 297.279 588.331 297.74 586.789 297.74C585.878 297.74 585.11 297.499 584.486 297.012C583.763 296.451 583.405 295.697 583.405 294.756V288.173C582.891 287.412 582.638 286.477 582.638 285.363C582.638 284.248 582.891 283.273 583.405 282.459H586.548C587.166 282.459 587.693 282.699 588.123 283.186C587.739 283.56 587.55 283.874 587.55 284.121C587.55 284.408 587.7 284.548 588.006 284.548C588.39 283.847 588.91 283.293 589.58 282.879C590.361 282.412 591.279 282.178 592.326 282.178C593.126 282.178 593.823 282.358 594.421 282.712C595.026 283.073 595.482 283.487 595.775 283.954C596.185 283.366 596.712 282.926 597.362 282.632C598.019 282.332 598.709 282.178 599.418 282.178C600.993 282.178 602.21 282.692 603.082 283.72C603.934 284.748 604.357 286.157 604.357 287.946L604.305 290.683L604.298 290.69ZM613.232 297.933C610.825 297.933 608.931 297.226 607.539 295.81C606.114 294.388 605.405 292.439 605.405 289.969C605.405 287.499 606.14 285.523 607.604 284.074C608.957 282.726 610.675 282.051 612.751 282.051C614.826 282.051 616.492 282.659 617.741 283.867C619.004 285.069 619.628 286.551 619.628 288.313C619.628 289.882 619.114 291.07 618.08 291.865C617.123 292.619 615.822 292.993 614.169 292.993C612.933 292.993 611.892 292.719 611.046 292.179C610.974 292.232 610.942 292.332 610.942 292.479C610.942 292.753 611.287 293.006 611.97 293.233C612.653 293.48 613.434 293.607 614.299 293.607C615.165 293.607 615.971 293.494 616.681 293.26C617.403 293.02 617.982 292.739 618.411 292.419C618.62 292.613 618.782 292.973 618.906 293.494C619.036 294.008 619.101 294.482 619.101 294.909C619.101 295.336 619.062 295.71 618.984 296.037C618.307 296.645 617.611 297.072 616.902 297.332C615.893 297.72 614.67 297.913 613.226 297.913L613.232 297.933ZM613.063 288.607C613.499 288.607 613.714 288.433 613.714 288.086C613.714 287.759 613.486 287.592 613.024 287.592C612.562 287.592 612.302 287.853 612.23 288.38C612.471 288.534 612.751 288.614 613.063 288.614V288.607ZM633.409 289.835V292.245C633.468 292.312 633.572 292.339 633.709 292.339C633.845 292.339 633.949 292.285 634.008 292.185C634.067 292.085 634.099 291.912 634.099 291.665V289.695C634.099 288.814 634.067 288.233 633.995 287.946C633.923 287.652 633.793 287.506 633.605 287.506C633.481 287.506 633.377 287.552 633.292 287.646C633.37 288.554 633.409 289.281 633.409 289.835ZM628.536 295.937C627.111 294.489 626.402 292.519 626.402 290.042C626.402 287.566 627.072 285.596 628.406 284.161C629.753 282.719 631.516 281.998 633.696 281.998C635.875 281.998 637.639 282.746 638.986 284.241C640.326 285.736 640.99 287.686 640.99 290.096C640.99 292.506 640.346 294.395 639.051 295.81C637.762 297.226 636.019 297.933 633.8 297.933C631.581 297.933 629.831 297.266 628.536 295.937ZM647.867 290.77V291.097C647.867 291.251 647.867 291.364 647.88 291.431C647.984 291.478 648.082 291.498 648.18 291.498C648.433 291.498 648.557 291.317 648.557 290.964C648.557 290.029 648.661 288.267 648.869 285.676C648.98 284.274 649.052 283.447 649.078 283.2C649.891 282.619 650.873 282.332 652.006 282.332C653.138 282.332 654.036 282.652 654.66 283.293C655.213 283.88 655.493 284.642 655.493 285.576C655.493 286.21 655.409 286.865 655.246 287.546C654.439 290.843 653.632 293.434 652.838 295.323C652.416 296.304 651.765 296.979 650.899 297.332C650.255 297.606 649.338 297.746 648.154 297.746C647.522 297.746 646.891 297.693 646.267 297.579C645.649 297.466 645.174 297.339 644.848 297.192C643.586 294.475 642.551 291.471 641.738 288.173C641.471 287.886 641.237 287.492 641.048 286.978C640.86 286.464 640.762 285.93 640.762 285.383C640.762 284.241 641.022 283.266 641.543 282.452H644.79C645.928 282.452 646.774 282.792 647.327 283.473C647.744 283.987 648.01 284.735 648.134 285.716C647.958 287.425 647.874 289.108 647.874 290.77H647.867ZM663.438 297.933C661.03 297.933 659.137 297.226 657.745 295.81C656.32 294.388 655.61 292.439 655.61 289.969C655.61 287.499 656.346 285.523 657.81 284.074C659.163 282.726 660.881 282.051 662.956 282.051C665.032 282.051 666.698 282.659 667.947 283.867C669.209 285.069 669.834 286.551 669.834 288.313C669.834 289.882 669.32 291.07 668.285 291.865C667.329 292.619 666.028 292.993 664.375 292.993C663.139 292.993 662.098 292.719 661.245 292.179C661.174 292.232 661.141 292.332 661.141 292.479C661.141 292.753 661.486 293.006 662.169 293.233C662.852 293.48 663.633 293.607 664.498 293.607C665.364 293.607 666.171 293.494 666.88 293.26C667.602 293.02 668.181 292.739 668.611 292.419C668.819 292.613 668.982 292.973 669.105 293.494C669.235 294.008 669.3 294.482 669.3 294.909C669.3 295.336 669.261 295.71 669.183 296.037C668.507 296.645 667.81 297.072 667.101 297.332C666.093 297.72 664.869 297.913 663.425 297.913L663.438 297.933ZM663.269 288.607C663.705 288.607 663.919 288.433 663.919 288.086C663.919 287.759 663.692 287.592 663.23 287.592C662.768 287.592 662.507 287.853 662.436 288.38C662.677 288.534 662.956 288.614 663.269 288.614V288.607ZM674.33 297.68C673.296 297.68 672.469 297.479 671.858 297.085C671.174 296.672 670.829 296.064 670.829 295.256V288.166C670.315 287.405 670.062 286.471 670.062 285.356C670.062 284.241 670.315 283.266 670.829 282.452H672.821C673.842 282.452 674.577 282.799 675.02 283.5C674.805 283.76 674.616 284.081 674.447 284.475C674.285 284.869 674.2 285.156 674.2 285.329C674.2 285.496 674.239 285.616 674.317 285.703C674.402 285.783 674.525 285.83 674.681 285.83C674.987 284.555 675.566 283.62 676.419 283.019C677.121 282.512 677.993 282.265 679.021 282.265C680.303 282.265 681.312 282.552 682.047 283.133C682.307 283.867 682.437 284.768 682.437 285.83C682.437 286.891 682.236 287.846 681.839 288.707C681.546 288.874 681.136 289.014 680.616 289.134C680.095 289.248 679.568 289.301 679.034 289.301C678.501 289.301 678.026 289.268 677.603 289.188C677.187 289.108 676.881 289.034 676.692 288.968C676.62 289.041 676.588 289.148 676.588 289.281C676.588 289.415 676.673 289.522 676.835 289.595C677.004 289.662 677.297 289.735 677.694 289.815V296.725C676.744 297.359 675.625 297.673 674.33 297.673V297.68ZM544.463 311.599C545.133 312.64 546.089 314.416 546.571 315.464L544.437 316.426C543.903 315.297 543.077 313.608 542.355 312.534L544.463 311.606V311.599ZM547.612 310.33C548.334 311.372 549.291 313.181 549.772 314.169L547.664 315.13C547.104 313.949 546.252 312.313 545.504 311.238L547.612 310.337V310.33ZM535.607 312.947C535.314 313.682 534.937 314.67 534.729 315.257C534.247 316.666 533.447 318.756 532.757 320.191C531.69 322.421 529.875 325.158 528.118 326.793L524.754 324.65C526.647 323.155 528.385 320.618 529.393 318.842C530.115 317.547 530.597 316.078 530.942 314.977C531.235 314.049 531.449 312.974 531.501 312.1L535.607 312.947ZM531.391 317.32H545.504C546.174 317.32 547.397 317.267 548.276 317.12V320.959C547.261 320.872 546.115 320.872 545.504 320.872H531.098L531.391 317.32ZM541.821 319.35C541.632 327.668 538.834 333.169 533.681 336.607L530.076 334.043C531.039 333.623 531.97 333.055 532.581 332.495C535.62 330.038 537.995 326.146 538.106 319.35H541.815H541.821ZM553 321.326C553.989 321.413 555.908 321.526 557.294 321.526H571.622C572.878 321.526 574.049 321.386 574.771 321.326V325.779C574.133 325.752 572.767 325.612 571.648 325.612H557.294C555.797 325.612 554.015 325.698 553 325.779V321.326ZM591.226 313.121C590.882 313.969 590.504 315.01 590.107 316.279C589.118 319.436 586.346 328.516 585.201 331.453L581.278 331.593C582.716 327.982 585.494 318.735 586.372 315.464C586.743 314.056 586.88 313.154 586.984 312.22L591.226 313.121ZM596.002 322.227C597.922 325.271 600.642 330.826 601.871 333.957L598.267 335.646C597.063 332.234 594.584 326.393 592.69 323.689L595.996 322.22L596.002 322.227ZM581.004 330.325C584.713 330.185 593.439 329.143 597.174 328.603L597.948 332.214C593.998 332.748 584.824 333.763 581.219 334.157C580.549 334.244 579.54 334.384 578.714 334.497L578.076 330.352C578.981 330.378 580.159 330.352 581.011 330.325H581.004ZM621.372 311.793C621.242 312.694 621.183 313.769 621.209 314.67C621.287 319.323 621.476 327.08 621.528 332.775C621.554 334.577 620.565 335.626 618.542 335.626C616.915 335.626 615.444 335.572 613.928 335.459L613.61 331.794C614.839 331.994 616.277 332.101 617.182 332.101C617.852 332.101 618.086 331.734 618.086 330.946C618.086 327.054 618.034 319.323 617.819 314.67C617.741 313.455 617.683 312.554 617.553 311.793H621.366H621.372ZM606.14 316.506C606.888 316.593 608.17 316.706 609.074 316.706H624.573C625.426 316.706 626.681 316.566 627.319 316.479V320.204C626.493 320.177 625.452 320.151 624.729 320.151H609.178C608.189 320.151 607.07 320.204 606.14 320.264V316.512V316.506ZM604.695 329.931C610.272 327.114 614.937 322.768 616.863 319.436H618.6L618.626 322.454C616.466 325.865 611.742 330.292 607.155 332.862L604.702 329.931H604.695ZM632.232 321.326C633.221 321.413 635.14 321.526 636.526 321.526H650.854C652.11 321.526 653.281 321.386 654.003 321.326V325.779C653.365 325.752 651.999 325.612 650.88 325.612H636.526C635.03 325.612 633.247 325.698 632.232 325.779V321.326ZM677.004 311.906C677.675 312.921 678.631 314.723 679.139 315.771L676.978 316.733C676.445 315.578 675.618 313.915 674.896 312.814L677.004 311.913V311.906ZM680.18 310.638C680.876 311.679 681.858 313.488 682.314 314.476L680.206 315.438C679.646 314.256 678.794 312.62 678.045 311.546L680.18 310.644V310.638ZM661.343 325.612C662.514 322.481 663.529 318.502 663.88 314.897L667.752 315.771C667.537 316.559 667.218 317.941 667.114 318.589C666.743 320.565 665.78 324.423 664.843 327.047C663.88 329.784 662.306 332.995 660.92 335.112L657.185 333.449C658.838 331.139 660.412 328.122 661.349 325.612H661.343ZM674.493 325.051C673.478 322.087 671.773 317.914 670.621 315.771L674.167 314.556C675.287 316.726 677.102 321.072 678.117 323.776C679.08 326.339 680.492 330.826 681.214 333.616L677.265 334.971C676.542 331.647 675.56 328.088 674.486 325.044L674.493 325.051ZM685.326 321.326C686.315 321.413 688.235 321.526 689.621 321.526H703.949C705.204 321.526 706.376 321.386 707.098 321.326V325.779C706.46 325.752 705.094 325.612 703.975 325.612H689.621C688.124 325.612 686.342 325.698 685.326 325.779V321.326Z" fill="black"/>
</g>
<defs>
<linearGradient id="paint0_linear_189_4291" x1="393.787" y1="496.25" x2="460.11" y2="496.25" gradientUnits="userSpaceOnUse">
<stop stop-color="#FFB100"/>
<stop offset="0.13" stop-color="#FEAB01"/>
<stop offset="0.29" stop-color="#FD9B06"/>
<stop offset="0.47" stop-color="#FA800E"/>
<stop offset="0.67" stop-color="#F75B19"/>
<stop offset="0.87" stop-color="#F32C27"/>
<stop offset="1" stop-color="#F00035"/>
</linearGradient>
<clipPath id="clip0_189_4291">
<rect width="1261" height="721" fill="white"/>
</clipPath>
</defs>
</svg>
