<svg width="381" height="46" viewBox="0 0 381 46" fill="none" xmlns="http://www.w3.org/2000/svg">
<path d="M19.4131 32.5732C20.165 32.4365 20.541 32.0605 20.541 31.4453C20.541 30.8073 20.3359 30.1009 19.9258 29.3262C19.5384 28.5286 18.9574 27.7767 18.1826 27.0703C16.1546 25.2474 13.4089 24.3359 9.94531 24.3359C8.23633 24.3359 6.64128 24.6208 5.16016 25.1904C3.58789 24.3929 2.33464 23.1283 1.40039 21.3965C0.466146 19.6647 -0.000976562 17.7962 -0.000976562 15.791C-0.000976562 10.5501 2.18652 6.50553 6.56152 3.65723C10.3213 1.21908 14.9583 0 20.4727 0C24.5742 0 28.0264 0.444336 30.8291 1.33301C33.6318 2.19889 35.9219 3.31543 37.6992 4.68262C38.2233 6.18652 38.4854 7.7474 38.4854 9.36523C38.4854 10.9831 38.2689 12.4528 37.8359 13.7744C37.403 15.096 36.7764 16.1556 35.9561 16.9531C35.1813 16.3835 33.7799 15.8024 31.752 15.21C29.724 14.6175 27.8783 14.3213 26.2148 14.3213C24.5514 14.3213 23.4349 14.4238 22.8652 14.6289C22.3184 14.834 22.0449 15.153 22.0449 15.5859C22.0449 15.791 22.0791 15.9847 22.1475 16.167C22.945 15.9619 23.9704 15.8594 25.2236 15.8594C29.667 15.8594 33.29 16.9076 36.0928 19.0039C39.3968 21.5104 41.0488 25.2702 41.0488 30.2832C41.0488 34.7038 39.2601 38.3724 35.6826 41.2891C31.8089 44.4108 26.6022 45.9717 20.0625 45.9717C16.4622 45.9717 13.3405 45.6982 10.6973 45.1514C8.05404 44.6273 5.47917 43.693 2.97266 42.3486C1.26367 39.8649 0.40918 37.347 0.40918 34.7949C0.40918 32.2201 1.28646 30.0895 3.04102 28.4033C4.79557 26.7171 6.94889 25.874 9.50098 25.874C12.0758 25.874 14.1722 26.3981 15.79 27.4463C17.4307 28.4945 18.6383 30.2035 19.4131 32.5732ZM72.2549 0.307617C74.9893 0.307617 77.359 1.04818 79.3643 2.5293C81.3695 4.01042 82.3721 6.11816 82.3721 8.85254V27.8564C82.3721 33.6442 80.6061 38.1104 77.0742 41.2549C73.5423 44.3766 68.6546 45.9375 62.4111 45.9375C56.1904 45.9375 51.3483 44.3994 47.8848 41.3232C44.3529 38.2471 42.5869 33.7581 42.5869 27.8564V3.48633C45.2757 1.3444 48.3861 0.273438 51.918 0.273438C54.8802 0.273438 57.2272 1.05957 58.959 2.63184C60.6908 4.18132 61.5566 6.53971 61.5566 9.70703V29.6338C61.8073 29.8161 62.0921 29.9072 62.4111 29.9072C62.7529 29.9072 62.9922 29.8275 63.1289 29.668C63.2884 29.4857 63.3682 29.1553 63.3682 28.6768V9.67285C63.3682 8.2373 63.2998 7.09798 63.1631 6.25488C63.0264 5.41178 62.7529 4.56868 62.3428 3.72559C65.0771 1.44694 68.3812 0.307617 72.2549 0.307617ZM103.29 32.5732C104.042 32.4365 104.418 32.0605 104.418 31.4453C104.418 30.8073 104.213 30.1009 103.803 29.3262C103.415 28.5286 102.834 27.7767 102.06 27.0703C100.032 25.2474 97.2858 24.3359 93.8223 24.3359C92.1133 24.3359 90.5182 24.6208 89.0371 25.1904C87.4648 24.3929 86.2116 23.1283 85.2773 21.3965C84.3431 19.6647 83.876 17.7962 83.876 15.791C83.876 10.5501 86.0635 6.50553 90.4385 3.65723C94.1982 1.21908 98.8353 0 104.35 0C108.451 0 111.903 0.444336 114.706 1.33301C117.509 2.19889 119.799 3.31543 121.576 4.68262C122.1 6.18652 122.362 7.7474 122.362 9.36523C122.362 10.9831 122.146 12.4528 121.713 13.7744C121.28 15.096 120.653 16.1556 119.833 16.9531C119.058 16.3835 117.657 15.8024 115.629 15.21C113.601 14.6175 111.755 14.3213 110.092 14.3213C108.428 14.3213 107.312 14.4238 106.742 14.6289C106.195 14.834 105.922 15.153 105.922 15.5859C105.922 15.791 105.956 15.9847 106.024 16.167C106.822 15.9619 107.847 15.8594 109.101 15.8594C113.544 15.8594 117.167 16.9076 119.97 19.0039C123.274 21.5104 124.926 25.2702 124.926 30.2832C124.926 34.7038 123.137 38.3724 119.56 41.2891C115.686 44.4108 110.479 45.9717 103.939 45.9717C100.339 45.9717 97.2174 45.6982 94.5742 45.1514C91.931 44.6273 89.3561 43.693 86.8496 42.3486C85.1406 39.8649 84.2861 37.347 84.2861 34.7949C84.2861 32.2201 85.1634 30.0895 86.918 28.4033C88.6725 26.7171 90.8258 25.874 93.3779 25.874C95.9528 25.874 98.0492 26.3981 99.667 27.4463C101.308 28.4945 102.515 30.2035 103.29 32.5732ZM168.402 8.78418V42.7588C165.85 44.6729 162.58 45.6299 158.593 45.6299C155.517 45.6299 153.078 45.0033 151.278 43.75C149.387 42.474 148.441 40.6283 148.441 38.2129V31.4453H150.868C151.802 31.4453 152.383 31.3314 152.611 31.1035C152.862 30.8529 152.987 30.4541 152.987 29.9072H142.255C142.255 30.4541 142.357 30.8529 142.562 31.1035C142.768 31.3314 143.257 31.4453 144.032 31.4453H146.63V42.7588C144.875 43.8981 143.212 44.6615 141.64 45.0488C140.067 45.4362 138.461 45.6299 136.82 45.6299C133.744 45.6299 131.306 45.0033 129.506 43.75C127.615 42.474 126.669 40.6283 126.669 38.2129V4.2041C127.854 2.95085 129.312 1.99382 131.044 1.33301C132.799 0.649414 134.621 0.307617 136.513 0.307617C139.27 0.307617 141.605 0.991211 143.52 2.3584C145.593 3.90788 146.63 6.0498 146.63 8.78418V14.8682H150.971C150.971 14.2757 150.857 13.877 150.629 13.6719C150.424 13.444 150.082 13.3301 149.604 13.3301H148.441V4.2041C149.626 2.95085 151.085 1.99382 152.816 1.33301C154.571 0.649414 156.394 0.307617 158.285 0.307617C161.042 0.307617 163.378 0.991211 165.292 2.3584C167.366 3.90788 168.402 6.0498 168.402 8.78418ZM190.927 7.10938V42.417C189.879 43.3285 188.477 44.0918 186.723 44.707C184.968 45.3223 182.838 45.6299 180.331 45.6299C177.825 45.6299 175.694 45.0716 173.939 43.9551C171.957 42.7474 170.966 41.0384 170.966 38.8281V3.52051C172.014 2.60905 173.415 1.8457 175.17 1.23047C176.924 0.615234 179.044 0.307617 181.527 0.307617C184.011 0.307617 186.164 0.854492 187.987 1.94824C189.947 3.2015 190.927 4.92188 190.927 7.10938ZM230.199 21.4307C230.199 19.152 230.097 17.5911 229.892 16.748C229.687 15.8822 229.311 15.4492 228.764 15.4492C228.422 15.4492 228.114 15.5632 227.841 15.791C227.886 16.2012 227.955 16.748 228.046 17.4316C228.137 18.1152 228.183 19.5736 228.183 21.8066V24.0283C228.183 25.5778 228.148 26.7057 228.08 27.4121C228.012 28.1185 227.955 28.7223 227.909 29.2236C227.886 29.4971 227.864 29.7705 227.841 30.0439C228.114 30.2718 228.422 30.3857 228.764 30.3857C229.311 30.3857 229.687 29.9642 229.892 29.1211C230.097 28.2552 230.199 26.6829 230.199 24.4043V21.4307ZM217.45 45.0488C214.921 45.0488 212.961 44.3766 211.571 43.0322C210.204 41.6878 209.521 39.6598 209.521 36.9482V6.18652C209.521 4.45475 211.252 2.99642 214.716 1.81152C218.202 0.603841 222.087 0 226.371 0C233.913 0 239.804 1.82292 244.042 5.46875C248.599 9.38802 250.878 15.2327 250.878 23.0029C250.878 29.9984 248.668 35.4215 244.247 39.2725C239.849 43.1234 233.799 45.0488 226.098 45.0488H217.45ZM272.24 22.5586C272.423 22.7409 272.707 22.832 273.095 22.832C273.482 22.832 273.812 22.7523 274.086 22.5928C273.493 19.1292 273.095 17.0785 272.89 16.4404C272.639 15.7796 272.263 15.4492 271.762 15.4492C271.534 15.4492 271.26 15.5176 270.941 15.6543L272.24 22.5586ZM265.473 32.8125C265.245 33.1315 265.131 33.4277 265.131 33.7012C265.131 34.362 265.746 34.9202 266.977 35.376C268.23 35.8089 269.745 36.0824 271.522 36.1963C271.819 39.4775 272.138 41.346 272.479 41.8018C272.047 42.6449 270.85 43.4993 268.891 44.3652C266.931 45.2083 264.721 45.6299 262.26 45.6299C259.001 45.6299 256.21 44.9349 253.886 43.5449C251.562 42.1322 250.399 40.3206 250.399 38.1104C250.399 37.5179 250.456 36.9938 250.57 36.5381L257.851 3.99902C259.674 2.83691 261.85 1.92546 264.379 1.26465C266.908 0.603841 269.54 0.273438 272.274 0.273438C276.194 0.273438 279.543 0.934245 282.323 2.25586C285.491 3.75977 287.416 5.93587 288.1 8.78418L295.893 41.0156C293.523 44.0918 289.66 45.6299 284.306 45.6299C281.708 45.6299 279.509 45.1628 277.709 44.2285C275.909 43.2943 274.861 41.9613 274.564 40.2295L273.812 36.0596C275.18 36.0368 276.501 35.7747 277.777 35.2734C279.053 34.7721 279.691 34.248 279.691 33.7012C279.691 33.3366 279.543 33.0404 279.247 32.8125C278.381 33.4277 277.322 33.8949 276.068 34.2139C274.815 34.5329 273.653 34.6924 272.582 34.6924C269.506 34.6924 267.136 34.0658 265.473 32.8125ZM315.204 32.5732C315.956 32.4365 316.332 32.0605 316.332 31.4453C316.332 30.8073 316.127 30.1009 315.717 29.3262C315.329 28.5286 314.748 27.7767 313.974 27.0703C311.946 25.2474 309.2 24.3359 305.736 24.3359C304.027 24.3359 302.432 24.6208 300.951 25.1904C299.379 24.3929 298.126 23.1283 297.191 21.3965C296.257 19.6647 295.79 17.7962 295.79 15.791C295.79 10.5501 297.978 6.50553 302.353 3.65723C306.112 1.21908 310.749 0 316.264 0C320.365 0 323.817 0.444336 326.62 1.33301C329.423 2.19889 331.713 3.31543 333.49 4.68262C334.014 6.18652 334.276 7.7474 334.276 9.36523C334.276 10.9831 334.06 12.4528 333.627 13.7744C333.194 15.096 332.567 16.1556 331.747 16.9531C330.972 16.3835 329.571 15.8024 327.543 15.21C325.515 14.6175 323.669 14.3213 322.006 14.3213C320.342 14.3213 319.226 14.4238 318.656 14.6289C318.109 14.834 317.836 15.153 317.836 15.5859C317.836 15.791 317.87 15.9847 317.938 16.167C318.736 15.9619 319.761 15.8594 321.015 15.8594C325.458 15.8594 329.081 16.9076 331.884 19.0039C335.188 21.5104 336.84 25.2702 336.84 30.2832C336.84 34.7038 335.051 38.3724 331.474 41.2891C327.6 44.4108 322.393 45.9717 315.854 45.9717C312.253 45.9717 309.132 45.6982 306.488 45.1514C303.845 44.6273 301.27 43.693 298.764 42.3486C297.055 39.8649 296.2 37.347 296.2 34.7949C296.2 32.2201 297.077 30.0895 298.832 28.4033C300.587 26.7171 302.74 25.874 305.292 25.874C307.867 25.874 309.963 26.3981 311.581 27.4463C313.222 28.4945 314.429 30.2035 315.204 32.5732ZM380.316 8.78418V42.7588C377.764 44.6729 374.494 45.6299 370.507 45.6299C367.431 45.6299 364.993 45.0033 363.192 43.75C361.301 42.474 360.355 40.6283 360.355 38.2129V31.4453H362.782C363.716 31.4453 364.298 31.3314 364.525 31.1035C364.776 30.8529 364.901 30.4541 364.901 29.9072H354.169C354.169 30.4541 354.271 30.8529 354.477 31.1035C354.682 31.3314 355.172 31.4453 355.946 31.4453H358.544V42.7588C356.789 43.8981 355.126 44.6615 353.554 45.0488C351.981 45.4362 350.375 45.6299 348.734 45.6299C345.658 45.6299 343.22 45.0033 341.42 43.75C339.529 42.474 338.583 40.6283 338.583 38.2129V4.2041C339.768 2.95085 341.226 1.99382 342.958 1.33301C344.713 0.649414 346.535 0.307617 348.427 0.307617C351.184 0.307617 353.52 0.991211 355.434 2.3584C357.507 3.90788 358.544 6.0498 358.544 8.78418V14.8682H362.885C362.885 14.2757 362.771 13.877 362.543 13.6719C362.338 13.444 361.996 13.3301 361.518 13.3301H360.355V4.2041C361.54 2.95085 362.999 1.99382 364.73 1.33301C366.485 0.649414 368.308 0.307617 370.199 0.307617C372.956 0.307617 375.292 0.991211 377.206 2.3584C379.28 3.90788 380.316 6.0498 380.316 8.78418Z" fill="#F5F5F5"/>
</svg>
