<svg width="410" height="139" viewBox="0 0 410 139" fill="none" xmlns="http://www.w3.org/2000/svg">
<path d="M364.889 118.166C364.889 103.658 374.319 97.4512 384.476 97.4512C388.425 97.4512 391.407 98.499 393.503 100.675C393.745 100.837 393.987 100.917 394.148 100.917C394.551 100.917 394.712 100.595 394.712 99.9499V87.6174C394.712 84.3127 390.601 83.9097 390.601 80.6855C390.601 78.8316 392.294 77.7031 395.599 77.7031H399.145C402.208 77.7031 405.836 79.7182 405.836 83.9903V128.484C405.836 132.192 409.866 132.03 409.866 135.093C409.866 137.834 407.286 138.237 405.191 138.237C401.725 138.237 399.226 136.705 397.533 134.368C397.292 133.965 396.969 133.804 396.647 133.804C396.324 133.804 396.002 133.965 395.679 134.368C393.503 137.27 390.198 138.801 385.523 138.801C374.319 138.801 364.889 132.595 364.889 118.166ZM384.879 102.771C379.881 103.174 376.415 107.688 376.979 118.65C377.302 124.695 378.833 133.804 386.571 133.804C390.924 133.562 394.148 129.532 394.712 123.567V113.814C393.423 105.673 390.36 102.771 385.685 102.771H384.879Z" fill="white"/>
<path d="M331.199 105.995C333.859 101.078 338.453 97.4512 344.176 97.4512C352.801 97.4512 357.879 102.287 357.879 110.831V128.645C357.879 132.595 361.345 132.03 361.345 135.013C361.345 137.108 360.136 137.834 358.201 138.076C356.186 138.318 354.252 138.479 352.398 138.479C350.302 138.479 348.287 138.318 346.352 138.076C343.934 137.753 342.645 137.108 342.645 135.013C342.645 132.03 346.755 132.595 346.755 128.645V114.297C346.755 108.413 344.499 105.189 340.307 105.189C334.342 105.189 330.957 115.668 330.635 120.665V128.645C330.635 132.595 334.101 132.03 334.101 135.013C334.101 137.108 332.892 137.834 330.957 138.076C328.942 138.318 327.007 138.479 325.154 138.479C323.058 138.479 321.043 138.318 319.108 138.076C316.69 137.753 315.4 137.108 315.4 135.174C315.4 132.353 319.511 132.836 319.511 129.048V108.01C319.511 104.786 315.4 104.303 315.4 101.078C315.4 99.3051 317.012 98.1766 320.317 98.1766H323.944C326.363 98.1766 329.184 99.3857 330.151 102.126C330.232 102.852 330.312 105.028 330.473 105.915C330.554 106.156 330.635 106.318 330.796 106.318C330.876 106.318 331.038 106.237 331.199 105.995Z" fill="white"/>
<path d="M285.719 138.801C279.593 138.801 272.258 136.222 272.258 127.678C272.258 117.522 287.653 114.7 296.358 113.491C296.923 113.411 297.245 113.008 297.245 112.444V110.67C297.245 105.431 295.633 102.207 291.683 102.207C287.411 102.207 285.719 106.559 283.301 108.978C282.092 110.187 280.399 110.751 278.867 110.751C276.369 110.751 274.031 109.219 274.031 106.398C274.031 101.159 282.978 97.4512 291.683 97.4512C300.55 97.4512 308.449 101.078 308.449 111.234V127.355C308.449 132.675 311.673 130.983 312.882 132.675C314.172 134.529 310.787 138.398 305.709 138.398C303.21 138.398 300.389 137.592 298.777 133.965C298.615 133.642 298.454 133.481 298.293 133.481C298.132 133.481 297.89 133.642 297.729 133.884C295.069 136.867 290.877 138.801 285.719 138.801ZM284.107 126.469C284.026 130.338 286.928 132.675 290.233 132.675C293.376 132.675 296.761 130.338 297.245 127.114V119.134C297.245 118.489 296.923 118.408 296.358 118.408C291.845 119.134 284.268 120.988 284.107 126.469Z" fill="white"/>
<path d="M254.105 125.34L260.795 108.736C262.811 103.094 258.377 102.046 259.506 99.6277C260.07 98.4993 263.294 98.0156 266.357 98.0156C269.42 98.0156 272.402 98.5799 272.644 99.9501C272.967 102.529 269.259 103.98 267.163 109.22L258.055 131.869C256.523 135.819 255.959 138.157 252.896 138.157H250.156C247.093 138.157 244.997 135.738 243.385 131.869L233.068 106.963C231.536 103.416 228.393 102.771 228.393 100.676C228.393 99.0635 229.602 98.1768 232.906 98.1768H237.501C240.564 98.1768 242.74 100.514 244.352 104.383L253.138 125.34C253.299 125.663 253.46 125.824 253.622 125.824C253.863 125.824 254.025 125.663 254.105 125.34Z" fill="white"/>
<path d="M205.847 126.307C207.862 129.854 210.845 131.386 214.794 131.386C219.228 131.386 222.855 128.967 226.24 125.179C226.885 124.454 227.691 124.051 228.336 124.051C229.384 124.051 230.029 125.018 229.223 127.194C226.079 135.496 219.792 138.721 211.57 138.801C201.414 138.801 193.434 133.159 191.419 122.197C189.162 110.025 196.9 97.9348 210.764 97.4512C217.696 97.4512 224.225 99.1439 227.53 105.834C229.948 110.67 228.094 114.62 222.855 117.119L206.25 124.937C205.686 125.26 205.444 125.824 205.847 126.307ZM203.429 118.972L213.505 114.378C216.81 112.927 218.502 111.234 216.971 108.333C215.681 105.673 213.021 103.335 209.636 103.335C208.991 103.335 208.266 103.416 207.54 103.658C201.817 105.109 200.528 111.718 202.14 118.328C202.301 118.811 202.623 119.053 203.026 119.053C203.107 119.053 203.268 119.053 203.429 118.972Z" fill="white"/>
<path d="M153.297 110.106C153.297 100.595 162.728 97.4512 171.272 97.4512C176.672 97.4512 183.927 98.6602 186.425 104.303C188.038 108.01 185.861 110.831 183.04 110.831C181.992 110.831 180.864 110.428 179.816 109.542C175.866 106.156 174.254 102.852 170.546 102.852C166.516 102.852 164.259 104.867 164.259 108.252C164.259 117.199 187.554 114.056 187.876 126.711C188.199 136.383 178.607 138.801 170.143 138.801C162.002 138.801 154.829 136.544 152.41 131.224C150.798 127.678 152.733 125.582 155.393 125.582C156.683 125.582 158.133 126.066 159.342 127.194C162.97 130.338 164.743 133.401 169.579 133.401C173.69 133.401 176.35 131.547 176.35 128.323C176.269 121.149 153.297 123.728 153.297 110.106Z" fill="white"/>
<path d="M118.638 105.995C121.298 101.078 125.893 97.4512 131.616 97.4512C140.24 97.4512 145.318 102.287 145.318 110.831V128.645C145.318 132.595 148.784 132.03 148.784 135.013C148.784 137.108 147.575 137.834 145.641 138.076C143.626 138.318 141.691 138.479 139.837 138.479C137.741 138.479 135.726 138.318 133.792 138.076C131.374 137.753 130.084 137.108 130.084 135.013C130.084 132.03 134.195 132.595 134.195 128.645V114.297C134.195 108.413 131.938 105.189 127.747 105.189C121.782 105.189 118.396 115.668 118.074 120.665V128.645C118.074 132.595 121.54 132.03 121.54 135.013C121.54 137.108 120.331 137.834 118.396 138.076C116.381 138.318 114.447 138.479 112.593 138.479C110.497 138.479 108.482 138.318 106.548 138.076C104.13 137.753 102.84 137.108 102.84 135.174C102.84 132.353 106.951 132.836 106.951 129.048V108.01C106.951 104.786 102.84 104.303 102.84 101.078C102.84 99.3051 104.452 98.1766 107.757 98.1766H111.384C113.802 98.1766 116.623 99.3857 117.59 102.126C117.671 102.852 117.752 105.028 117.913 105.915C117.993 106.156 118.074 106.318 118.235 106.318C118.316 106.318 118.477 106.237 118.638 105.995Z" fill="white"/>
<path d="M73.1582 138.801C67.0323 138.801 59.6973 136.222 59.6973 127.678C59.6973 117.522 75.0927 114.7 83.7979 113.491C84.3622 113.411 84.6846 113.008 84.6846 112.444V110.67C84.6846 105.431 83.0725 102.207 79.1229 102.207C74.8509 102.207 73.1582 106.559 70.74 108.978C69.531 110.187 67.8383 110.751 66.3068 110.751C63.8081 110.751 61.4706 109.219 61.4706 106.398C61.4706 101.159 70.4176 97.4512 79.1229 97.4512C87.9893 97.4512 95.8886 101.078 95.8886 111.234V127.355C95.8886 132.675 99.1127 130.983 100.322 132.675C101.611 134.529 98.2261 138.398 93.148 138.398C90.6493 138.398 87.8281 137.592 86.2161 133.965C86.0548 133.642 85.8936 133.481 85.7324 133.481C85.5712 133.481 85.3294 133.642 85.1682 133.884C82.5083 136.867 78.3168 138.801 73.1582 138.801ZM71.5461 126.469C71.4655 130.338 74.3672 132.675 77.672 132.675C80.8156 132.675 84.2009 130.338 84.6846 127.114V119.134C84.6846 118.489 84.3622 118.408 83.7979 118.408C79.2841 119.134 71.7073 120.988 71.5461 126.469Z" fill="white"/>
<path d="M7.09271 94.7095C7.09271 90.9211 3.0625 90.6793 3.0625 87.3746C3.0625 85.5207 4.67458 84.1504 8.46298 84.1504H27.808C42.5586 84.1504 54.8104 92.2914 54.8104 111.475C54.8104 130.659 42.5586 138.155 27.808 138.155H7.33452C4.59398 138.155 3.0625 137.269 3.0625 135.173C3.0625 132.271 7.09271 132.271 7.09271 129.45V94.7095ZM20.5536 130.256C22.0851 130.981 25.3899 131.384 27.0826 131.384C35.143 131.384 41.5913 125.5 41.5913 111.314C41.5913 97.5307 35.143 90.9211 27.0826 90.9211C25.3899 90.9211 22.0045 91.3242 20.473 92.0496C19.1833 92.372 18.7803 94.0647 18.7803 95.838V127.112C18.7803 128.805 19.4252 129.934 20.5536 130.256Z" fill="white"/>
<path d="M281.691 15.8789H291.525L297.248 29.1786L308.049 15.8789H318.689L300.956 36.03L311.595 57.5513H301.601L294.83 42.2365L282.094 57.5513H271.535L290.88 35.3851L281.691 15.8789Z" fill="white"/>
<path d="M219.664 15.8804H228.288L226.999 21.9257L227.16 22.0869C228.826 19.7763 230.895 17.9761 233.366 16.6865C235.892 15.3968 238.606 14.752 241.507 14.752C245.699 14.752 248.762 15.7461 250.696 17.7343C252.685 19.7225 253.679 22.4094 253.679 25.7947C253.679 26.547 253.652 27.4068 253.598 28.3741C253.544 29.3413 253.437 30.2011 253.276 30.9534L247.714 57.5528H238.525L243.845 31.84C244.006 31.1415 244.141 30.4698 244.248 29.8249C244.409 29.1801 244.49 28.5621 244.49 27.971C244.49 27.6486 244.463 27.165 244.409 26.5202C244.409 25.8216 244.221 25.1499 243.845 24.5051C243.469 23.8065 242.824 23.2154 241.91 22.7318C241.051 22.2481 239.788 22.0063 238.122 22.0063C236.295 22.0063 234.656 22.4094 233.205 23.2154C231.808 23.9677 230.545 24.9081 229.417 26.0365C228.342 27.1113 227.402 28.4547 226.596 30.0668C225.843 31.6251 225.279 33.2641 224.903 34.9836L220.228 57.5528H211.039L219.664 15.8804Z" fill="white"/>
<path d="M201.394 33.0491C201.447 32.7804 201.474 32.5655 201.474 32.4043C201.474 32.1893 201.474 31.9744 201.474 31.7594V30.4698C201.474 27.9979 200.695 25.9828 199.137 24.4245C197.578 22.8124 195.429 22.0063 192.688 22.0063C189.249 22.0063 186.509 23.0542 184.467 25.1499C182.425 27.1919 180.947 29.8249 180.034 33.0491H201.394ZM208.084 44.6561C206.633 49.5461 204.188 53.1196 200.749 55.3765C197.31 57.5797 193.065 58.6813 188.013 58.6813C185.38 58.6813 182.935 58.2782 180.678 57.4722C178.475 56.6124 176.568 55.4033 174.956 53.845C173.343 52.2329 172.081 50.3253 171.167 48.1221C170.254 45.8652 169.797 43.3127 169.797 40.4647C169.797 37.2405 170.307 34.097 171.328 31.034C172.349 27.971 173.827 25.2305 175.762 22.8124C177.75 20.3942 180.168 18.4597 183.016 17.0089C185.918 15.5043 189.222 14.752 192.93 14.752C196.638 14.752 199.647 15.3699 201.958 16.6058C204.269 17.8418 206.069 19.4001 207.358 21.2809C208.648 23.1617 209.508 25.2305 209.938 27.4874C210.421 29.7443 210.663 31.8938 210.663 33.9358C210.663 34.9567 210.609 35.8971 210.502 36.7569C210.395 37.6167 210.287 38.3959 210.18 39.0944H179.147C179.093 39.3631 179.039 39.6049 178.986 39.8199C178.986 40.0348 178.986 40.2498 178.986 40.4647V41.7544C178.986 44.6561 179.738 46.9936 181.243 48.7669C182.801 50.5402 185.353 51.4269 188.9 51.4269C191.372 51.4269 193.495 50.8626 195.268 49.7342C197.041 48.6057 198.25 46.913 198.895 44.6561H208.084Z" fill="white"/>
<path d="M158.378 33.0491C158.432 32.7804 158.459 32.5655 158.459 32.4043C158.459 32.1893 158.459 31.9744 158.459 31.7594V30.4698C158.459 27.9979 157.68 25.9828 156.121 24.4245C154.563 22.8124 152.413 22.0063 149.673 22.0063C146.234 22.0063 143.493 23.0542 141.451 25.1499C139.409 27.1919 137.931 29.8249 137.018 33.0491H158.378ZM165.068 44.6561C163.617 49.5461 161.172 53.1196 157.733 55.3765C154.294 57.5797 150.049 58.6813 144.998 58.6813C142.365 58.6813 139.92 58.2782 137.663 57.4722C135.46 56.6124 133.552 55.4033 131.94 53.845C130.328 52.2329 129.065 50.3253 128.152 48.1221C127.238 45.8652 126.781 43.3127 126.781 40.4647C126.781 37.2405 127.292 34.097 128.313 31.034C129.334 27.971 130.811 25.2305 132.746 22.8124C134.734 20.3942 137.152 18.4597 140 17.0089C142.902 15.5043 146.207 14.752 149.915 14.752C153.622 14.752 156.632 15.3699 158.942 16.6058C161.253 17.8418 163.053 19.4001 164.343 21.2809C165.632 23.1617 166.492 25.2305 166.922 27.4874C167.406 29.7443 167.648 31.8938 167.648 33.9358C167.648 34.9567 167.594 35.8971 167.486 36.7569C167.379 37.6167 167.271 38.3959 167.164 39.0944H136.131C136.078 39.3631 136.024 39.6049 135.97 39.8199C135.97 40.0348 135.97 40.2498 135.97 40.4647V41.7544C135.97 44.6561 136.722 46.9936 138.227 48.7669C139.785 50.5402 142.338 51.4269 145.884 51.4269C148.356 51.4269 150.479 50.8626 152.252 49.7342C154.025 48.6057 155.235 46.913 155.879 44.6561H165.068Z" fill="white"/>
<path d="M105.572 15.8804H114.277L112.584 24.0214L112.746 24.1826C113.391 23.0542 114.17 21.9257 115.083 20.7973C116.05 19.6688 117.098 18.6747 118.227 17.8149C119.355 16.9014 120.564 16.176 121.854 15.6386C123.197 15.0475 124.595 14.752 126.045 14.752C126.798 14.752 127.523 14.7788 128.222 14.8326C128.974 14.8326 129.726 14.8863 130.479 14.9938L128.544 23.7796C128.007 23.6722 127.469 23.5915 126.932 23.5378C126.395 23.4841 125.857 23.4572 125.32 23.4572C122.956 23.4572 120.887 23.8871 119.113 24.7469C117.394 25.5529 115.916 26.6814 114.68 28.1323C113.498 29.5831 112.531 31.2489 111.778 33.1297C111.026 35.0105 110.435 36.9987 110.005 39.0944L106.136 57.5528H96.9473L105.572 15.8804Z" fill="white"/>
<path d="M63.3627 46.107C63.3627 47.128 63.5777 47.9878 64.0075 48.6863C64.4912 49.3312 65.0823 49.8685 65.7808 50.2984C66.4794 50.6746 67.2586 50.9701 68.1184 51.1851C68.9781 51.3463 69.8379 51.4269 70.6977 51.4269C72.9546 51.4269 74.8354 51.0507 76.34 50.2984C77.8983 49.5461 79.1611 48.5251 80.1284 47.2355C81.1494 45.9458 81.9285 44.4412 82.4659 42.7216C83.057 40.9483 83.5138 39.0676 83.8362 37.0793L83.675 36.9181C83.0301 37.5629 82.1704 38.0197 81.0956 38.2884C80.0209 38.5571 78.9731 38.7451 77.9521 38.8526C76.6624 38.9601 75.1578 39.0676 73.4382 39.175C71.7724 39.2825 70.1872 39.5781 68.6826 40.0617C67.2317 40.4916 65.9689 41.1901 64.8942 42.1574C63.8732 43.0709 63.3627 44.3874 63.3627 46.107ZM91.01 45.4622C90.8487 46.2145 90.6607 46.9399 90.4457 47.6385C90.2845 48.337 90.2039 48.9819 90.2039 49.573C90.2039 50.1641 90.3383 50.6208 90.6069 50.9432C90.8756 51.2657 91.3861 51.4269 92.1384 51.4269C92.6758 51.4269 93.2131 51.3731 93.7505 51.2657C94.2879 51.1045 94.8252 50.997 95.3626 50.9432L93.9117 57.5528C92.7295 57.8215 91.5473 58.0633 90.3651 58.2782C89.1829 58.5469 87.9739 58.6813 86.7379 58.6813C85.1796 58.6813 83.8899 58.1976 82.8689 57.2304C81.8479 56.2631 81.2837 54.9735 81.1762 53.3614C79.3492 55.1884 77.1998 56.5318 74.7279 57.3916C72.256 58.2514 69.7304 58.6813 67.1511 58.6813C65.4316 58.6813 63.7926 58.4394 62.2342 57.9558C60.6759 57.4722 59.2788 56.7736 58.0428 55.8601C56.8606 54.9466 55.9203 53.7913 55.2217 52.3941C54.5231 50.997 54.1738 49.3849 54.1738 47.5579C54.1738 44.9785 54.6575 42.8291 55.6247 41.1095C56.592 39.3362 57.8816 37.8854 59.4937 36.7569C61.1058 35.6284 62.9597 34.7955 65.0554 34.2582C67.1511 33.7208 69.3543 33.3715 71.6649 33.2103C74.7816 32.9954 77.8446 32.7536 80.8538 32.4849C82.5196 32.3774 83.7287 31.84 84.481 30.8728C85.2871 29.8518 85.6901 28.5621 85.6901 27.0038C85.6901 25.0156 84.9915 23.699 83.5944 23.0542C82.1972 22.3556 80.5583 22.0063 78.6775 22.0063C76.0982 22.0063 73.8681 22.4631 71.9874 23.3766C70.1603 24.2364 68.9244 25.9559 68.2796 28.5353H59.5743C60.0579 25.9559 60.8908 23.8065 62.073 22.0869C63.2552 20.3136 64.7061 18.8896 66.4257 17.8149C68.1452 16.6865 70.0797 15.9073 72.2292 15.4774C74.4324 14.9938 76.7699 14.752 79.2417 14.752C83.0033 14.752 85.9319 15.1281 88.0276 15.8804C90.177 16.579 91.7354 17.4388 92.7026 18.4597C93.7236 19.4807 94.3416 20.5555 94.5565 21.6839C94.7715 22.7586 94.879 23.6722 94.879 24.4245C94.879 26.2515 94.6103 28.3472 94.0729 30.7116L91.01 45.4622Z" fill="white"/>
<path d="M11.7682 49.3298H26.1964C27.0561 49.3298 28.2652 49.3029 29.8236 49.2492C31.3819 49.1954 32.9671 48.9268 34.5792 48.4431C36.1913 47.9058 37.6153 47.0191 38.8512 45.7832C40.1409 44.5473 40.8932 42.7471 41.1082 40.3827C41.1619 39.6841 41.135 38.8244 41.0275 37.8034C40.9738 36.7824 40.5977 35.7883 39.8991 34.821C39.2543 33.8538 38.2064 33.0477 36.7555 32.4029C35.3584 31.7043 33.3701 31.355 30.7908 31.355H15.5566L11.7682 49.3298ZM17.0075 24.1007H32.0805C34.5523 24.1007 36.5406 23.7782 38.0452 23.1334C39.5498 22.4886 40.7051 21.7094 41.5112 20.7959C42.3172 19.8286 42.8546 18.8345 43.1233 17.8135C43.3919 16.7388 43.5263 15.8253 43.5263 15.073C43.5263 14.4819 43.4457 13.8102 43.2845 13.0579C43.1233 12.2518 42.7471 11.4995 42.156 10.801C41.5649 10.0487 40.6783 9.43069 39.4961 8.94707C38.3139 8.46344 36.7018 8.22163 34.6598 8.22163H20.3123L17.0075 24.1007ZM11.9294 0H36.7555C40.5708 0 43.58 0.510493 45.7832 1.53148C48.0401 2.55247 49.7328 3.76153 50.8613 5.15867C52.0435 6.55581 52.7958 8.03356 53.1182 9.5919C53.4406 11.1502 53.6018 12.4399 53.6018 13.4609C53.6018 15.1805 53.3331 16.8194 52.7958 18.3778C52.3121 19.8824 51.5867 21.2526 50.6194 22.4886C49.6522 23.7245 48.47 24.7455 47.0729 25.5515C45.7295 26.3576 44.2248 26.8949 42.559 27.1636V27.3248C48.3088 29.1519 51.1837 33.1821 51.1837 39.4155C51.1837 40.9201 50.8881 42.7202 50.297 44.8159C49.7059 46.8579 48.6043 48.8462 46.9923 50.7807C45.4339 52.6614 43.2307 54.2735 40.3827 55.6169C37.5884 56.9066 33.9881 57.5514 29.5817 57.5514H0L11.9294 0Z" fill="white"/>
</svg>
