<svg width="892" height="63" viewBox="0 0 892 63" fill="none" xmlns="http://www.w3.org/2000/svg">
<path d="M846.826 40.4633C846.826 25.9546 856.257 19.748 866.413 19.748C870.363 19.748 873.345 20.7959 875.441 22.9722C875.682 23.1334 875.924 23.214 876.086 23.214C876.489 23.214 876.65 22.8916 876.65 22.2468V9.91432C876.65 6.60955 872.539 6.20653 872.539 2.98236C872.539 1.12846 874.232 0 877.536 0H881.083C884.146 0 887.773 2.01511 887.773 6.28713V50.7807C887.773 54.4885 891.803 54.3272 891.803 57.3902C891.803 60.1307 889.224 60.5338 887.128 60.5338C883.662 60.5338 881.164 59.0023 879.471 56.6648C879.229 56.2617 878.907 56.1005 878.584 56.1005C878.262 56.1005 877.939 56.2617 877.617 56.6648C875.441 59.5665 872.136 61.098 867.461 61.098C856.257 61.098 846.826 54.8915 846.826 40.4633ZM866.816 25.0679C861.819 25.4709 858.353 29.9848 858.917 40.9469C859.239 46.9923 860.771 56.1005 868.509 56.1005C872.861 55.8587 876.086 51.8285 876.65 45.8638V36.1107C875.36 27.9697 872.297 25.0679 867.622 25.0679H866.816Z" fill="white"/>
<path d="M813.136 28.2921C815.796 23.3752 820.391 19.748 826.114 19.748C834.738 19.748 839.816 24.5843 839.816 33.1283V50.9419C839.816 54.8915 843.282 54.3273 843.282 57.3096C843.282 59.4053 842.073 60.1308 840.139 60.3726C838.124 60.6144 836.189 60.7756 834.335 60.7756C832.24 60.7756 830.224 60.6144 828.29 60.3726C825.872 60.0501 824.582 59.4053 824.582 57.3096C824.582 54.3273 828.693 54.8915 828.693 50.9419V36.5943C828.693 30.7102 826.436 27.4861 822.245 27.4861C816.28 27.4861 812.894 37.9646 812.572 42.9621V50.9419C812.572 54.8915 816.038 54.3273 816.038 57.3096C816.038 59.4053 814.829 60.1308 812.895 60.3726C810.879 60.6144 808.945 60.7756 807.091 60.7756C804.995 60.7756 802.98 60.6144 801.046 60.3726C798.628 60.0501 797.338 59.4053 797.338 57.4708C797.338 54.6497 801.449 55.1333 801.449 51.3449V30.3072C801.449 27.083 797.338 26.5994 797.338 23.3752C797.338 21.6019 798.95 20.4735 802.255 20.4735H805.882C808.3 20.4735 811.121 21.6825 812.088 24.4231C812.169 25.1485 812.25 27.3248 812.411 28.2115C812.491 28.4533 812.572 28.6145 812.733 28.6145C812.814 28.6145 812.975 28.5339 813.136 28.2921Z" fill="white"/>
<path d="M767.656 61.098C761.53 61.098 754.195 58.5187 754.195 49.9746C754.195 39.8185 769.591 36.9973 778.296 35.7883C778.86 35.7077 779.183 35.3047 779.183 34.7404V32.9671C779.183 27.7279 777.571 24.5037 773.621 24.5037C769.349 24.5037 767.656 28.8563 765.238 31.2745C764.029 32.4835 762.336 33.0477 760.805 33.0477C758.306 33.0477 755.969 31.5163 755.969 28.6951C755.969 23.4558 764.916 19.748 773.621 19.748C782.487 19.748 790.387 23.3752 790.387 33.5314V49.6522C790.387 54.9721 793.611 53.2794 794.82 54.9721C796.109 56.826 792.724 60.695 787.646 60.695C785.147 60.695 782.326 59.8889 780.714 56.2618C780.553 55.9393 780.392 55.7781 780.23 55.7781C780.069 55.7781 779.827 55.9393 779.666 56.1811C777.006 59.1635 772.815 61.098 767.656 61.098ZM766.044 48.7656C765.964 52.6346 768.865 54.9721 772.17 54.9721C775.314 54.9721 778.699 52.6346 779.183 49.4104V41.4306C779.183 40.7857 778.86 40.7051 778.296 40.7051C773.782 41.4306 766.205 43.2845 766.044 48.7656Z" fill="white"/>
<path d="M736.043 47.6373L742.733 31.0329C744.748 25.3906 740.315 24.3427 741.443 21.9246C742.008 20.7961 745.232 20.3125 748.295 20.3125C751.358 20.3125 754.34 20.8767 754.582 22.247C754.904 24.8263 751.196 26.2772 749.101 31.5165L739.992 54.1663C738.461 58.1159 737.897 60.4534 734.834 60.4534H732.093C729.03 60.4534 726.935 58.0353 725.322 54.1663L715.005 29.2596C713.474 25.713 710.33 25.0682 710.33 22.9724C710.33 21.3604 711.539 20.4737 714.844 20.4737H719.438C722.501 20.4737 724.678 22.8112 726.29 26.6802L735.076 47.6373C735.237 47.9598 735.398 48.121 735.559 48.121C735.801 48.121 735.962 47.9598 736.043 47.6373Z" fill="white"/>
<path d="M687.785 48.6044C689.8 52.1509 692.782 53.6824 696.732 53.6824C701.165 53.6824 704.792 51.2643 708.178 47.4759C708.823 46.7505 709.629 46.3474 710.273 46.3474C711.321 46.3474 711.966 47.3147 711.16 49.491C708.017 57.7932 701.729 61.0174 693.508 61.098C683.352 61.098 675.372 55.4557 673.357 44.4935C671.1 32.3223 678.838 20.2317 692.702 19.748C699.634 19.748 706.163 21.4407 709.467 28.1309C711.886 32.9671 710.032 36.9167 704.792 39.4155L688.188 47.2341C687.624 47.5565 687.382 48.1207 687.785 48.6044ZM685.367 41.2694L695.442 36.6749C698.747 35.2241 700.44 33.5314 698.908 30.6296C697.619 27.9697 694.959 25.6322 691.573 25.6322C690.928 25.6322 690.203 25.7128 689.478 25.9546C683.755 27.4054 682.465 34.015 684.077 40.6245C684.238 41.1082 684.561 41.35 684.964 41.35C685.044 41.35 685.206 41.35 685.367 41.2694Z" fill="white"/>
<path d="M635.235 32.4029C635.235 22.8916 644.665 19.748 653.209 19.748C658.61 19.748 665.864 20.9571 668.363 26.5994C669.975 30.3072 667.799 33.1283 664.978 33.1283C663.93 33.1283 662.801 32.7253 661.753 31.8387C657.804 28.4533 656.192 25.1485 652.484 25.1485C648.454 25.1485 646.197 27.1636 646.197 30.549C646.197 39.4961 669.491 36.3525 669.814 49.0074C670.136 58.6799 660.544 61.098 652.081 61.098C643.94 61.098 636.766 58.8411 634.348 53.5212C632.736 49.9746 634.67 47.8789 637.33 47.8789C638.62 47.8789 640.071 48.3625 641.28 49.491C644.907 52.6346 646.68 55.6975 651.517 55.6975C655.628 55.6975 658.287 53.8436 658.287 50.6195C658.207 43.4457 635.235 46.025 635.235 32.4029Z" fill="white"/>
<path d="M600.576 28.2921C603.236 23.3752 607.83 19.748 613.553 19.748C622.178 19.748 627.256 24.5843 627.256 33.1283V50.9419C627.256 54.8915 630.722 54.3273 630.722 57.3096C630.722 59.4053 629.513 60.1308 627.578 60.3726C625.563 60.6144 623.629 60.7756 621.775 60.7756C619.679 60.7756 617.664 60.6144 615.729 60.3726C613.311 60.0501 612.022 59.4053 612.022 57.3096C612.022 54.3273 616.132 54.8915 616.132 50.9419V36.5943C616.132 30.7102 613.875 27.4861 609.684 27.4861C603.719 27.4861 600.334 37.9646 600.012 42.9621V50.9419C600.012 54.8915 603.478 54.3273 603.478 57.3096C603.478 59.4053 602.268 60.1308 600.334 60.3726C598.319 60.6144 596.384 60.7756 594.53 60.7756C592.435 60.7756 590.42 60.6144 588.485 60.3726C586.067 60.0501 584.777 59.4053 584.777 57.4708C584.777 54.6497 588.888 55.1333 588.888 51.3449V30.3072C588.888 27.083 584.777 26.5994 584.777 23.3752C584.777 21.6019 586.389 20.4735 589.694 20.4735H593.321C595.74 20.4735 598.561 21.6825 599.528 24.4231C599.609 25.1485 599.689 27.3248 599.85 28.2115C599.931 28.4533 600.012 28.6145 600.173 28.6145C600.253 28.6145 600.415 28.5339 600.576 28.2921Z" fill="white"/>
<path d="M555.096 61.098C548.97 61.098 541.635 58.5187 541.635 49.9746C541.635 39.8185 557.03 36.9973 565.735 35.7883C566.3 35.7077 566.622 35.3047 566.622 34.7404V32.9671C566.622 27.7279 565.01 24.5037 561.06 24.5037C556.788 24.5037 555.096 28.8563 552.678 31.2745C551.468 32.4835 549.776 33.0477 548.244 33.0477C545.746 33.0477 543.408 31.5163 543.408 28.6951C543.408 23.4558 552.355 19.748 561.06 19.748C569.927 19.748 577.826 23.3752 577.826 33.5314V49.6522C577.826 54.9721 581.05 53.2794 582.259 54.9721C583.549 56.826 580.164 60.695 575.086 60.695C572.587 60.695 569.766 59.8889 568.154 56.2618C567.992 55.9393 567.831 55.7781 567.67 55.7781C567.509 55.7781 567.267 55.9393 567.106 56.1811C564.446 59.1635 560.254 61.098 555.096 61.098ZM553.484 48.7656C553.403 52.6346 556.305 54.9721 559.61 54.9721C562.753 54.9721 566.138 52.6346 566.622 49.4104V41.4306C566.622 40.7857 566.3 40.7051 565.735 40.7051C561.222 41.4306 553.645 43.2845 553.484 48.7656Z" fill="white"/>
<path d="M489.03 17.0064C489.03 13.218 485 12.9762 485 9.67143C485 7.81753 486.612 6.44727 490.4 6.44727H509.745C524.496 6.44727 536.748 14.5883 536.748 33.7721C536.748 52.9559 524.496 60.4521 509.745 60.4521H489.272C486.531 60.4521 485 59.5654 485 57.4697C485 54.568 489.03 54.568 489.03 51.7468V17.0064ZM502.491 52.5529C504.023 53.2783 507.327 53.6813 509.02 53.6813C517.08 53.6813 523.529 47.7972 523.529 33.6109C523.529 19.8276 517.08 13.218 509.02 13.218C507.327 13.218 503.942 13.621 502.411 14.3465C501.121 14.6689 500.718 16.3616 500.718 18.1349V49.4093C500.718 51.102 501.363 52.2305 502.491 52.5529Z" fill="white"/>
<path d="M219.664 18.8785H228.288L226.999 24.9238L227.16 25.085C228.826 22.7743 230.895 20.9742 233.366 19.6845C235.892 18.3948 238.606 17.75 241.507 17.75C245.699 17.75 248.762 18.7441 250.696 20.7324C252.685 22.7206 253.679 25.4074 253.679 28.7928C253.679 29.5451 253.652 30.4049 253.598 31.3721C253.544 32.3394 253.437 33.1991 253.276 33.9514L247.714 60.5508H238.525L243.845 34.8381C244.006 34.1395 244.141 33.4678 244.248 32.823C244.409 32.1782 244.49 31.5602 244.49 30.9691C244.49 30.6467 244.463 30.163 244.409 29.5182C244.409 28.8196 244.221 28.1479 243.845 27.5031C243.469 26.8045 242.824 26.2134 241.91 25.7298C241.051 25.2462 239.788 25.0044 238.122 25.0044C236.295 25.0044 234.656 25.4074 233.205 26.2134C231.808 26.9657 230.545 27.9061 229.417 29.0346C228.342 30.1093 227.402 31.4527 226.596 33.0648C225.843 34.6231 225.279 36.2621 224.903 37.9817L220.228 60.5508H211.039L219.664 18.8785Z" fill="white"/>
<path d="M201.394 36.0472C201.447 35.7785 201.474 35.5635 201.474 35.4023C201.474 35.1874 201.474 34.9724 201.474 34.7575V33.4678C201.474 30.996 200.695 28.9809 199.137 27.4225C197.578 25.8104 195.429 25.0044 192.688 25.0044C189.249 25.0044 186.509 26.0522 184.467 28.1479C182.425 30.1899 180.947 32.823 180.034 36.0472H201.394ZM208.084 47.6542C206.633 52.5442 204.188 56.1176 200.749 58.3745C197.31 60.5777 193.065 61.6793 188.013 61.6793C185.38 61.6793 182.935 61.2763 180.678 60.4702C178.475 59.6105 176.568 58.4014 174.956 56.843C173.343 55.231 172.081 53.3233 171.167 51.1201C170.254 48.8632 169.797 46.3108 169.797 43.4627C169.797 40.2386 170.307 37.095 171.328 34.0321C172.349 30.9691 173.827 28.2285 175.762 25.8104C177.75 23.3923 180.168 21.4578 183.016 20.0069C185.918 18.5023 189.222 17.75 192.93 17.75C196.638 17.75 199.647 18.368 201.958 19.6039C204.269 20.8398 206.069 22.3982 207.358 24.2789C208.648 26.1597 209.508 28.2285 209.938 30.4855C210.421 32.7424 210.663 34.8918 210.663 36.9338C210.663 37.9548 210.609 38.8952 210.502 39.7549C210.395 40.6147 210.287 41.3939 210.18 42.0925H179.147C179.093 42.3612 179.039 42.603 178.986 42.8179C178.986 43.0329 178.986 43.2478 178.986 43.4627V44.7524C178.986 47.6542 179.738 49.9917 181.243 51.765C182.801 53.5383 185.353 54.4249 188.9 54.4249C191.372 54.4249 193.495 53.8607 195.268 52.7322C197.041 51.6038 198.25 49.9111 198.895 47.6542H208.084Z" fill="white"/>
<path d="M158.378 36.0472C158.432 35.7785 158.459 35.5635 158.459 35.4023C158.459 35.1874 158.459 34.9724 158.459 34.7575V33.4678C158.459 30.996 157.68 28.9809 156.121 27.4225C154.563 25.8104 152.413 25.0044 149.673 25.0044C146.234 25.0044 143.493 26.0522 141.451 28.1479C139.409 30.1899 137.931 32.823 137.018 36.0472H158.378ZM165.068 47.6542C163.617 52.5442 161.172 56.1176 157.733 58.3745C154.294 60.5777 150.049 61.6793 144.998 61.6793C142.365 61.6793 139.92 61.2763 137.663 60.4702C135.46 59.6105 133.552 58.4014 131.94 56.843C130.328 55.231 129.065 53.3233 128.152 51.1201C127.238 48.8632 126.781 46.3108 126.781 43.4627C126.781 40.2386 127.292 37.095 128.313 34.0321C129.334 30.9691 130.811 28.2285 132.746 25.8104C134.734 23.3923 137.152 21.4578 140 20.0069C142.902 18.5023 146.207 17.75 149.915 17.75C153.622 17.75 156.632 18.368 158.942 19.6039C161.253 20.8398 163.053 22.3982 164.343 24.2789C165.632 26.1597 166.492 28.2285 166.922 30.4855C167.406 32.7424 167.648 34.8918 167.648 36.9338C167.648 37.9548 167.594 38.8952 167.486 39.7549C167.379 40.6147 167.271 41.3939 167.164 42.0925H136.131C136.078 42.3612 136.024 42.603 135.97 42.8179C135.97 43.0329 135.97 43.2478 135.97 43.4627V44.7524C135.97 47.6542 136.722 49.9917 138.227 51.765C139.785 53.5383 142.338 54.4249 145.884 54.4249C148.356 54.4249 150.479 53.8607 152.252 52.7322C154.025 51.6038 155.235 49.9111 155.879 47.6542H165.068Z" fill="white"/>
<path d="M105.572 18.8785H114.277L112.584 27.0195L112.746 27.1807C113.391 26.0522 114.17 24.9238 115.083 23.7953C116.05 22.6669 117.098 21.6727 118.227 20.813C119.355 19.8994 120.564 19.174 121.854 18.6366C123.197 18.0455 124.595 17.75 126.045 17.75C126.798 17.75 127.523 17.7769 128.222 17.8306C128.974 17.8306 129.726 17.8843 130.479 17.9918L128.544 26.7777C128.007 26.6702 127.469 26.5896 126.932 26.5359C126.395 26.4821 125.857 26.4553 125.32 26.4553C122.956 26.4553 120.887 26.8851 119.113 27.7449C117.394 28.551 115.916 29.6794 114.68 31.1303C113.498 32.5812 112.531 34.247 111.778 36.1278C111.026 38.0085 110.435 39.9968 110.005 42.0925L106.136 60.5508H96.9473L105.572 18.8785Z" fill="white"/>
<path d="M63.3627 49.105C63.3627 50.126 63.5777 50.9858 64.0075 51.6844C64.4912 52.3292 65.0823 52.8666 65.7808 53.2965C66.4794 53.6726 67.2586 53.9682 68.1184 54.1831C68.9781 54.3443 69.8379 54.4249 70.6977 54.4249C72.9546 54.4249 74.8354 54.0488 76.34 53.2965C77.8983 52.5442 79.1611 51.5232 80.1284 50.2335C81.1494 48.9438 81.9285 47.4392 82.4659 45.7197C83.057 43.9464 83.5138 42.0656 83.8362 40.0774L83.675 39.9162C83.0301 40.561 82.1704 41.0177 81.0956 41.2864C80.0209 41.5551 78.9731 41.7432 77.9521 41.8507C76.6624 41.9581 75.1578 42.0656 73.4382 42.1731C71.7724 42.2805 70.1872 42.5761 68.6826 43.0597C67.2317 43.4896 65.9689 44.1882 64.8942 45.1554C63.8732 46.069 63.3627 47.3855 63.3627 49.105ZM91.01 48.4602C90.8487 49.2125 90.6607 49.938 90.4457 50.6365C90.2845 51.3351 90.2039 51.9799 90.2039 52.571C90.2039 53.1621 90.3383 53.6189 90.6069 53.9413C90.8756 54.2637 91.3861 54.4249 92.1384 54.4249C92.6758 54.4249 93.2131 54.3712 93.7505 54.2637C94.2879 54.1025 94.8252 53.995 95.3626 53.9413L93.9117 60.5508C92.7295 60.8195 91.5473 61.0613 90.3651 61.2763C89.1829 61.545 87.9739 61.6793 86.7379 61.6793C85.1796 61.6793 83.8899 61.1957 82.8689 60.2284C81.8479 59.2612 81.2837 57.9715 81.1762 56.3594C79.3492 58.1865 77.1998 59.5299 74.7279 60.3896C72.256 61.2494 69.7304 61.6793 67.1511 61.6793C65.4316 61.6793 63.7926 61.4375 62.2342 60.9539C60.6759 60.4702 59.2788 59.7717 58.0428 58.8582C56.8606 57.9446 55.9203 56.7893 55.2217 55.3922C54.5231 53.995 54.1738 52.3829 54.1738 50.5559C54.1738 47.9766 54.6575 45.8271 55.6247 44.1076C56.592 42.3343 57.8816 40.8834 59.4937 39.7549C61.1058 38.6265 62.9597 37.7936 65.0554 37.2562C67.1511 36.7189 69.3543 36.3696 71.6649 36.2084C74.7816 35.9934 77.8446 35.7516 80.8538 35.4829C82.5196 35.3755 83.7287 34.8381 84.481 33.8708C85.2871 32.8499 85.6901 31.5602 85.6901 30.0018C85.6901 28.0136 84.9915 26.6971 83.5944 26.0522C82.1972 25.3537 80.5583 25.0044 78.6775 25.0044C76.0982 25.0044 73.8681 25.4611 71.9874 26.3747C70.1603 27.2344 68.9244 28.954 68.2796 31.5333H59.5743C60.0579 28.954 60.8908 26.8045 62.073 25.085C63.2552 23.3117 64.7061 21.8877 66.4257 20.813C68.1452 19.6845 70.0797 18.9053 72.2292 18.4754C74.4324 17.9918 76.7699 17.75 79.2417 17.75C83.0033 17.75 85.9319 18.1262 88.0276 18.8785C90.177 19.577 91.7354 20.4368 92.7026 21.4578C93.7236 22.4788 94.3416 23.5535 94.5565 24.682C94.7715 25.7567 94.879 26.6702 94.879 27.4225C94.879 29.2495 94.6103 31.3452 94.0729 33.7096L91.01 48.4602Z" fill="white"/>
<path d="M11.7682 52.3298H26.1964C27.0561 52.3298 28.2652 52.3029 29.8236 52.2492C31.3819 52.1954 32.9671 51.9268 34.5792 51.4431C36.1913 50.9058 37.6153 50.0191 38.8512 48.7832C40.1409 47.5473 40.8932 45.7471 41.1082 43.3827C41.1619 42.6841 41.135 41.8244 41.0275 40.8034C40.9738 39.7824 40.5977 38.7883 39.8991 37.821C39.2543 36.8538 38.2064 36.0477 36.7555 35.4029C35.3584 34.7043 33.3701 34.355 30.7908 34.355H15.5566L11.7682 52.3298ZM17.0075 27.1007H32.0805C34.5523 27.1007 36.5406 26.7782 38.0452 26.1334C39.5498 25.4886 40.7051 24.7094 41.5112 23.7959C42.3172 22.8286 42.8546 21.8345 43.1233 20.8135C43.3919 19.7388 43.5263 18.8253 43.5263 18.073C43.5263 17.4819 43.4457 16.8102 43.2845 16.0579C43.1233 15.2518 42.7471 14.4995 42.156 13.801C41.5649 13.0487 40.6783 12.4307 39.4961 11.9471C38.3139 11.4634 36.7018 11.2216 34.6598 11.2216H20.3123L17.0075 27.1007ZM11.9294 3H36.7555C40.5708 3 43.58 3.51049 45.7832 4.53148C48.0401 5.55247 49.7328 6.76153 50.8613 8.15867C52.0435 9.55581 52.7958 11.0336 53.1182 12.5919C53.4406 14.1502 53.6018 15.4399 53.6018 16.4609C53.6018 18.1805 53.3331 19.8194 52.7958 21.3778C52.3121 22.8824 51.5867 24.2526 50.6194 25.4886C49.6522 26.7245 48.47 27.7455 47.0729 28.5515C45.7295 29.3576 44.2248 29.8949 42.559 30.1636V30.3248C48.3088 32.1519 51.1837 36.1821 51.1837 42.4155C51.1837 43.9201 50.8881 45.7202 50.297 47.8159C49.7059 49.8579 48.6043 51.8462 46.9923 53.7807C45.4339 55.6614 43.2307 57.2735 40.3827 58.6169C37.5884 59.9066 33.9881 60.5514 29.5817 60.5514H0L11.9294 3Z" fill="white"/>
<path d="M368.18 44.68L357.38 29.98H363.92L371.36 40.84L379.1 29.98H385.22L374.54 44.26L386.54 61H380L371.36 48.16L362.72 61H356.54L368.18 44.68Z" fill="white"/>
</svg>
