<svg width="749" height="813" viewBox="0 0 749 813" fill="none" xmlns="http://www.w3.org/2000/svg">
<rect width="749" height="813" fill="url(#paint0_linear_189_3393)"/>
<g clip-path="url(#clip0_189_3393)">
<path d="M486 666.391H262.238V731.999H486V666.391Z" fill="black"/>
<path d="M443.688 604.965H303.655L263.73 665.749H484.21L443.688 604.965Z" fill="#FF7BAC" stroke="#FBB03B" stroke-width="3" stroke-miterlimit="10"/>
<path d="M303.41 604.643L311.466 632.622" stroke="#FBB03B" stroke-width="3" stroke-miterlimit="10"/>
<path d="M459.745 664.462H287.896L310.171 629.729H437.47L459.745 664.462Z" fill="#333333"/>
<path d="M262.238 711.171H485.964V711.364H486V688.26H262.238V711.171Z" fill="#0000FF"/>
</g>
<g clip-path="url(#clip1_189_3393)">
<path d="M578.691 556.975C585.793 531.868 597.282 475.622 568.405 419.878C563.801 410.982 558.636 403.03 553.265 395.93C559.324 382.744 562.658 368.652 562.74 353.985C563.155 279.533 480.01 218.716 377.032 218.142C274.054 217.567 190.226 277.452 189.81 351.904C189.755 361.771 191.176 371.388 193.911 380.667C187.991 389.687 182.408 400.021 177.87 411.75C155.251 470.137 173.082 525.129 182.906 549.316L150.858 570.931C150.808 579.916 158.6 587.317 168.176 587.371L207.351 587.589C216.926 587.643 224.8 580.329 224.851 571.344L224.881 565.893C224.931 556.907 248.341 506.016 257.361 466.664C258.068 463.593 258.679 460.569 259.222 457.574C291.026 476.221 331.45 487.502 375.509 487.748C419.567 487.994 457.631 477.812 489.166 460.524C490.774 467.517 492.812 474.742 495.385 482.142C508.58 520.037 536.85 567.883 536.821 573.075L536.79 578.526C536.74 587.511 544.532 594.912 554.108 594.966L593.282 595.184C602.858 595.238 610.732 587.924 610.782 578.939L578.653 556.975L578.691 556.975Z" fill="#FFDAC2"/>
<path d="M550.11 309.205L483.541 248.395C476.672 242.12 465.591 242.259 458.919 248.698L429.573 276.986C422.892 283.425 423.044 293.82 429.914 300.095L496.482 360.905C497.016 361.397 497.588 361.831 498.17 362.246C479.341 409.006 467.579 472.905 477.211 478.333C489.239 485.115 511.129 456.21 537.927 414.314C557.122 384.293 555.56 314.188 550.11 309.215L550.11 309.205Z" stroke="white" stroke-miterlimit="10"/>
<path d="M270.986 367.339C270.986 367.339 366.31 550.347 478.781 368.498C478.781 368.498 465.113 425.614 440.332 445.9L438.58 499C438.58 499 380.125 528.63 308.588 498.275L308.289 443.802C308.289 443.802 264.978 404.073 270.986 367.339Z" fill="#0000FF"/>
<path d="M269.212 367.991L324.817 298.224C330.555 291.033 328.965 280.736 321.296 275.347L287.586 251.679C279.917 246.291 268.944 247.772 263.216 254.963L217.92 311.787C215.431 313.306 203.5 333.663 204.624 338.201C199.924 358.532 199.86 387.137 211.914 413.328C232.568 458.22 250.195 489.606 263.075 484.39C272.893 480.421 270.953 421.465 260.321 373.785C263.765 372.817 266.917 370.861 269.212 367.971L269.212 367.991Z" stroke="white" stroke-miterlimit="10"/>
<path d="M298.983 455.458L253.297 455.203C247.48 455.171 242.737 459.862 242.705 465.682L242.655 474.562C242.623 480.382 247.312 485.126 253.13 485.158L298.816 485.413C304.633 485.446 309.376 480.754 309.408 474.935L309.458 466.055C309.49 460.235 304.801 455.491 298.983 455.458Z" fill="#FFDAC2" stroke="white" stroke-miterlimit="10"/>
<path d="M389.407 160.999C389.476 160.578 389.526 160.147 389.529 159.716L389.589 148.968C389.602 146.506 388.552 144.268 386.837 142.639C384.132 140.066 380.762 139.99 380.13 139.986L368.677 139.923C363.43 139.893 359.146 143.864 359.119 148.788L359.059 159.536C359.057 159.852 359.074 160.159 359.101 160.466C345.689 161.425 331.953 167.307 327.183 188.155C325.014 197.646 329.115 207.45 337.597 213.006L367.356 232.504C367.263 249.22 345.483 263.699 363.294 263.798L382.675 263.906C400.486 264.005 375.96 250.629 376.053 233.913L410.464 214.38C417.889 210.168 422.805 195.893 421.298 187.866C415.663 157.879 403.116 163.375 389.416 160.989L389.407 160.999Z" fill="black"/>
<path d="M359.053 158.934C359.053 158.934 373.372 153.275 389.415 159.64L359.053 158.934Z" fill="black"/>
<path d="M359.053 158.934C359.053 158.934 373.372 153.275 389.415 159.64" stroke="#FBB03B" stroke-width="2" stroke-miterlimit="10"/>
<path d="M372.921 273.357C393.806 273.473 408.18 254.47 411.829 233.789L331.393 233.34C334.811 254.061 352.046 273.24 372.921 273.357Z" fill="#FFDAC2" stroke="white" stroke-miterlimit="10"/>
<path d="M371.501 184.916C348.069 184.786 328.96 204.471 328.824 228.899C328.809 231.552 329.034 234.159 329.45 236.681L412.971 237.147C413.416 234.621 413.67 232.026 413.684 229.372C413.821 204.954 394.933 185.047 371.501 184.916Z" fill="#FFDAC2"/>
<path d="M491.259 459.683L445.572 459.428C439.755 459.395 435.013 464.087 434.98 469.907L434.931 478.787C434.898 484.607 439.588 489.351 445.405 489.383L491.091 489.638C496.909 489.67 501.651 484.979 501.684 479.159L501.733 470.279C501.766 464.459 497.076 459.715 491.259 459.683Z" fill="#FFDAC2" stroke="white" stroke-miterlimit="10"/>
</g>
<defs>
<linearGradient id="paint0_linear_189_3393" x1="374.5" y1="0" x2="374.5" y2="813" gradientUnits="userSpaceOnUse">
<stop offset="0.446022" stop-color="#FFFFFE"/>
<stop offset="1" stop-color="#B4D756"/>
</linearGradient>
<clipPath id="clip0_189_3393">
<rect width="224" height="128" fill="white" transform="translate(262 604)"/>
</clipPath>
<clipPath id="clip1_189_3393">
<rect width="460" height="454" fill="white" transform="translate(153.27 138.721) rotate(0.319721)"/>
</clipPath>
</defs>
</svg>
